<svg width="221" height="426" viewBox="0 0 221 426" fill="none" xmlns="http://www.w3.org/2000/svg">
<rect width="116" height="426" fill="#D9D9D9"/>
<rect x="9" y="12" width="212" height="54" fill="white"/>
<rect x="9" y="12" width="212" height="54" fill="white"/>
<rect x="9" y="77" width="98" height="339" fill="white"/>
<rect x="9" y="77" width="98" height="339" fill="white"/>
<rect x="107" y="242" width="9" height="93" fill="white"/>
<rect x="107" y="242" width="9" height="93" fill="white"/>
<rect x="107" y="129" width="9" height="93" fill="white"/>
<rect x="107" y="129" width="9" height="93" fill="white"/>
<rect width="11" height="19.0861" transform="matrix(-0.000434144 1 -1 -0.00069323 125.925 222.013)" fill="white"/>
<rect width="11" height="19.0861" transform="matrix(-0.000434144 1 -1 -0.00069323 125.925 222.013)" fill="#D9D9D9"/>
<rect width="11" height="19.0382" transform="matrix(-0.000434144 1 -1 -0.00069323 125.877 335.013)" fill="white"/>
<rect width="11" height="19.0382" transform="matrix(-0.000434144 1 -1 -0.00069323 125.877 335.013)" fill="#D9D9D9"/>
<rect width="11" height="19.3117" transform="matrix(-0.000434144 1 -1 -0.00069323 126.151 108.013)" fill="white"/>
<rect width="11" height="19.3117" transform="matrix(-0.000434144 1 -1 -0.00069323 126.151 108.013)" fill="#D9D9D9"/>
<path d="M70 335L61.3397 350H78.6603L70 335ZM70 416L78.6603 401H61.3397L70 416ZM68.5 348.5L68.5 402.5H71.5L71.5 348.5H68.5Z" fill="black"/>
<path d="M70 222L61.3397 237H78.6603L70 222ZM70 335L78.6603 320H61.3397L70 335ZM68.5 235.5L68.5 321.5H71.5L71.5 235.5H68.5Z" fill="black"/>
<path d="M88 12L79.3397 27H96.6603L88 12ZM88 66L96.6603 51H79.3397L88 66ZM86.5 25.5V52.5H89.5V25.5H86.5Z" fill="black"/>
<path d="M70 77L61.3397 92H78.6603L70 77ZM70 222L78.6603 207H61.3397L70 222ZM68.5 90.5L68.5 208.5H71.5L71.5 90.5H68.5Z" fill="black"/>
<line x1="107" y1="335.25" x2="82" y2="335.25" stroke="black" stroke-width="0.5"/>
<line x1="107" y1="222.25" x2="82" y2="222.25" stroke="black" stroke-width="0.5"/>
<path d="M56 394.239H41.4545V389.324C41.4545 388.183 41.6605 387.25 42.0724 386.526C42.4796 385.796 43.0312 385.257 43.7273 384.906C44.4233 384.556 45.1998 384.381 46.0568 384.381C46.9138 384.381 47.6927 384.556 48.3935 384.906C49.0942 385.252 49.6529 385.787 50.0696 386.511C50.4815 387.236 50.6875 388.164 50.6875 389.295V392.818H49.125V389.352C49.125 388.571 48.9901 387.944 48.7202 387.47C48.4503 386.997 48.0857 386.653 47.6264 386.44C47.1624 386.223 46.6392 386.114 46.0568 386.114C45.4744 386.114 44.9536 386.223 44.4943 386.44C44.035 386.653 43.6752 386.999 43.4148 387.477C43.1496 387.955 43.017 388.59 43.017 389.381V392.477H56V394.239ZM56.2273 377.456C56.2273 378.441 55.9929 379.305 55.5241 380.048C55.0554 380.787 54.3996 381.365 53.5568 381.781C52.714 382.193 51.7292 382.399 50.6023 382.399C49.4659 382.399 48.474 382.193 47.6264 381.781C46.7789 381.365 46.1207 380.787 45.652 380.048C45.1832 379.305 44.9489 378.441 44.9489 377.456C44.9489 376.471 45.1832 375.609 45.652 374.871C46.1207 374.127 46.7789 373.55 47.6264 373.138C48.474 372.721 49.4659 372.513 50.6023 372.513C51.7292 372.513 52.714 372.721 53.5568 373.138C54.3996 373.55 55.0554 374.127 55.5241 374.871C55.9929 375.609 56.2273 376.471 56.2273 377.456ZM54.7216 377.456C54.7216 376.708 54.5298 376.092 54.1463 375.609C53.7628 375.126 53.2585 374.769 52.6335 374.537C52.0085 374.305 51.3314 374.189 50.6023 374.189C49.8731 374.189 49.1937 374.305 48.5639 374.537C47.9342 374.769 47.4252 375.126 47.0369 375.609C46.6487 376.092 46.4545 376.708 46.4545 377.456C46.4545 378.204 46.6487 378.82 47.0369 379.303C47.4252 379.786 47.9342 380.143 48.5639 380.375C49.1937 380.607 49.8731 380.723 50.6023 380.723C51.3314 380.723 52.0085 380.607 52.6335 380.375C53.2585 380.143 53.7628 379.786 54.1463 379.303C54.5298 378.82 54.7216 378.204 54.7216 377.456ZM56.2273 365.522C56.2273 366.545 55.9858 367.426 55.5028 368.164C55.0199 368.903 54.3546 369.471 53.5071 369.869C52.6596 370.267 51.6913 370.466 50.6023 370.466C49.4943 370.466 48.5166 370.262 47.669 369.855C46.8168 369.443 46.1515 368.87 45.6733 368.136C45.1903 367.397 44.9489 366.536 44.9489 365.551C44.9489 364.784 45.0909 364.092 45.375 363.477C45.6591 362.861 46.0568 362.357 46.5682 361.964C47.0795 361.571 47.6761 361.327 48.358 361.233V362.909C47.8608 363.037 47.4205 363.321 47.0369 363.761C46.6487 364.197 46.4545 364.784 46.4545 365.522C46.4545 366.176 46.625 366.749 46.9659 367.241C47.3021 367.729 47.7779 368.11 48.3935 368.385C49.0043 368.654 49.7216 368.789 50.5455 368.789C51.3883 368.789 52.1222 368.657 52.7472 368.392C53.3722 368.122 53.8575 367.743 54.2031 367.255C54.5488 366.763 54.7216 366.185 54.7216 365.522C54.7216 365.087 54.6458 364.691 54.4943 364.336C54.3428 363.981 54.125 363.681 53.8409 363.434C53.5568 363.188 53.2159 363.013 52.8182 362.909V361.233C53.4621 361.327 54.0421 361.562 54.5582 361.936C55.0696 362.305 55.4768 362.795 55.7798 363.406C56.0781 364.012 56.2273 364.717 56.2273 365.522ZM55.9432 366.318V364.926L56.5114 365.039C56.5682 364.67 56.7221 364.332 56.973 364.024C57.2287 363.716 57.6335 363.562 58.1875 363.562C58.7983 363.562 59.2955 363.815 59.679 364.322C60.0672 364.824 60.2614 365.565 60.2614 366.545L59.1534 366.602C59.1534 366.162 59.0824 365.797 58.9403 365.508C58.803 365.215 58.571 365.068 58.2443 365.068C57.9176 365.068 57.6951 365.189 57.5767 365.43C57.4583 365.672 57.3778 366.062 57.3352 366.602L55.9432 366.318ZM56.2273 354.35C56.2273 355.335 55.9929 356.199 55.5241 356.943C55.0554 357.681 54.3996 358.259 53.5568 358.676C52.714 359.088 51.7292 359.294 50.6023 359.294C49.4659 359.294 48.474 359.088 47.6264 358.676C46.7789 358.259 46.1207 357.681 45.652 356.943C45.1832 356.199 44.9489 355.335 44.9489 354.35C44.9489 353.366 45.1832 352.504 45.652 351.765C46.1207 351.022 46.7789 350.444 47.6264 350.032C48.474 349.616 49.4659 349.407 50.6023 349.407C51.7292 349.407 52.714 349.616 53.5568 350.032C54.3996 350.444 55.0554 351.022 55.5241 351.765C55.9929 352.504 56.2273 353.366 56.2273 354.35ZM54.7216 354.35C54.7216 353.602 54.5298 352.987 54.1463 352.504C53.7628 352.021 53.2585 351.663 52.6335 351.431C52.0085 351.199 51.3314 351.083 50.6023 351.083C49.8731 351.083 49.1937 351.199 48.5639 351.431C47.9342 351.663 47.4252 352.021 47.0369 352.504C46.6487 352.987 46.4545 353.602 46.4545 354.35C46.4545 355.099 46.6487 355.714 47.0369 356.197C47.4252 356.68 47.9342 357.038 48.5639 357.27C49.1937 357.502 49.8731 357.618 50.6023 357.618C51.3314 357.618 52.0085 357.502 52.6335 357.27C53.2585 357.038 53.7628 356.68 54.1463 356.197C54.5298 355.714 54.7216 355.099 54.7216 354.35Z" fill="black"/>
<path d="M104.595 34.3757L102.748 34.3987L107.907 19.7878L109.725 19.7651L115.247 34.2428L113.401 34.2659L108.902 22.0767L108.788 22.0781L104.595 34.3757ZM105.206 28.6858L112.648 28.593L112.668 30.1554L105.225 30.2482L105.206 28.6858ZM118.78 19.6522L118.962 34.1965L117.286 34.2174L117.104 19.6731L118.78 19.6522ZM126.639 23.1908L126.657 24.6111L121.004 24.6817L120.986 23.2613L126.639 23.1908ZM122.601 20.6273L124.277 20.6064L124.407 31.0033C124.413 31.4768 124.486 31.831 124.626 32.066C124.771 32.2962 124.953 32.4502 125.172 32.528C125.395 32.601 125.63 32.6359 125.876 32.6329C126.061 32.6306 126.212 32.6192 126.33 32.5988C126.448 32.5736 126.543 32.5535 126.614 32.5384L126.973 34.0397C126.86 34.0838 126.702 34.1284 126.499 34.1735C126.296 34.2234 126.038 34.2503 125.726 34.2542C125.252 34.2601 124.787 34.1641 124.33 33.9662C123.878 33.7682 123.5 33.4628 123.196 33.0498C122.898 32.6369 122.744 32.1132 122.737 31.4788L122.601 20.6273ZM136.115 29.522L136.035 23.0736L137.711 23.0527L137.847 33.9609L136.171 33.9819L136.148 32.1354L136.034 32.1368C135.785 32.6939 135.394 33.17 134.859 33.5649C134.324 33.9552 133.644 34.1554 132.821 34.1657C132.139 34.1742 131.531 34.0326 130.997 33.741C130.463 33.4446 130.041 32.9953 129.73 32.393C129.419 31.7861 129.258 31.0186 129.247 30.0906L129.16 23.1594L130.836 23.1385L130.921 29.9561C130.931 30.7515 131.162 31.3831 131.613 31.851C132.068 32.3189 132.644 32.5485 133.34 32.5398C133.757 32.5346 134.179 32.4228 134.607 32.2043C135.04 31.9859 135.401 31.6546 135.689 31.2107C135.982 30.7666 136.124 30.2037 136.115 29.522ZM140.916 33.9227L140.78 23.0144L142.4 22.9942L142.42 24.6418L142.534 24.6404C142.726 24.0982 143.08 23.6558 143.597 23.3131C144.113 22.9705 144.698 22.7951 145.352 22.7869C145.475 22.7854 145.629 22.7858 145.814 22.7883C145.998 22.7907 146.138 22.7961 146.233 22.8044L146.254 24.5088C146.197 24.4953 146.067 24.4756 145.863 24.4497C145.663 24.4191 145.452 24.4051 145.23 24.4079C144.7 24.4145 144.228 24.5317 143.814 24.7594C143.405 24.9823 143.082 25.2894 142.845 25.6806C142.613 26.0671 142.5 26.5065 142.506 26.9989L142.592 33.9018L140.916 33.9227ZM151.57 34.0455C150.879 34.0541 150.25 33.9317 149.684 33.6784C149.117 33.4203 148.665 33.0447 148.327 32.5517C147.989 32.054 147.816 31.4501 147.807 30.7399C147.8 30.1149 147.916 29.6068 148.158 29.2155C148.399 28.8195 148.724 28.5076 149.133 28.28C149.542 28.0523 149.995 27.8809 150.491 27.7658C150.991 27.646 151.494 27.5497 152 27.4771C152.662 27.3836 153.198 27.313 153.61 27.2653C154.026 27.2127 154.328 27.1308 154.516 27.0196C154.709 26.9082 154.803 26.7177 154.8 26.4478L154.799 26.391C154.79 25.6903 154.592 25.1482 154.204 24.7648C153.82 24.3813 153.242 24.1943 152.471 24.2039C151.67 24.2139 151.045 24.3969 150.595 24.7529C150.145 25.109 149.83 25.487 149.65 25.887L148.053 25.3387C148.328 24.6723 148.701 24.1515 149.169 23.7763C149.643 23.3963 150.161 23.1294 150.722 22.9756C151.288 22.8171 151.846 22.7343 152.395 22.7275C152.746 22.7231 153.149 22.7607 153.604 22.8403C154.064 22.915 154.509 23.0776 154.938 23.3279C155.373 23.5782 155.735 23.9596 156.025 24.4721C156.316 24.9846 156.466 25.6741 156.477 26.5405L156.567 33.7275L154.891 33.7484L154.872 32.2712L154.787 32.2723C154.677 32.5104 154.49 32.7661 154.229 33.0392C153.967 33.3124 153.617 33.5464 153.179 33.7413C152.741 33.9362 152.205 34.0376 151.57 34.0455ZM151.807 32.5367C152.47 32.5285 153.027 32.3913 153.478 32.1252C153.934 31.8591 154.276 31.5186 154.503 31.1038C154.734 30.689 154.847 30.2543 154.842 29.7998L154.823 28.2658C154.753 28.3519 154.597 28.432 154.357 28.506C154.121 28.5753 153.847 28.6379 153.535 28.6939C153.228 28.745 152.928 28.7914 152.635 28.8329C152.346 28.8697 152.112 28.901 151.933 28.9269C151.498 28.9892 151.092 29.0866 150.715 29.2191C150.342 29.3469 150.042 29.5377 149.813 29.7915C149.589 30.0405 149.479 30.3781 149.484 30.8042C149.492 31.3865 149.713 31.8242 150.147 32.1171C150.586 32.4052 151.14 32.545 151.807 32.5367ZM169.685 33.7911C168.662 33.8039 167.779 33.5734 167.034 33.0997C166.289 32.626 165.713 31.9679 165.305 31.1254C164.896 30.2829 164.685 29.3171 164.672 28.2282C164.658 27.1203 164.849 26.1401 165.246 25.2876C165.647 24.4302 166.212 23.7579 166.94 23.2706C167.672 22.7784 168.531 22.5262 169.516 22.5139C170.283 22.5044 170.976 22.6378 171.595 22.9142C172.214 23.1906 172.723 23.582 173.122 24.0884C173.522 24.5948 173.773 25.1883 173.876 25.8689L172.2 25.8898C172.066 25.3943 171.777 24.9575 171.331 24.5795C170.891 24.1967 170.302 24.0099 169.563 24.0192C168.91 24.0273 168.339 24.2049 167.851 24.5519C167.367 24.8941 166.992 25.3747 166.725 25.9936C166.463 26.6077 166.337 27.3267 166.347 28.1505C166.358 28.9932 166.499 29.7254 166.772 30.3471C167.05 30.9687 167.435 31.4492 167.927 31.7887C168.423 32.1282 169.003 32.2938 169.666 32.2856C170.102 32.2801 170.496 32.1994 170.849 32.0435C171.202 31.8876 171.5 31.666 171.743 31.3789C171.986 31.0918 172.157 30.7487 172.256 30.3497L173.932 30.3288C173.845 30.9739 173.618 31.5568 173.25 32.0775C172.887 32.5934 172.403 33.0067 171.796 33.3173C171.193 33.6232 170.49 33.7811 169.685 33.7911ZM181.373 18.1896L176.903 35.6615L175.369 35.6806L179.839 18.2087L181.373 18.1896ZM104.07 58.3841L103.934 47.4759L105.553 47.4557L105.575 49.1601L105.717 49.1583C105.937 48.5731 106.298 48.1164 106.801 47.7882C107.303 47.4552 107.909 47.2842 108.62 47.2754C109.339 47.2664 109.94 47.4223 110.422 47.743C110.909 48.0589 111.291 48.5063 111.569 49.0853L111.682 49.0839C111.954 48.517 112.368 48.0644 112.922 47.726C113.477 47.3829 114.145 47.2065 114.926 47.1967C115.901 47.1845 116.703 47.48 117.331 48.083C117.958 48.6813 118.28 49.6219 118.296 50.905L118.387 58.2055L116.711 58.2264L116.62 50.9259C116.61 50.121 116.383 49.5485 115.938 49.2084C115.494 48.8683 114.973 48.7019 114.377 48.7094C113.61 48.7189 113.018 48.9583 112.603 49.4276C112.187 49.8921 111.984 50.477 111.992 51.1825L112.081 58.2842L110.377 58.3054L110.283 50.8344C110.276 50.2142 110.068 49.7172 109.661 49.3435C109.254 48.965 108.733 48.7798 108.099 48.7877C107.663 48.7931 107.257 48.9142 106.881 49.1509C106.51 49.3875 106.211 49.7133 105.984 50.1281C105.762 50.5381 105.655 51.0106 105.661 51.5456L105.746 58.3632L104.07 58.3841ZM124.665 58.3829C123.974 58.3916 123.345 58.2692 122.778 58.0158C122.211 57.7577 121.759 57.3822 121.422 56.8892C121.084 56.3915 120.911 55.7875 120.902 55.0773C120.894 54.4524 121.011 53.9443 121.252 53.553C121.493 53.1569 121.819 52.8451 122.228 52.6174C122.637 52.3898 123.089 52.2184 123.585 52.1033C124.086 51.9834 124.589 51.8872 125.094 51.8146C125.756 51.7211 126.293 51.6505 126.704 51.6027C127.12 51.5502 127.422 51.4683 127.61 51.357C127.803 51.2457 127.898 51.0551 127.894 50.7852L127.894 50.7284C127.885 50.0277 127.686 49.4857 127.298 49.1022C126.914 48.7187 126.337 48.5318 125.565 48.5414C124.765 48.5514 124.14 48.7344 123.69 49.0904C123.239 49.4464 122.924 49.8244 122.745 50.2244L121.147 49.6761C121.423 49.0098 121.795 48.489 122.264 48.1138C122.737 47.7338 123.255 47.4669 123.817 47.3131C124.383 47.1545 124.941 47.0718 125.49 47.0649C125.84 47.0606 126.243 47.0982 126.699 47.1777C127.159 47.2525 127.604 47.415 128.033 47.6654C128.467 47.9157 128.829 48.2971 129.12 48.8096C129.41 49.3221 129.561 50.0116 129.572 50.878L129.661 58.0649L127.985 58.0858L127.967 56.6087L127.882 56.6097C127.771 56.8479 127.585 57.1035 127.323 57.3767C127.061 57.6499 126.711 57.8839 126.273 58.0788C125.835 58.2736 125.299 58.375 124.665 58.3829ZM124.902 56.8742C125.565 56.8659 126.122 56.7287 126.573 56.4627C127.029 56.1966 127.37 55.8561 127.597 55.4413C127.829 55.0265 127.942 54.5918 127.936 54.1373L127.917 52.6033C127.847 52.6894 127.692 52.7695 127.451 52.8435C127.215 52.9127 126.941 52.9753 126.63 53.0313C126.322 53.0825 126.022 53.1289 125.729 53.1704C125.441 53.2071 125.207 53.2385 125.027 53.2644C124.592 53.3266 124.186 53.424 123.809 53.5566C123.437 53.6843 123.136 53.8751 122.907 54.129C122.683 54.378 122.574 54.7155 122.579 55.1417C122.586 55.724 122.807 56.1616 123.242 56.4545C123.681 56.7426 124.234 56.8825 124.902 56.8742ZM124.82 45.738L126.511 42.4212L128.471 42.3967L126.297 45.7195L124.82 45.738ZM140.214 62.0245L140.142 56.2579L140 56.2597C139.879 56.4601 139.707 56.7132 139.484 57.019C139.26 57.3201 138.939 57.5917 138.521 57.8337C138.103 58.0709 137.543 58.1939 136.842 58.2026C135.933 58.214 135.128 57.9944 134.426 57.5438C133.724 57.0885 133.172 56.4419 132.768 55.6041C132.365 54.7615 132.156 53.7626 132.141 52.6074C132.127 51.4617 132.311 50.465 132.694 49.6173C133.076 48.7697 133.615 48.1119 134.31 47.6439C135.005 47.1759 135.811 46.9362 136.73 46.9247C137.44 46.9159 138.003 47.0273 138.417 47.2588C138.837 47.4856 139.158 47.7468 139.379 48.0424C139.605 48.3331 139.781 48.5724 139.907 48.7603L140.105 48.7578L140.084 47.025L141.703 47.0048L141.89 62.0036L140.214 62.0245ZM137.051 56.6942C137.723 56.6859 138.289 56.5036 138.749 56.1474C139.208 55.7866 139.555 55.2922 139.788 54.6642C140.022 54.0315 140.134 53.3032 140.123 52.4794C140.113 51.6651 139.986 50.9541 139.742 50.3463C139.497 49.7337 139.141 49.2599 138.673 48.9248C138.204 48.585 137.629 48.4193 136.948 48.4278C136.237 48.4367 135.648 48.6264 135.179 48.9968C134.715 49.3625 134.368 49.8569 134.139 50.4801C133.915 51.0984 133.807 51.7911 133.817 52.5581C133.827 53.3346 133.954 54.0385 134.199 54.67C134.448 55.2967 134.809 55.7941 135.283 56.1623C135.761 56.5257 136.35 56.703 137.051 56.6942ZM151.726 53.3291L151.645 46.8808L153.321 46.8599L153.457 57.7681L151.781 57.789L151.758 55.9426L151.645 55.944C151.396 56.5011 151.004 56.9771 150.469 57.3721C149.934 57.7623 149.255 57.9626 148.431 57.9729C147.749 57.9814 147.142 57.8398 146.608 57.5481C146.073 57.2517 145.651 56.8024 145.341 56.2002C145.03 55.5932 144.869 54.8257 144.857 53.8978L144.771 46.9665L146.447 46.9456L146.532 53.7633C146.542 54.5587 146.772 55.1903 147.223 55.6582C147.679 56.126 148.255 56.3556 148.951 56.3469C149.367 56.3417 149.79 56.2299 150.218 56.0115C150.651 55.793 151.011 55.4618 151.299 55.0178C151.592 54.5738 151.734 54.0109 151.726 53.3291ZM156.527 57.7298L156.391 46.8216L158.067 46.8007L158.203 57.7089L156.527 57.7298ZM157.221 44.9929C156.894 44.997 156.611 44.8892 156.371 44.6697C156.137 44.45 156.017 44.184 156.013 43.8715C156.009 43.559 156.122 43.2901 156.351 43.0647C156.585 42.8392 156.866 42.7244 157.192 42.7204C157.519 42.7163 157.8 42.8241 158.034 43.0437C158.274 43.2632 158.396 43.5293 158.4 43.8417C158.403 44.1542 158.288 44.4232 158.054 44.6487C157.825 44.8741 157.547 44.9888 157.221 44.9929ZM162.867 51.0877L162.949 57.6497L161.273 57.6706L161.137 46.7624L162.756 46.7422L162.777 48.4466L162.919 48.4448C163.168 47.8877 163.551 47.4378 164.067 47.0952C164.584 46.7478 165.254 46.569 166.078 46.5587C166.816 46.5495 167.465 46.6929 168.022 46.989C168.58 47.2804 169.016 47.7295 169.332 48.3364C169.647 48.9386 169.811 49.7037 169.822 50.6316L169.909 57.5629L168.233 57.5838L168.147 50.7662C168.137 49.9092 167.906 49.2444 167.455 48.7718C167.004 48.2944 166.39 48.0606 165.614 48.0703C165.079 48.077 164.602 48.1989 164.183 48.4362C163.77 48.6733 163.445 49.016 163.209 49.464C162.973 49.9121 162.859 50.4533 162.867 51.0877ZM176.184 57.7403C175.493 57.749 174.864 57.6266 174.297 57.3732C173.731 57.1151 173.279 56.7396 172.941 56.2466C172.603 55.7489 172.43 55.1449 172.421 54.4347C172.413 53.8098 172.53 53.3017 172.772 52.9104C173.013 52.5143 173.338 52.2025 173.747 51.9748C174.156 51.7472 174.609 51.5758 175.104 51.4607C175.605 51.3408 176.108 51.2446 176.614 51.172C177.276 51.0785 177.812 51.0079 178.223 50.9601C178.64 50.9076 178.942 50.8257 179.13 50.7144C179.322 50.6031 179.417 50.4125 179.414 50.1426L179.413 50.0858C179.404 49.3851 179.206 48.8431 178.817 48.4596C178.434 48.0761 177.856 47.8892 177.084 47.8988C176.284 47.9088 175.659 48.0918 175.209 48.4478C174.759 48.8038 174.444 49.1818 174.264 49.5818L172.666 49.0335C172.942 48.3672 173.314 47.8464 173.783 47.4712C174.257 47.0912 174.774 46.8243 175.336 46.6705C175.902 46.5119 176.46 46.4292 177.009 46.4223C177.359 46.418 177.762 46.4556 178.218 46.5351C178.678 46.6099 179.123 46.7724 179.552 47.0228C179.986 47.2731 180.349 47.6545 180.639 48.167C180.93 48.6795 181.08 49.369 181.091 50.2354L181.181 57.4223L179.505 57.4432L179.486 55.9661L179.401 55.9671C179.29 56.2053 179.104 56.4609 178.842 56.7341C178.581 57.0073 178.231 57.2413 177.793 57.4362C177.355 57.631 176.819 57.7324 176.184 57.7403ZM176.421 56.2316C177.084 56.2233 177.641 56.0861 178.092 55.8201C178.548 55.554 178.89 55.2135 179.117 54.7987C179.348 54.3839 179.461 53.9492 179.455 53.4947L179.436 51.9607C179.366 52.0468 179.211 52.1269 178.971 52.2009C178.735 52.2701 178.461 52.3327 178.149 52.3887C177.842 52.4399 177.542 52.4863 177.249 52.5278C176.96 52.5645 176.726 52.5959 176.547 52.6218C176.112 52.684 175.706 52.7814 175.329 52.914C174.956 53.0417 174.655 53.2325 174.427 53.4864C174.202 53.7354 174.093 54.073 174.098 54.4991C174.106 55.0814 174.326 55.519 174.761 55.8119C175.2 56.1 175.754 56.2399 176.421 56.2316Z" fill="black"/>
<path d="M42.4545 208.693V206.932H52.0852C53.0795 206.932 53.9673 207.166 54.7486 207.635C55.5251 208.099 56.1383 208.755 56.5881 209.602C57.0331 210.45 57.2557 211.444 57.2557 212.585C57.2557 213.726 57.0331 214.721 56.5881 215.568C56.1383 216.416 55.5251 217.074 54.7486 217.543C53.9673 218.007 53.0795 218.239 52.0852 218.239H42.4545V216.477H51.9432C52.6534 216.477 53.2855 216.321 53.8395 216.009C54.3887 215.696 54.822 215.251 55.1392 214.673C55.4517 214.091 55.608 213.395 55.608 212.585C55.608 211.776 55.4517 211.08 55.1392 210.497C54.822 209.915 54.3887 209.47 53.8395 209.162C53.2855 208.849 52.6534 208.693 51.9432 208.693H42.4545ZM40.9773 213.352L37.6818 211.619V209.659L40.9773 211.875V213.352ZM42.4545 201.966H57V203.642H42.4545V201.966ZM46.0909 194.151H47.5114V199.805H46.0909V194.151ZM43.4773 198.157V196.481H53.875C54.3485 196.481 54.7036 196.412 54.9403 196.275C55.1723 196.133 55.3286 195.953 55.4091 195.735C55.4848 195.513 55.5227 195.278 55.5227 195.032C55.5227 194.847 55.5133 194.696 55.4943 194.577C55.4706 194.459 55.4517 194.364 55.4375 194.293L56.9432 193.952C56.9858 194.066 57.0284 194.225 57.071 194.428C57.1184 194.632 57.142 194.89 57.142 195.202C57.142 195.676 57.0402 196.14 56.8366 196.594C56.633 197.044 56.3229 197.418 55.9062 197.717C55.4896 198.01 54.964 198.157 54.3295 198.157H43.4773ZM57 191.63H46.0909V189.954H57V191.63ZM44.2727 190.778C44.2727 191.104 44.1615 191.386 43.9389 191.623C43.7164 191.855 43.4489 191.971 43.1364 191.971C42.8239 191.971 42.5563 191.855 42.3338 191.623C42.1113 191.386 42 191.104 42 190.778C42 190.451 42.1113 190.172 42.3338 189.94C42.5563 189.703 42.8239 189.585 43.1364 189.585C43.4489 189.585 43.7164 189.703 43.9389 189.94C44.1615 190.172 44.2727 190.451 44.2727 190.778ZM57 186.884H46.0909V185.265H47.7955V185.123C47.2131 184.895 46.7609 184.528 46.4389 184.022C46.1122 183.515 45.9489 182.907 45.9489 182.196C45.9489 181.477 46.1122 180.878 46.4389 180.4C46.7609 179.917 47.2131 179.54 47.7955 179.27V179.157C47.232 178.877 46.7846 178.458 46.4531 177.9C46.117 177.341 45.9489 176.671 45.9489 175.89C45.9489 174.914 46.2543 174.116 46.8651 173.496C47.4711 172.876 48.4157 172.566 49.6989 172.566H57V174.242H49.6989C48.8939 174.242 48.3187 174.462 47.973 174.902C47.6274 175.343 47.4545 175.861 47.4545 176.458C47.4545 177.225 47.6866 177.819 48.1506 178.24C48.6098 178.662 49.1922 178.873 49.8977 178.873H57V180.577H49.5284C48.9081 180.577 48.4086 180.778 48.0298 181.181C47.6463 181.583 47.4545 182.102 47.4545 182.736C47.4545 183.172 47.5705 183.579 47.8026 183.958C48.0346 184.332 48.3565 184.635 48.7685 184.867C49.1757 185.094 49.6468 185.208 50.1818 185.208H57V186.884ZM57.2557 166.291C57.2557 166.982 57.1255 167.609 56.8651 168.173C56.5999 168.736 56.2188 169.184 55.7216 169.515C55.2197 169.847 54.6136 170.012 53.9034 170.012C53.2784 170.012 52.7718 169.889 52.3835 169.643C51.9905 169.397 51.6828 169.068 51.4602 168.656C51.2377 168.244 51.072 167.789 50.9631 167.292C50.8494 166.79 50.7595 166.286 50.6932 165.779C50.608 165.117 50.544 164.579 50.5014 164.167C50.4541 163.751 50.3759 163.448 50.267 163.258C50.1581 163.064 49.9687 162.967 49.6989 162.967H49.642C48.9413 162.967 48.3968 163.159 48.0085 163.542C47.6203 163.921 47.4261 164.496 47.4261 165.268C47.4261 166.068 47.6013 166.696 47.9517 167.15C48.3021 167.605 48.6761 167.924 49.0739 168.109L48.5057 169.7C47.8428 169.416 47.3267 169.037 46.9574 168.564C46.5833 168.085 46.3229 167.565 46.1761 167.001C46.0246 166.433 45.9489 165.874 45.9489 165.325C45.9489 164.975 45.9915 164.572 46.0767 164.118C46.1572 163.658 46.3253 163.216 46.581 162.789C46.8366 162.359 47.2225 162.001 47.7386 161.717C48.2547 161.433 48.946 161.291 49.8125 161.291H57V162.967H55.5227V163.052C55.7595 163.166 56.0128 163.355 56.2827 163.62C56.5526 163.886 56.7822 164.238 56.9716 164.679C57.161 165.119 57.2557 165.656 57.2557 166.291ZM55.75 166.035C55.75 165.372 55.6198 164.814 55.3594 164.359C55.099 163.9 54.7628 163.554 54.3509 163.322C53.9389 163.085 53.5057 162.967 53.0511 162.967H51.517C51.6023 163.038 51.6804 163.194 51.7514 163.436C51.8177 163.672 51.8769 163.947 51.929 164.26C51.9763 164.567 52.0189 164.868 52.0568 165.162C52.09 165.45 52.1184 165.685 52.142 165.865C52.1989 166.3 52.2912 166.708 52.419 167.086C52.5421 167.46 52.7292 167.763 52.9801 167.995C53.2263 168.223 53.5625 168.336 53.9886 168.336C54.571 168.336 55.0114 168.121 55.3097 167.69C55.6032 167.254 55.75 166.703 55.75 166.035ZM57.2557 149.396C57.2557 150.088 57.1255 150.715 56.8651 151.278C56.5999 151.842 56.2188 152.289 55.7216 152.621C55.2197 152.952 54.6136 153.118 53.9034 153.118C53.2784 153.118 52.7718 152.995 52.3835 152.749C51.9905 152.502 51.6828 152.173 51.4602 151.761C51.2377 151.349 51.072 150.895 50.9631 150.398C50.8494 149.896 50.7595 149.392 50.6932 148.885C50.608 148.222 50.544 147.685 50.5014 147.273C50.4541 146.856 50.3759 146.553 50.267 146.364C50.1581 146.17 49.9687 146.072 49.6989 146.072H49.642C48.9413 146.072 48.3968 146.264 48.0085 146.648C47.6203 147.027 47.4261 147.602 47.4261 148.374C47.4261 149.174 47.6013 149.801 47.9517 150.256C48.3021 150.71 48.6761 151.03 49.0739 151.214L48.5057 152.805C47.8428 152.521 47.3267 152.143 46.9574 151.669C46.5833 151.191 46.3229 150.67 46.1761 150.107C46.0246 149.538 45.9489 148.98 45.9489 148.43C45.9489 148.08 45.9915 147.678 46.0767 147.223C46.1572 146.764 46.3253 146.321 46.581 145.895C46.8366 145.464 47.2225 145.107 47.7386 144.822C48.2547 144.538 48.946 144.396 49.8125 144.396H57V146.072H55.5227V146.158C55.7595 146.271 56.0128 146.461 56.2827 146.726C56.5526 146.991 56.7822 147.344 56.9716 147.784C57.161 148.224 57.2557 148.762 57.2557 149.396ZM55.75 149.141C55.75 148.478 55.6198 147.919 55.3594 147.464C55.099 147.005 54.7628 146.66 54.3509 146.428C53.9389 146.191 53.5057 146.072 53.0511 146.072H51.517C51.6023 146.143 51.6804 146.3 51.7514 146.541C51.8177 146.778 51.8769 147.053 51.929 147.365C51.9763 147.673 52.0189 147.973 52.0568 148.267C52.09 148.556 52.1184 148.79 52.142 148.97C52.1989 149.406 52.2912 149.813 52.419 150.192C52.5421 150.566 52.7292 150.869 52.9801 151.101C53.2263 151.328 53.5625 151.442 53.9886 151.442C54.571 151.442 55.0114 151.226 55.3097 150.795C55.6032 150.36 55.75 149.808 55.75 149.141ZM42.4545 139.661H57V141.337H42.4545V139.661ZM46.0909 131.847H47.5114V137.5H46.0909V131.847ZM43.4773 135.852V134.176H53.875C54.3485 134.176 54.7036 134.107 54.9403 133.97C55.1723 133.828 55.3286 133.648 55.4091 133.43C55.4848 133.208 55.5227 132.973 55.5227 132.727C55.5227 132.543 55.5133 132.391 55.4943 132.273C55.4706 132.154 55.4517 132.06 55.4375 131.989L56.9432 131.648C56.9858 131.761 57.0284 131.92 57.071 132.124C57.1184 132.327 57.142 132.585 57.142 132.898C57.142 133.371 57.0402 133.835 56.8366 134.29C56.633 134.74 56.3229 135.114 55.9063 135.412C55.4896 135.705 54.964 135.852 54.3295 135.852H43.4773ZM52.5398 122.45H46.0909V120.774H57V122.45H55.1534V122.564C55.7074 122.82 56.1785 123.217 56.5668 123.757C56.9503 124.297 57.142 124.979 57.142 125.803C57.142 126.484 56.9929 127.09 56.6946 127.621C56.3916 128.151 55.937 128.568 55.331 128.871C54.7202 129.174 53.9508 129.325 53.0227 129.325H46.0909V127.649H52.9091C53.7045 127.649 54.339 127.427 54.8125 126.982C55.286 126.532 55.5227 125.959 55.5227 125.263C55.5227 124.846 55.4162 124.422 55.2031 123.991C54.9901 123.556 54.6634 123.191 54.223 122.898C53.7827 122.599 53.2216 122.45 52.5398 122.45ZM57 117.704H46.0909V116.085H47.7386V115.971C47.1989 115.772 46.7609 115.413 46.4247 114.892C46.0885 114.371 45.9205 113.784 45.9205 113.13C45.9205 113.007 45.9228 112.853 45.9276 112.669C45.9323 112.484 45.9394 112.344 45.9489 112.25H47.6534C47.6392 112.306 47.6179 112.437 47.5895 112.64C47.5563 112.839 47.5398 113.05 47.5398 113.272C47.5398 113.803 47.651 114.276 47.8736 114.693C48.0914 115.105 48.3944 115.431 48.7827 115.673C49.1662 115.91 49.6042 116.028 50.0966 116.028H57V117.704ZM57.2557 107.053C57.2557 107.744 57.1255 108.371 56.8651 108.935C56.5999 109.498 56.2188 109.946 55.7216 110.277C55.2197 110.608 54.6136 110.774 53.9034 110.774C53.2784 110.774 52.7718 110.651 52.3835 110.405C51.9905 110.159 51.6828 109.83 51.4602 109.418C51.2377 109.006 51.072 108.551 50.9631 108.054C50.8494 107.552 50.7595 107.048 50.6932 106.541C50.608 105.878 50.544 105.341 50.5014 104.929C50.4541 104.512 50.3759 104.209 50.267 104.02C50.1581 103.826 49.9687 103.729 49.6989 103.729H49.642C48.9413 103.729 48.3968 103.92 48.0085 104.304C47.6203 104.683 47.4261 105.258 47.4261 106.03C47.4261 106.83 47.6013 107.457 47.9517 107.912C48.3021 108.366 48.6761 108.686 49.0739 108.871L48.5057 110.462C47.8428 110.178 47.3267 109.799 46.9574 109.325C46.5833 108.847 46.3229 108.326 46.1761 107.763C46.0246 107.195 45.9489 106.636 45.9489 106.087C45.9489 105.736 45.9915 105.334 46.0767 104.879C46.1572 104.42 46.3253 103.977 46.581 103.551C46.8366 103.12 47.2225 102.763 47.7386 102.479C48.2547 102.195 48.946 102.053 49.8125 102.053H57V103.729H55.5227V103.814C55.7595 103.928 56.0128 104.117 56.2827 104.382C56.5526 104.647 56.7822 105 56.9716 105.44C57.161 105.881 57.2557 106.418 57.2557 107.053ZM55.75 106.797C55.75 106.134 55.6198 105.575 55.3594 105.121C55.099 104.661 54.7628 104.316 54.3509 104.084C53.9389 103.847 53.5057 103.729 53.0511 103.729H51.517C51.6023 103.8 51.6804 103.956 51.7514 104.197C51.8177 104.434 51.8769 104.709 51.929 105.021C51.9763 105.329 52.0189 105.63 52.0568 105.923C52.09 106.212 52.1184 106.446 52.142 106.626C52.1989 107.062 52.2912 107.469 52.419 107.848C52.5421 108.222 52.7292 108.525 52.9801 108.757C53.2263 108.984 53.5625 109.098 53.9886 109.098C54.571 109.098 55.0114 108.883 55.3097 108.452C55.6032 108.016 55.75 107.464 55.75 106.797Z" fill="black"/>
<path d="M57 327.239H42.4545V322.324C42.4545 321.183 42.6605 320.25 43.0724 319.526C43.4796 318.796 44.0312 318.257 44.7273 317.906C45.4233 317.556 46.1998 317.381 47.0568 317.381C47.9138 317.381 48.6927 317.556 49.3935 317.906C50.0942 318.252 50.6529 318.787 51.0696 319.511C51.4815 320.236 51.6875 321.164 51.6875 322.295V325.818H50.125V322.352C50.125 321.571 49.9901 320.944 49.7202 320.47C49.4503 319.997 49.0857 319.653 48.6264 319.44C48.1624 319.223 47.6392 319.114 47.0568 319.114C46.4744 319.114 45.9536 319.223 45.4943 319.44C45.035 319.653 44.6752 319.999 44.4148 320.477C44.1496 320.955 44.017 321.59 44.017 322.381V325.477H57V327.239ZM57.2273 310.314C57.2273 311.365 56.9953 312.272 56.5312 313.034C56.0625 313.792 55.4091 314.376 54.571 314.788C53.7282 315.196 52.7481 315.399 51.6307 315.399C50.5133 315.399 49.5284 315.196 48.6761 314.788C47.8191 314.376 47.1515 313.804 46.6733 313.07C46.1903 312.331 45.9489 311.469 45.9489 310.484C45.9489 309.916 46.0436 309.355 46.233 308.801C46.4223 308.247 46.7301 307.743 47.1562 307.288C47.5777 306.834 48.1364 306.472 48.8324 306.202C49.5284 305.932 50.3854 305.797 51.4034 305.797H52.1136V314.206H50.6648V307.501C50.0492 307.501 49.5 307.625 49.017 307.871C48.5341 308.112 48.1529 308.458 47.8736 308.908C47.5942 309.353 47.4545 309.878 47.4545 310.484C47.4545 311.152 47.6203 311.73 47.9517 312.217C48.2784 312.7 48.7045 313.072 49.2301 313.332C49.7557 313.593 50.3191 313.723 50.9205 313.723H51.8864C52.7102 313.723 53.4086 313.581 53.9815 313.297C54.5497 313.008 54.983 312.608 55.2812 312.097C55.5748 311.585 55.7216 310.991 55.7216 310.314C55.7216 309.874 55.66 309.476 55.5369 309.121C55.4091 308.761 55.2197 308.451 54.9688 308.19C54.7131 307.93 54.3958 307.729 54.017 307.587L54.4716 305.967C55.0208 306.138 55.5038 306.424 55.9205 306.827C56.3324 307.229 56.6544 307.726 56.8864 308.318C57.1136 308.91 57.2273 309.575 57.2273 310.314ZM57 303.247H46.0909V301.628H47.7386V301.514C47.1989 301.315 46.7609 300.955 46.4247 300.435C46.0885 299.914 45.9205 299.327 45.9205 298.673C45.9205 298.55 45.9228 298.396 45.9276 298.212C45.9323 298.027 45.9394 297.887 45.9489 297.793H47.6534C47.6392 297.849 47.6179 297.98 47.5895 298.183C47.5563 298.382 47.5398 298.593 47.5398 298.815C47.5398 299.346 47.651 299.819 47.8736 300.236C48.0914 300.648 48.3944 300.974 48.7827 301.216C49.1662 301.453 49.6042 301.571 50.0966 301.571H57V303.247ZM57.2273 291.706C57.2273 292.729 56.9858 293.609 56.5028 294.348C56.0199 295.087 55.3546 295.655 54.5071 296.053C53.6596 296.45 52.6913 296.649 51.6023 296.649C50.4943 296.649 49.5166 296.446 48.669 296.038C47.8168 295.626 47.1515 295.054 46.6733 294.32C46.1903 293.581 45.9489 292.719 45.9489 291.734C45.9489 290.967 46.0909 290.276 46.375 289.661C46.6591 289.045 47.0568 288.541 47.5682 288.148C48.0795 287.755 48.6761 287.511 49.358 287.416V289.092C48.8608 289.22 48.4205 289.504 48.0369 289.945C47.6487 290.38 47.4545 290.967 47.4545 291.706C47.4545 292.359 47.625 292.932 47.9659 293.425C48.3021 293.912 48.7779 294.294 49.3935 294.568C50.0043 294.838 50.7216 294.973 51.5455 294.973C52.3883 294.973 53.1222 294.84 53.7472 294.575C54.3722 294.305 54.8575 293.927 55.2031 293.439C55.5488 292.946 55.7216 292.369 55.7216 291.706C55.7216 291.27 55.6458 290.875 55.4943 290.52C55.3428 290.165 55.125 289.864 54.8409 289.618C54.5568 289.372 54.2159 289.196 53.8182 289.092V287.416C54.4621 287.511 55.0421 287.745 55.5582 288.119C56.0696 288.489 56.4768 288.979 56.7798 289.589C57.0781 290.196 57.2273 290.901 57.2273 291.706ZM52.5398 278.091H46.0909V276.415H57V278.091H55.1534V278.205C55.7074 278.46 56.1785 278.858 56.5668 279.398C56.9503 279.937 57.142 280.619 57.142 281.443C57.142 282.125 56.9929 282.731 56.6946 283.261C56.3916 283.792 55.937 284.208 55.331 284.511C54.7202 284.814 53.9508 284.966 53.0227 284.966H46.0909V283.29H52.9091C53.7045 283.29 54.339 283.067 54.8125 282.622C55.286 282.172 55.5227 281.599 55.5227 280.903C55.5227 280.487 55.4162 280.063 55.2031 279.632C54.9901 279.196 54.6634 278.832 54.223 278.538C53.7827 278.24 53.2216 278.091 52.5398 278.091ZM57 273.345H46.0909V271.725H47.7386V271.612C47.1989 271.413 46.7609 271.053 46.4247 270.532C46.0885 270.011 45.9205 269.424 45.9205 268.771C45.9205 268.648 45.9228 268.494 45.9276 268.309C45.9323 268.125 45.9394 267.985 45.9489 267.89H47.6534C47.6392 267.947 47.6179 268.077 47.5895 268.281C47.5563 268.48 47.5398 268.69 47.5398 268.913C47.5398 269.443 47.651 269.917 47.8736 270.333C48.0914 270.745 48.3944 271.072 48.7827 271.314C49.1662 271.55 49.6042 271.669 50.0966 271.669H57L57 273.345ZM48.5341 258.176L48.9602 259.682C48.7093 259.777 48.4654 259.916 48.2287 260.101C47.9872 260.281 47.7884 260.527 47.6321 260.839C47.4759 261.152 47.3977 261.552 47.3977 262.04C47.3977 262.707 47.5516 263.264 47.8594 263.709C48.1624 264.149 48.5483 264.369 49.017 264.369C49.4337 264.369 49.7628 264.218 50.0043 263.915C50.2457 263.612 50.447 263.138 50.608 262.494L51.0057 260.875C51.2424 259.9 51.6046 259.173 52.0923 258.695C52.5753 258.216 53.1979 257.977 53.9602 257.977C54.5852 257.977 55.1439 258.157 55.6364 258.517C56.1288 258.872 56.517 259.369 56.8011 260.009C57.0852 260.648 57.2273 261.391 57.2273 262.239C57.2273 263.351 56.9858 264.272 56.5028 265.001C56.0199 265.731 55.3144 266.192 54.3864 266.386L53.9886 264.795C54.5758 264.644 55.0161 264.357 55.3097 263.936C55.6032 263.51 55.75 262.954 55.75 262.267C55.75 261.486 55.5843 260.866 55.2528 260.406C54.9167 259.942 54.5142 259.71 54.0455 259.71C53.6667 259.71 53.3494 259.843 53.0938 260.108C52.8333 260.373 52.6392 260.78 52.5114 261.33L52.0852 263.148C51.8485 264.147 51.4815 264.881 50.9844 265.349C50.4825 265.813 49.8551 266.045 49.1023 266.045C48.4867 266.045 47.9422 265.873 47.4688 265.527C46.9953 265.177 46.6236 264.701 46.3537 264.099C46.0838 263.493 45.9489 262.807 45.9489 262.04C45.9489 260.96 46.1856 260.113 46.6591 259.497C47.1326 258.877 47.7576 258.437 48.5341 258.176ZM57.2273 251.022C57.2273 252.007 56.9929 252.871 56.5241 253.615C56.0554 254.353 55.3996 254.931 54.5568 255.348C53.714 255.76 52.7292 255.966 51.6023 255.966C50.4659 255.966 49.474 255.76 48.6264 255.348C47.7789 254.931 47.1207 254.353 46.652 253.615C46.1832 252.871 45.9489 252.007 45.9489 251.022C45.9489 250.038 46.1832 249.176 46.652 248.437C47.1207 247.694 47.7789 247.116 48.6264 246.704C49.474 246.288 50.4659 246.079 51.6023 246.079C52.7292 246.079 53.714 246.288 54.5568 246.704C55.3996 247.116 56.0554 247.694 56.5241 248.437C56.9929 249.176 57.2273 250.038 57.2273 251.022ZM55.7216 251.022C55.7216 250.274 55.5298 249.659 55.1463 249.176C54.7628 248.693 54.2585 248.335 53.6335 248.103C53.0085 247.871 52.3314 247.755 51.6023 247.755C50.8731 247.755 50.1937 247.871 49.5639 248.103C48.9342 248.335 48.4252 248.693 48.0369 249.176C47.6487 249.659 47.4545 250.274 47.4545 251.022C47.4545 251.77 47.6487 252.386 48.0369 252.869C48.4252 253.352 48.9342 253.709 49.5639 253.941C50.1937 254.173 50.8731 254.289 51.6023 254.289C52.3314 254.289 53.0085 254.173 53.6335 253.941C54.2585 253.709 54.7628 253.352 55.1463 252.869C55.5298 252.386 55.7216 251.77 55.7216 251.022Z" fill="black"/>
</svg>
