<svg width="171" height="328" viewBox="0 0 171 328" fill="none" xmlns="http://www.w3.org/2000/svg">
<rect x="0.92598" y="0.747894" width="88.8491" height="326.291" transform="rotate(-0.0259972 0.92598 0.747894)" fill="#D9D9D9"/>
<rect x="7.82361" y="9.93605" width="162.379" height="41.3608" transform="rotate(-0.0259972 7.82361 9.93605)" fill="white"/>
<rect x="7.82361" y="9.93605" width="162.379" height="41.3608" transform="rotate(-0.0259972 7.82361 9.93605)" fill="white"/>
<rect x="7.8462" y="59.7222" width="75.0621" height="259.654" transform="rotate(-0.0259972 7.8462 59.7222)" fill="white"/>
<rect x="7.8462" y="59.7222" width="75.0621" height="259.654" transform="rotate(-0.0259972 7.8462 59.7222)" fill="white"/>
<rect x="82.9657" y="186.068" width="6.89346" height="71.2324" transform="rotate(-0.0259972 82.9657 186.068)" fill="white"/>
<rect x="82.9657" y="186.068" width="6.89346" height="71.2324" transform="rotate(-0.0259972 82.9657 186.068)" fill="white"/>
<rect x="82.9264" y="99.517" width="6.89346" height="71.2324" transform="rotate(-0.0259972 82.9264 99.517)" fill="white"/>
<rect x="82.9264" y="99.517" width="6.89346" height="71.2324" transform="rotate(-0.0259972 82.9264 99.517)" fill="white"/>
<rect width="8.42534" height="14.6188" transform="matrix(1.95936e-05 1 -1 -0.000239493 97.4544 170.753)" fill="white"/>
<rect width="8.42534" height="14.6188" transform="matrix(1.95936e-05 1 -1 -0.000239493 97.4544 170.753)" fill="#D9D9D9"/>
<rect width="8.42534" height="14.5821" transform="matrix(1.95936e-05 1 -1 -0.000239493 97.457 257.304)" fill="white"/>
<rect width="8.42534" height="14.5821" transform="matrix(1.95936e-05 1 -1 -0.000239493 97.457 257.304)" fill="#D9D9D9"/>
<rect width="8.42534" height="14.7916" transform="matrix(1.95936e-05 1 -1 -0.000239493 97.5876 83.4358)" fill="white"/>
<rect width="8.42534" height="14.7916" transform="matrix(1.95936e-05 1 -1 -0.000239493 97.5876 83.4358)" fill="#D9D9D9"/>
<path d="M54.6582 257.314L48.8892 267.316L60.4363 267.311L54.6582 257.314ZM54.6864 319.355L60.4553 309.352L48.9083 309.357L54.6864 319.355ZM53.6623 266.314L53.6823 310.355L55.6823 310.354L55.6623 266.313L53.6623 266.314Z" fill="black"/>
<path d="M54.6189 170.762L48.85 180.765L60.397 180.76L54.6189 170.762ZM54.6582 257.314L60.4272 247.311L48.8802 247.316L54.6582 257.314ZM53.623 179.763L53.6541 248.314L55.6541 248.313L55.623 179.762L53.623 179.763Z" fill="black"/>
<path d="M68.3329 9.9086L62.5639 19.9112L74.1109 19.906L68.3329 9.9086ZM68.3516 51.2694L74.1206 41.2667L62.5736 41.272L68.3516 51.2694ZM67.337 18.9091L67.3476 42.2698L69.3476 42.2689L69.337 18.9081L67.337 18.9091Z" fill="black"/>
<path d="M54.5686 59.701L48.7996 69.7036L60.3466 69.6983L54.5686 59.701ZM54.6189 170.762L60.3879 160.76L48.8409 160.765L54.6189 170.762ZM53.5726 68.7014L53.6149 161.763L55.6149 161.762L55.5726 68.7005L53.5726 68.7014Z" fill="black"/>
<line x1="82.9981" y1="257.551" x2="63.8496" y2="257.559" stroke="black" stroke-width="0.5"/>
<line x1="82.9588" y1="170.999" x2="63.8103" y2="171.008" stroke="black" stroke-width="0.5"/>
<path d="M44.4027 302.631L32.7664 302.637L32.7646 298.705C32.7642 297.792 32.9286 297.046 33.2579 296.466C33.5834 295.883 34.0245 295.451 34.5812 295.17C35.1379 294.889 35.759 294.749 36.4446 294.749C37.1302 294.748 37.7534 294.888 38.3141 295.168C38.8749 295.445 39.322 295.872 39.6556 296.452C39.9854 297.031 40.1505 297.774 40.151 298.679L40.1522 301.497L38.9022 301.498L38.901 298.725C38.9007 298.1 38.7925 297.598 38.5764 297.219C38.3603 296.841 38.0686 296.566 37.7011 296.396C37.3298 296.222 36.9112 296.135 36.4453 296.135C35.9793 296.135 35.5627 296.223 35.1954 296.397C34.828 296.568 34.5403 296.844 34.3321 297.227C34.1202 297.61 34.0143 298.117 34.0146 298.75L34.0157 301.227L44.4021 301.222L44.4027 302.631ZM44.5785 289.205C44.5788 289.993 44.3916 290.684 44.0169 291.279C43.6422 291.87 43.1178 292.333 42.4437 292.666C41.7696 292.996 40.9818 293.161 40.0803 293.162C39.1712 293.162 38.3775 292.998 37.6994 292.669C37.0212 292.336 36.4945 291.874 36.1192 291.283C35.7439 290.688 35.5561 289.997 35.5557 289.209C35.5554 288.421 35.7426 287.732 36.1173 287.141C36.492 286.546 37.0183 286.084 37.6962 285.754C38.3741 285.42 39.1676 285.253 40.0767 285.253C40.9782 285.252 41.7661 285.419 42.4405 285.752C43.1149 286.081 43.6398 286.543 44.015 287.137C44.3903 287.728 44.5781 288.417 44.5785 289.205ZM43.3739 289.206C43.3737 288.607 43.22 288.115 42.913 287.729C42.606 287.342 42.2025 287.057 41.7024 286.871C41.2023 286.686 40.6606 286.593 40.0773 286.594C39.494 286.594 38.9504 286.687 38.4467 286.873C37.943 287.059 37.536 287.345 37.2255 287.731C36.9151 288.118 36.76 288.61 36.7603 289.209C36.7606 289.807 36.9161 290.3 37.2269 290.686C37.5377 291.072 37.945 291.358 38.4489 291.543C38.9527 291.729 39.4963 291.821 40.0797 291.821C40.663 291.821 41.2046 291.728 41.7045 291.542C42.2044 291.356 42.6077 291.07 42.9144 290.683C43.221 290.297 43.3742 289.804 43.3739 289.206ZM44.5741 279.658C44.5745 280.477 44.3817 281.181 43.9956 281.772C43.6095 282.363 43.0775 282.818 42.3996 283.137C41.7217 283.455 40.9471 283.615 40.0759 283.615C39.1896 283.615 38.4073 283.453 37.7291 283.127C37.0472 282.798 36.5148 282.34 36.1319 281.753C35.7453 281.162 35.5518 280.473 35.5514 279.685C35.5511 279.072 35.6645 278.518 35.8916 278.026C36.1186 277.533 36.4366 277.13 36.8456 276.815C37.2545 276.501 37.7317 276.305 38.2771 276.229L38.2777 277.57C37.8801 277.673 37.5279 277.9 37.2212 278.253C36.9108 278.601 36.7557 279.071 36.756 279.662C36.7562 280.185 36.8928 280.643 37.1657 281.037C37.4348 281.427 37.8156 281.731 38.3081 281.951C38.7969 282.167 39.3708 282.274 40.0299 282.274C40.7041 282.274 41.2912 282.167 41.7911 281.955C42.291 281.739 42.6791 281.436 42.9555 281.045C43.2318 280.651 43.3698 280.189 43.3696 279.659C43.3694 279.31 43.3087 278.994 43.1873 278.71C43.066 278.426 42.8917 278.186 42.6643 277.989C42.4369 277.792 42.1641 277.652 41.8459 277.569L41.8453 276.228C42.3605 276.303 42.8246 276.491 43.2376 276.79C43.6468 277.085 43.9728 277.477 44.2154 277.965C44.4543 278.45 44.5739 279.014 44.5741 279.658ZM44.3472 280.295L44.3467 279.181L44.8012 279.272C44.8466 278.976 44.9695 278.705 45.1702 278.459C45.3746 278.213 45.6984 278.09 46.1416 278.089C46.6302 278.089 47.0281 278.292 47.3351 278.697C47.6459 279.098 47.8014 279.691 47.8018 280.475L46.9154 280.521C46.9153 280.169 46.8583 279.877 46.7446 279.646C46.6346 279.411 46.449 279.294 46.1876 279.294C45.9262 279.294 45.7483 279.391 45.6537 279.584C45.559 279.777 45.4948 280.09 45.4609 280.522L44.3472 280.295ZM44.5701 270.721C44.5704 271.509 44.3833 272.2 44.0085 272.795C43.6338 273.386 43.1094 273.848 42.4353 274.182C41.7612 274.512 40.9734 274.677 40.0719 274.677C39.1628 274.678 38.3692 274.513 37.691 274.184C37.0128 273.851 36.4861 273.389 36.1108 272.799C35.7355 272.204 35.5477 271.513 35.5474 270.725C35.547 269.937 35.7342 269.248 36.1089 268.656C36.4837 268.062 37.01 267.599 37.6878 267.269C38.3657 266.936 39.1592 266.769 40.0683 266.768C40.9698 266.768 41.7578 266.934 42.4322 267.267C43.1065 267.596 43.6314 268.058 44.0066 268.653C44.3819 269.244 44.5697 269.933 44.5701 270.721ZM43.3655 270.721C43.3653 270.123 43.2116 269.631 42.9046 269.244C42.5977 268.858 42.1941 268.572 41.694 268.387C41.1939 268.202 40.6522 268.109 40.0689 268.109C39.4856 268.11 38.942 268.203 38.4383 268.388C37.9346 268.574 37.5276 268.86 37.2171 269.247C36.9067 269.633 36.7516 270.126 36.7519 270.724C36.7522 271.323 36.9077 271.815 37.2185 272.201C37.5293 272.588 37.9366 272.873 38.4405 273.059C38.9443 273.244 39.4879 273.337 40.0713 273.337C40.6546 273.336 41.1962 273.243 41.6961 273.057C42.1961 272.872 42.5993 272.585 42.906 272.199C43.2126 271.812 43.3658 271.32 43.3655 270.721Z" fill="black"/>
<path d="M81.1373 27.4873L79.6602 27.5064L83.7821 15.8158L85.2365 15.797L89.6593 27.3772L88.1822 27.3963L84.5786 17.6466L84.4877 17.6478L81.1373 27.4873ZM81.624 22.9352L87.578 22.8582L87.5942 24.1081L81.6401 24.1851L81.624 22.9352ZM92.4803 15.7034L92.6307 27.3388L91.2899 27.3561L91.1395 15.7207L92.4803 15.7034ZM98.7688 18.5314L98.7834 19.6677L94.2611 19.7261L94.2464 18.5899L98.7688 18.5314ZM95.5375 16.4821L96.8783 16.4648L96.9858 24.7823C96.9907 25.161 97.0493 25.4444 97.1615 25.6323C97.2776 25.8164 97.4231 25.9396 97.5982 26.0017C97.777 26.06 97.9649 26.0879 98.1618 26.0853C98.3095 26.0834 98.4306 26.0743 98.5251 26.0579C98.6196 26.0378 98.6951 26.0216 98.7518 26.0095L99.0401 27.2105C98.9496 27.2457 98.8232 27.2814 98.6607 27.3176C98.4984 27.3576 98.2922 27.3792 98.0422 27.3825C97.6634 27.3874 97.2912 27.3107 96.9255 27.1526C96.5636 26.9943 96.2611 26.7501 96.0182 26.4199C95.7791 26.0896 95.6562 25.6707 95.6497 25.1632L95.5375 16.4821ZM106.352 23.5929L106.285 18.4343L107.626 18.4169L107.739 27.1435L106.398 27.1608L106.379 25.6836L106.288 25.6848C106.089 26.1306 105.776 26.5116 105.348 26.8277C104.92 27.1401 104.377 27.3006 103.718 27.3091C103.172 27.3161 102.686 27.2031 102.259 26.97C101.831 26.733 101.493 26.3737 101.245 25.8921C100.996 25.4066 100.867 24.7927 100.857 24.0503L100.786 18.5053L102.126 18.488L102.197 23.9421C102.205 24.5784 102.39 25.0836 102.751 25.4578C103.115 25.8319 103.576 26.0154 104.133 26.0082C104.466 26.0039 104.804 25.9142 105.147 25.7394C105.493 25.5644 105.781 25.2993 106.011 24.944C106.245 24.5887 106.359 24.1383 106.352 23.5929ZM110.195 27.1117L110.082 18.3852L111.377 18.3684L111.394 19.6865L111.485 19.6853C111.639 19.2515 111.922 18.8974 112.335 18.6231C112.748 18.3488 113.216 18.2083 113.739 18.2015C113.837 18.2003 113.96 18.2006 114.108 18.2024C114.256 18.2043 114.368 18.2085 114.444 18.2151L114.461 19.5787C114.416 19.5679 114.311 19.5522 114.148 19.5316C113.989 19.5071 113.82 19.496 113.642 19.4983C113.218 19.5038 112.84 19.5977 112.509 19.7801C112.182 19.9585 111.924 20.2043 111.734 20.5174C111.549 20.8266 111.459 21.1782 111.464 21.5721L111.535 27.0944L110.195 27.1117ZM118.718 27.2061C118.165 27.2133 117.662 27.1156 117.208 26.9131C116.755 26.7068 116.393 26.4065 116.123 26.0123C115.852 25.6142 115.713 25.1311 115.706 24.563C115.7 24.063 115.793 23.6565 115.986 23.3434C116.179 23.0265 116.439 22.7769 116.766 22.5946C117.093 22.4123 117.455 22.275 117.852 22.1828C118.252 22.0867 118.654 22.0095 119.059 21.9513C119.588 21.8762 120.018 21.8195 120.347 21.7812C120.679 21.739 120.921 21.6734 121.071 21.5843C121.226 21.4952 121.301 21.3427 121.299 21.1268L121.298 21.0813C121.291 20.5208 121.132 20.0872 120.821 19.7806C120.514 19.4739 120.052 19.3246 119.434 19.3325C118.794 19.3408 118.294 19.4874 117.934 19.7724C117.574 20.0574 117.322 20.3599 117.179 20.68L115.9 20.2419C116.121 19.7087 116.418 19.292 116.793 18.9917C117.172 18.6875 117.586 18.4738 118.035 18.3506C118.488 18.2235 118.934 18.1571 119.374 18.1514C119.654 18.1478 119.976 18.1777 120.341 18.2412C120.709 18.3008 121.065 18.4307 121.408 18.6308C121.756 18.8309 122.046 19.1359 122.278 19.5458C122.511 19.9557 122.632 20.5072 122.64 21.2004L122.715 26.9499L121.374 26.9672L121.359 25.7855L121.291 25.7864C121.202 25.9769 121.053 26.1815 120.844 26.4001C120.635 26.6188 120.355 26.8061 120.005 26.9622C119.654 27.1182 119.225 27.1995 118.718 27.2061ZM118.907 25.999C119.437 25.9922 119.883 25.8822 120.243 25.6692C120.608 25.4561 120.881 25.1837 121.063 24.8517C121.248 24.5198 121.338 24.172 121.333 23.8084L121.317 22.5812C121.261 22.6501 121.137 22.7142 120.945 22.7735C120.756 22.829 120.537 22.8792 120.288 22.9241C120.042 22.9651 119.802 23.0023 119.567 23.0357C119.337 23.0652 119.149 23.0903 119.006 23.1111C118.658 23.1611 118.333 23.2392 118.031 23.3453C117.734 23.4477 117.493 23.6004 117.31 23.8036C117.131 24.0029 117.043 24.273 117.048 24.6138C117.054 25.0797 117.231 25.4297 117.578 25.6639C117.93 25.8942 118.373 26.0059 118.907 25.999ZM133.209 26.996C132.391 27.0066 131.684 26.8226 131.088 26.4439C130.492 26.0652 130.031 25.5389 129.704 24.865C129.377 24.1912 129.208 23.4187 129.197 22.5475C129.185 21.6612 129.338 20.877 129.655 20.1948C129.976 19.5088 130.427 18.9707 131.009 18.5806C131.595 18.1866 132.282 17.9846 133.07 17.9744C133.683 17.9664 134.238 18.0729 134.733 18.2938C135.229 18.5147 135.636 18.8276 135.956 19.2326C136.275 19.6376 136.477 20.1123 136.559 20.6568L135.219 20.6741C135.111 20.2777 134.879 19.9284 134.523 19.6262C134.171 19.3201 133.699 19.1709 133.108 19.1785C132.585 19.1853 132.129 19.3276 131.739 19.6053C131.352 19.8793 131.052 20.2639 130.839 20.7591C130.629 21.2505 130.528 21.8257 130.537 22.4848C130.546 23.1589 130.659 23.7446 130.878 24.2419C131.1 24.739 131.408 25.1233 131.802 25.3948C132.199 25.6662 132.663 25.7985 133.194 25.7916C133.542 25.7871 133.858 25.7224 134.14 25.5975C134.423 25.4727 134.661 25.2953 134.855 25.0655C135.049 24.8357 135.185 24.5612 135.265 24.242L136.605 24.2246C136.536 24.7407 136.355 25.2071 136.061 25.6238C135.771 26.0367 135.383 26.3675 134.898 26.6162C134.416 26.8611 133.853 26.9877 133.209 26.996ZM142.554 14.5106L138.985 28.4897L137.757 28.5056L141.327 14.5264L142.554 14.5106ZM80.7239 46.4943L80.6111 37.7677L81.9064 37.751L81.924 39.1145L82.0377 39.113C82.2134 38.6448 82.5023 38.2793 82.9042 38.0165C83.3061 37.7499 83.7911 37.613 84.3593 37.6056C84.935 37.5982 85.4158 37.7227 85.8017 37.9791C86.1914 38.2316 86.4972 38.5894 86.7191 39.0525L86.81 39.0513C87.0276 38.5977 87.3582 38.2355 87.8017 37.9646C88.2452 37.6899 88.7794 37.5485 89.4043 37.5404C90.1845 37.5303 90.8259 37.7664 91.3284 38.2486C91.8308 38.7269 92.0887 39.4794 92.102 40.5058L92.1775 46.3462L90.8367 46.3635L90.7612 40.5231C90.7528 39.8792 90.5708 39.4213 90.2149 39.1494C89.8591 38.8774 89.4426 38.7446 88.9654 38.7507C88.3518 38.7587 87.8788 38.9504 87.5466 39.3259C87.2142 39.6977 87.0517 40.1657 87.059 40.7301L87.1324 46.4114L85.7689 46.429L85.6916 40.4523C85.6852 39.9561 85.5191 39.5586 85.1932 39.2598C84.8673 38.9571 84.4506 38.8091 83.9431 38.8156C83.5946 38.8202 83.2701 38.9172 82.9695 39.1067C82.6727 39.2961 82.4336 39.5568 82.2522 39.8887C82.0747 40.2168 81.9886 40.5948 81.9942 41.0228L82.0647 46.4769L80.7239 46.4943ZM97.1996 46.4859C96.6466 46.493 96.1434 46.3953 95.69 46.1928C95.2365 45.9866 94.8746 45.6863 94.6044 45.292C94.3341 44.894 94.1952 44.4109 94.1879 43.8427C94.1814 43.3428 94.2746 42.9362 94.4676 42.6231C94.6605 42.3062 94.9205 42.0566 95.2477 41.8743C95.575 41.6921 95.9369 41.5548 96.3334 41.4625C96.7337 41.3664 97.1362 41.2893 97.5408 41.231C98.0701 41.156 98.4994 41.0993 98.8284 41.0609C99.1613 41.0187 99.4029 40.9531 99.5532 40.864C99.7074 40.7749 99.7831 40.6224 99.7803 40.4065L99.7797 40.3611C99.7725 39.8005 99.6134 39.3669 99.3026 39.0603C98.9956 38.7537 98.5334 38.6043 97.916 38.6123C97.2759 38.6206 96.7759 38.7672 96.4159 39.0522C96.0559 39.3372 95.8041 39.6397 95.6605 39.9597L94.382 39.5217C94.6024 38.9885 94.9001 38.5717 95.275 38.2714C95.6537 37.9672 96.0677 37.7535 96.5169 37.6303C96.9698 37.5032 97.4159 37.4368 97.8553 37.4312C98.1356 37.4275 98.458 37.4575 98.8225 37.5209C99.1907 37.5806 99.5466 37.7105 99.8901 37.9106C100.237 38.1107 100.527 38.4156 100.76 38.8256C100.993 39.2355 101.113 39.787 101.122 40.4801L101.197 46.2296L99.8558 46.247L99.8405 45.0652L99.7723 45.0661C99.6839 45.2567 99.535 45.4613 99.3257 45.6799C99.1164 45.8985 98.8366 46.0859 98.4863 46.2419C98.136 46.398 97.7071 46.4793 97.1996 46.4859ZM97.3885 45.2788C97.9188 45.2719 98.3644 45.162 98.7253 44.949C99.09 44.7359 99.363 44.4634 99.5443 44.1315C99.7294 43.7995 99.8197 43.4517 99.815 43.0881L99.7991 41.861C99.7432 41.9299 99.619 41.994 99.4265 42.0533C99.2379 42.1088 99.0188 42.1589 98.7693 42.2038C98.5236 42.2449 98.2836 42.2821 98.0491 42.3154C97.8184 42.3449 97.6312 42.3701 97.4876 42.3909C97.1397 42.4408 96.8149 42.5189 96.5132 42.6251C96.2153 42.7274 95.9748 42.8802 95.7918 43.0833C95.6126 43.2826 95.5251 43.5527 95.5296 43.8936C95.5356 44.3595 95.7125 44.7095 96.0602 44.9436C96.4117 45.174 96.8545 45.2857 97.3885 45.2788ZM97.3188 36.3698L98.671 33.7158L100.239 33.6955L98.5005 36.3546L97.3188 36.3698ZM109.64 49.3935L109.581 44.7802L109.467 44.7817C109.37 44.942 109.233 45.1446 109.054 45.3893C108.876 45.6303 108.619 45.8477 108.284 46.0414C107.95 46.2313 107.502 46.3299 106.941 46.3372C106.214 46.3466 105.57 46.1712 105.008 45.811C104.447 45.447 104.004 44.93 103.681 44.2598C103.358 43.5859 103.191 42.7869 103.179 41.8627C103.167 40.9461 103.314 40.1487 103.619 39.4705C103.925 38.7922 104.356 38.2658 104.912 37.8911C105.467 37.5165 106.113 37.3244 106.847 37.3149C107.416 37.3076 107.866 37.3965 108.198 37.5816C108.533 37.7629 108.79 37.9717 108.967 38.2081C109.148 38.4406 109.289 38.632 109.389 38.7822L109.548 38.7801L109.531 37.3939L110.826 37.3771L110.981 49.3761L109.64 49.3935ZM107.108 45.1304C107.645 45.1234 108.098 44.9774 108.466 44.6924C108.833 44.4035 109.11 44.0078 109.297 43.5054C109.484 42.9991 109.573 42.4165 109.564 41.7575C109.556 41.106 109.454 40.5372 109.258 40.051C109.062 39.5611 108.777 39.1822 108.402 38.9143C108.028 38.6426 107.568 38.5103 107.022 38.5173C106.454 38.5247 105.982 38.6766 105.607 38.9731C105.236 39.2658 104.959 39.6615 104.776 40.1601C104.597 40.6549 104.511 41.2091 104.519 41.8227C104.527 42.4438 104.629 43.007 104.825 43.512C105.025 44.0133 105.314 44.4111 105.693 44.7055C106.075 44.996 106.547 45.1376 107.108 45.1304ZM118.846 42.433L118.78 37.2743L120.121 37.257L120.233 45.9835L118.893 46.0009L118.873 44.5237L118.783 44.5249C118.584 44.9707 118.27 45.3517 117.843 45.6678C117.415 45.9802 116.871 46.1406 116.212 46.1492C115.667 46.1562 115.181 46.0432 114.753 45.81C114.326 45.5731 113.988 45.2138 113.739 44.7321C113.491 44.2467 113.361 43.6328 113.352 42.8904L113.28 37.3454L114.621 37.3281L114.692 42.7822C114.7 43.4185 114.884 43.9237 115.245 44.2979C115.61 44.672 116.071 44.8554 116.627 44.8482C116.961 44.8439 117.299 44.7543 117.641 44.5794C117.987 44.4045 118.276 44.1394 118.506 43.7841C118.74 43.4288 118.853 42.9784 118.846 42.433ZM122.689 45.9518L122.576 37.2252L123.917 37.2079L124.03 45.9345L122.689 45.9518ZM123.239 35.762C122.978 35.7654 122.751 35.6793 122.56 35.5037C122.372 35.3281 122.276 35.1153 122.273 34.8653C122.27 34.6154 122.36 34.4002 122.543 34.2197C122.73 34.0393 122.954 33.9474 123.216 33.944C123.477 33.9406 123.702 34.0267 123.89 34.2023C124.081 34.3779 124.179 34.5907 124.182 34.8407C124.185 35.0906 124.093 35.3059 123.906 35.4863C123.723 35.6667 123.501 35.7586 123.239 35.762ZM127.759 40.6358L127.826 45.8854L126.486 45.9027L126.373 37.1762L127.668 37.1594L127.686 38.5229L127.799 38.5215C127.998 38.0757 128.304 37.7156 128.717 37.4413C129.13 37.1633 129.667 37.0199 130.326 37.0114C130.916 37.0038 131.435 37.1183 131.881 37.355C132.328 37.5879 132.677 37.947 132.929 38.4324C133.182 38.9141 133.313 39.5261 133.322 40.2684L133.394 45.8134L132.053 45.8307L131.983 40.3767C131.974 39.6911 131.789 39.1594 131.428 38.7814C131.067 38.3997 130.576 38.2128 129.955 38.2209C129.527 38.2264 129.146 38.3241 128.811 38.5141C128.48 38.704 128.22 38.9782 128.032 39.3367C127.843 39.6953 127.752 40.1283 127.759 40.6358ZM138.415 45.9531C137.862 45.9602 137.359 45.8625 136.905 45.6601C136.452 45.4538 136.09 45.1535 135.82 44.7592C135.549 44.3612 135.411 43.8781 135.403 43.31C135.397 42.81 135.49 42.4035 135.683 42.0903C135.876 41.7734 136.136 41.5238 136.463 41.3415C136.79 41.1593 137.152 41.022 137.549 40.9298C137.949 40.8337 138.351 40.7565 138.756 40.6982C139.285 40.6232 139.715 40.5665 140.044 40.5282C140.377 40.486 140.618 40.4203 140.769 40.3313C140.923 40.2421 140.998 40.0896 140.996 39.8737L140.995 39.8283C140.988 39.2677 140.829 38.8342 140.518 38.5275C140.211 38.2209 139.749 38.0715 139.131 38.0795C138.491 38.0878 137.991 38.2344 137.631 38.5194C137.271 38.8044 137.019 39.1069 136.876 39.427L135.597 38.9889C135.818 38.4557 136.115 38.0389 136.49 37.7386C136.869 37.4345 137.283 37.2208 137.732 37.0975C138.185 36.9704 138.631 36.9041 139.071 36.8984C139.351 36.8948 139.673 36.9247 140.038 36.9882C140.406 37.0478 140.762 37.1777 141.105 37.3778C141.453 37.5779 141.743 37.8829 141.975 38.2928C142.208 38.7027 142.329 39.2542 142.338 39.9473L142.412 45.6968L141.071 45.7142L141.056 44.5325L140.988 44.5333C140.899 44.7239 140.75 44.9285 140.541 45.1471C140.332 45.3657 140.052 45.5531 139.702 45.7091C139.351 45.8652 138.922 45.9465 138.415 45.9531ZM138.604 44.746C139.134 44.7391 139.58 44.6292 139.941 44.4162C140.305 44.2031 140.578 43.9306 140.76 43.5987C140.945 43.2667 141.035 42.919 141.03 42.5553L141.014 41.3282C140.958 41.3971 140.834 41.4612 140.642 41.5205C140.453 41.576 140.234 41.6262 139.985 41.6711C139.739 41.7121 139.499 41.7493 139.264 41.7826C139.034 41.8121 138.847 41.8373 138.703 41.8581C138.355 41.9081 138.03 41.9861 137.729 42.0923C137.431 42.1946 137.19 42.3474 137.007 42.5505C136.828 42.7498 136.74 43.0199 136.745 43.3608C136.751 43.8267 136.928 44.1767 137.276 44.4109C137.627 44.6412 138.07 44.7529 138.604 44.746Z" fill="black"/>
<path d="M33.4677 160.195L33.4671 158.785L41.1716 158.782C41.9671 158.782 42.6774 158.969 43.3025 159.343C43.9239 159.714 44.4147 160.239 44.7748 160.917C45.1312 161.595 45.3096 162.39 45.31 163.303C45.3104 164.216 45.1328 165.011 44.777 165.689C44.4175 166.368 43.9272 166.894 43.3061 167.27C42.6813 167.641 41.9712 167.827 41.1757 167.827L33.4712 167.831L33.4705 166.422L41.0614 166.418C41.6296 166.418 42.1352 166.293 42.5783 166.043C43.0176 165.792 43.364 165.436 43.6176 164.974C43.8674 164.508 43.9921 163.951 43.9918 163.303C43.9915 162.656 43.8663 162.099 43.6161 161.633C43.3621 161.167 43.0153 160.811 42.5758 160.565C42.1325 160.316 41.6268 160.191 41.0586 160.191L33.4677 160.195ZM32.2876 163.922L29.6506 162.537L29.6499 160.969L32.287 162.741L32.2876 163.922ZM33.4653 154.812L45.1016 154.807L45.1022 156.148L33.4659 156.153L33.4653 154.812ZM36.3715 148.56L37.5079 148.559L37.5099 153.082L36.3736 153.082L36.3715 148.56ZM34.2821 151.765L34.2814 150.424L42.5996 150.421C42.9784 150.42 43.2625 150.365 43.4518 150.255C43.6374 150.142 43.7623 149.998 43.8266 149.823C43.8872 149.645 43.9174 149.458 43.9173 149.261C43.9172 149.113 43.9096 148.992 43.8944 148.897C43.8754 148.803 43.8602 148.727 43.8488 148.67L45.0533 148.397C45.0874 148.488 45.1215 148.614 45.1557 148.777C45.1936 148.94 45.2127 149.147 45.2128 149.397C45.213 149.775 45.1317 150.147 44.969 150.51C44.8063 150.87 44.5583 151.17 44.2251 151.408C43.8918 151.643 43.4714 151.761 42.9639 151.761L34.2821 151.765ZM45.0979 146.539L36.3706 146.543L36.37 145.202L45.0973 145.198L45.0979 146.539ZM34.9157 145.861C34.9159 146.123 34.8269 146.348 34.649 146.538C34.4711 146.723 34.2571 146.816 34.0071 146.816C33.7571 146.817 33.543 146.724 33.3649 146.538C33.1868 146.349 33.0977 146.124 33.0976 145.862C33.0974 145.601 33.1863 145.377 33.3643 145.192C33.5422 145.002 33.7562 144.907 34.0062 144.907C34.2562 144.907 34.4703 145.002 34.6484 145.191C34.8265 145.377 34.9156 145.6 34.9157 145.861ZM45.0961 142.742L36.3689 142.746L36.3683 141.45L37.7319 141.45L37.7319 141.336C37.2659 141.154 36.904 140.861 36.6462 140.456C36.3847 140.051 36.2538 139.564 36.2535 138.996C36.2533 138.42 36.3837 137.941 36.6449 137.558C36.9023 137.172 37.2639 136.87 37.7297 136.654L37.7297 136.563C37.2788 136.34 36.9207 136.005 36.6554 135.558C36.3862 135.111 36.2515 134.575 36.2512 133.95C36.2509 133.17 36.4949 132.532 36.9833 132.035C37.4679 131.539 38.2235 131.29 39.25 131.29L45.0909 131.287L45.0916 132.628L39.2506 132.631C38.6067 132.631 38.1466 132.807 37.8702 133.16C37.5938 133.512 37.4558 133.927 37.456 134.404C37.4563 135.018 37.6421 135.493 38.0135 135.83C38.381 136.167 38.847 136.336 39.4114 136.335L45.0932 136.333L45.0939 137.696L39.1166 137.699C38.6204 137.699 38.2208 137.86 37.9179 138.183C37.6113 138.505 37.458 138.92 37.4583 139.427C37.4584 139.776 37.5514 140.101 37.7371 140.404C37.9229 140.703 38.1806 140.946 38.5102 141.131C38.836 141.313 39.213 141.404 39.641 141.403L45.0955 141.401L45.0961 142.742ZM45.2932 126.267C45.2935 126.82 45.1895 127.322 44.9814 127.773C44.7695 128.224 44.4647 128.582 44.0671 128.847C43.6657 129.113 43.1809 129.246 42.6127 129.246C42.1127 129.246 41.7074 129.148 41.3967 128.951C41.0822 128.754 40.8359 128.491 40.6577 128.161C40.4795 127.832 40.3468 127.468 40.2595 127.071C40.1684 126.669 40.0962 126.266 40.043 125.861C39.9746 125.33 39.9233 124.9 39.889 124.571C39.851 124.238 39.7884 123.995 39.7012 123.844C39.614 123.688 39.4625 123.611 39.2465 123.611L39.2011 123.611C38.6405 123.611 38.205 123.765 37.8945 124.072C37.584 124.375 37.4289 124.835 37.4292 125.453C37.4295 126.093 37.5699 126.595 37.8503 126.958C38.1308 127.322 38.4302 127.577 38.7484 127.725L38.2944 128.998C37.764 128.771 37.351 128.468 37.0554 128.089C36.756 127.707 36.5475 127.29 36.4298 126.84C36.3084 126.385 36.2476 125.938 36.2474 125.499C36.2473 125.218 36.2812 124.896 36.3492 124.533C36.4135 124.165 36.5478 123.811 36.7522 123.47C36.9566 123.125 37.2651 122.839 37.6779 122.612C38.0907 122.384 38.6437 122.27 39.3369 122.27L45.0868 122.267L45.0875 123.608L43.9056 123.609L43.9057 123.677C44.0951 123.768 44.2978 123.919 44.5138 124.131C44.7298 124.343 44.9137 124.625 45.0654 124.978C45.217 125.33 45.293 125.76 45.2932 126.267ZM44.0886 126.063C44.0883 125.533 43.984 125.086 43.7755 124.723C43.567 124.355 43.2979 124.079 42.9683 123.893C42.6386 123.704 42.292 123.61 41.9284 123.61L40.7011 123.61C40.7693 123.667 40.8319 123.792 40.8888 123.985C40.9419 124.175 40.9893 124.394 41.0311 124.644C41.0691 124.89 41.1033 125.131 41.1337 125.366C41.1603 125.597 41.1831 125.784 41.2021 125.928C41.2478 126.277 41.3218 126.602 41.4242 126.905C41.5228 127.205 41.6725 127.447 41.8734 127.632C42.0704 127.814 42.3394 127.905 42.6803 127.905C43.1462 127.905 43.4984 127.732 43.7369 127.387C43.9716 127.039 44.0888 126.597 44.0886 126.063ZM45.2871 112.752C45.2873 113.305 45.1834 113.807 44.9753 114.257C44.7633 114.708 44.4586 115.066 44.061 115.332C43.6596 115.597 43.1748 115.73 42.6066 115.73C42.1066 115.73 41.7013 115.632 41.3906 115.435C41.0761 115.238 40.8298 114.975 40.6516 114.646C40.4734 114.316 40.3407 113.953 40.2534 113.555C40.1623 113.154 40.0901 112.75 40.0369 112.345C39.9685 111.815 39.9171 111.385 39.8829 111.055C39.8449 110.722 39.7823 110.48 39.6951 110.328C39.6079 110.173 39.4563 110.095 39.2404 110.095L39.195 110.095C38.6344 110.096 38.1988 110.249 37.8884 110.556C37.5779 110.859 37.4228 111.32 37.4231 111.937C37.4234 112.577 37.5637 113.079 37.8442 113.443C38.1247 113.806 38.424 114.062 38.7423 114.209L38.2883 115.482C37.7579 115.255 37.3449 114.952 37.0493 114.574C36.7499 114.191 36.5413 113.775 36.4237 113.324C36.3023 112.869 36.2415 112.422 36.2413 111.983C36.2411 111.703 36.2751 111.381 36.3431 111.017C36.4073 110.65 36.5416 110.295 36.746 109.954C36.9504 109.61 37.259 109.323 37.6718 109.096C38.0846 108.869 38.6375 108.755 39.3307 108.754L45.0807 108.752L45.0813 110.093L43.8995 110.093L43.8995 110.161C44.089 110.252 44.2917 110.404 44.5077 110.616C44.7237 110.828 44.9075 111.11 45.0592 111.462C45.2109 111.814 45.2868 112.244 45.2871 112.752ZM44.0824 112.548C44.0822 112.017 43.9778 111.57 43.7693 111.207C43.5608 110.84 43.2918 110.563 42.9621 110.378C42.6325 110.188 42.2859 110.094 41.9222 110.094L40.695 110.095C40.7632 110.151 40.8257 110.276 40.8826 110.47C40.9357 110.659 40.9832 110.879 41.025 111.129C41.063 111.375 41.0972 111.615 41.1276 111.85C41.1542 112.081 41.177 112.269 41.196 112.413C41.2416 112.761 41.3156 113.087 41.418 113.39C41.5167 113.689 41.6664 113.931 41.8672 114.117C42.0643 114.299 42.3333 114.389 42.6742 114.389C43.1401 114.389 43.4923 114.217 43.7308 113.872C43.9655 113.523 44.0827 113.082 44.0824 112.548ZM33.4426 104.969L45.079 104.963L45.0796 106.304L33.4432 106.31L33.4426 104.969ZM36.3489 98.716L37.4853 98.7154L37.4873 103.238L36.3509 103.239L36.3489 98.716ZM34.2594 101.921L34.2588 100.581L42.577 100.577C42.9558 100.577 43.2399 100.522 43.4292 100.412C43.6148 100.298 43.7397 100.154 43.804 99.9796C43.8645 99.8016 43.8948 99.614 43.8947 99.4171C43.8946 99.2693 43.887 99.1481 43.8718 99.0535C43.8528 98.9588 43.8376 98.883 43.8262 98.8262L45.0306 98.5529C45.0648 98.6438 45.0989 98.7707 45.1331 98.9336C45.171 99.0964 45.1901 99.3029 45.1902 99.5529C45.1904 99.9316 45.1091 100.303 44.9464 100.667C44.7837 101.027 44.5357 101.326 44.2025 101.565C43.8692 101.8 43.4488 101.917 42.9413 101.918L34.2594 101.921ZM41.5046 91.1966L36.3455 91.1989L36.3449 89.858L45.0721 89.854L45.0728 91.195L43.5955 91.1956L43.5955 91.2865C44.0388 91.4909 44.4158 91.8089 44.7266 92.2406C45.0336 92.6722 45.1873 93.2176 45.1876 93.8767C45.1879 94.4222 45.0688 94.9071 44.8303 95.3314C44.5881 95.7558 44.2246 96.0893 43.7399 96.3319C43.2513 96.5746 42.6359 96.6961 41.8934 96.6964L36.348 96.6989L36.3474 95.358L41.8019 95.3555C42.4383 95.3552 42.9458 95.177 43.3244 94.8207C43.703 94.4607 43.8922 94.0023 43.892 93.4455C43.8918 93.1122 43.8064 92.7732 43.6358 92.4286C43.4652 92.0801 43.2037 91.7886 42.8513 91.5539C42.4989 91.3154 42.05 91.1963 41.5046 91.1966ZM45.071 87.3981L36.3438 87.402L36.3432 86.1066L37.6613 86.106L37.6613 86.0151C37.2294 85.8562 36.8789 85.5685 36.6098 85.1519C36.3407 84.7354 36.206 84.2657 36.2057 83.743C36.2057 83.6445 36.2075 83.5214 36.2112 83.3737C36.215 83.226 36.2206 83.1142 36.2281 83.0385L37.5918 83.0378C37.5804 83.0833 37.5634 83.1875 37.5408 83.3504C37.5143 83.5095 37.5012 83.678 37.5012 83.8561C37.5014 84.2803 37.5906 84.659 37.7688 84.9923C37.9432 85.3218 38.1857 85.583 38.4964 85.7761C38.8033 85.9653 39.1538 86.0599 39.5477 86.0597L45.0704 86.0572L45.071 87.3981ZM45.2717 78.8767C45.272 79.4297 45.168 79.9316 44.9599 80.3825C44.748 80.8334 44.4432 81.1914 44.0456 81.4568C43.6442 81.7221 43.1594 81.8549 42.5912 81.8552C42.0912 81.8554 41.6859 81.7571 41.3752 81.5603C41.0607 81.3634 40.8144 81.1003 40.6362 80.7708C40.458 80.4414 40.3253 80.0778 40.238 79.6801C40.1469 79.2786 40.0747 78.8752 40.0215 78.47C39.9531 77.9397 39.9018 77.5098 39.8675 77.1803C39.8295 76.8469 39.7669 76.6046 39.6797 76.4531C39.5925 76.2978 39.441 76.2202 39.225 76.2203L39.1796 76.2204C38.619 76.2206 38.1834 76.3742 37.873 76.6812C37.5625 76.9843 37.4074 77.4446 37.4077 78.0621C37.408 78.7022 37.5484 79.204 37.8288 79.5676C38.1093 79.9311 38.4087 80.1866 38.7269 80.3342L38.2729 81.6071C37.7425 81.3801 37.3295 81.0773 37.0339 80.6986C36.7345 80.3162 36.526 79.8996 36.4083 79.4489C36.2869 78.9944 36.2261 78.5474 36.2259 78.1081C36.2258 77.8278 36.2597 77.5058 36.3277 77.1421C36.392 76.7746 36.5263 76.4204 36.7307 76.0794C36.9351 75.7346 37.2436 75.4485 37.6564 75.221C38.0692 74.9936 38.6222 74.8797 39.3153 74.8794L45.0653 74.8768L45.066 76.2177L43.8841 76.2182L43.8842 76.2864C44.0736 76.3772 44.2763 76.5286 44.4923 76.7407C44.7083 76.9527 44.8922 77.2348 45.0438 77.587C45.1955 77.9392 45.2715 78.3691 45.2717 78.8767ZM44.0671 78.6727C44.0668 78.1424 43.9625 77.6955 43.754 77.3319C43.5455 76.9646 43.2764 76.6882 42.9468 76.5027C42.6171 76.3135 42.2705 76.2189 41.9069 76.2191L40.6796 76.2197C40.7478 76.2765 40.8104 76.4014 40.8673 76.5946C40.9204 76.784 40.9678 77.0036 41.0096 77.2536C41.0476 77.4998 41.0818 77.7403 41.1122 77.9752C41.1388 78.2062 41.1616 78.3937 41.1806 78.5376C41.2263 78.8861 41.3003 79.2118 41.4027 79.5148C41.5013 79.814 41.651 80.0564 41.8519 80.2419C42.0489 80.4236 42.3179 80.5144 42.6588 80.5142C43.1247 80.514 43.4769 80.3415 43.7154 79.9967C43.9501 79.6481 44.0673 79.2068 44.0671 78.6727Z" fill="black"/>
<path d="M45.1454 251.313L33.509 251.318L33.5073 247.387C33.5068 246.474 33.6713 245.727 34.0006 245.148C34.326 244.564 34.7671 244.132 35.3238 243.852C35.8805 243.571 36.5017 243.431 37.1873 243.43C37.8729 243.43 38.4961 243.57 39.0568 243.85C39.6175 244.126 40.0647 244.554 40.3983 245.133C40.7281 245.713 40.8932 246.455 40.8936 247.36L40.8949 250.179L39.6449 250.179L39.6436 247.406C39.6433 246.781 39.5352 246.28 39.3191 245.901C39.103 245.522 38.8112 245.248 38.4437 245.077C38.0724 244.903 37.6538 244.816 37.1879 244.817C36.722 244.817 36.3054 244.904 35.938 245.079C35.5707 245.249 35.2829 245.526 35.0748 245.909C34.8628 246.291 34.757 246.799 34.7573 247.431L34.7584 249.909L45.1448 249.904L45.1454 251.313ZM45.3211 237.773C45.3215 238.614 45.1362 239.34 44.7652 239.95C44.3905 240.556 43.868 241.024 43.1977 241.354C42.5236 241.68 41.7396 241.843 40.8456 241.843C39.9517 241.844 39.1638 241.681 38.4818 241.356C37.796 241.027 37.2617 240.569 36.8789 239.982C36.4923 239.391 36.2988 238.702 36.2984 237.914C36.2982 237.459 36.3738 237.01 36.5251 236.567C36.6764 236.124 36.9224 235.72 37.2632 235.356C37.6001 234.993 38.047 234.703 38.6037 234.487C39.1604 234.27 39.846 234.162 40.6603 234.162L41.2285 234.161L41.2316 240.889L40.0725 240.889L40.0701 235.526C39.5776 235.526 39.1383 235.625 38.752 235.822C38.3657 236.015 38.0609 236.292 37.8376 236.652C37.6143 237.008 37.5027 237.428 37.503 237.913C37.5032 238.447 37.636 238.909 37.9013 239.299C38.1629 239.686 38.5039 239.983 38.9244 240.191C39.345 240.399 39.7958 240.503 40.2769 240.503L41.0496 240.502C41.7087 240.502 42.2673 240.388 42.7256 240.161C43.18 239.93 43.5265 239.609 43.7649 239.2C43.9996 238.791 44.1168 238.315 44.1165 237.774C44.1164 237.422 44.067 237.103 43.9684 236.819C43.866 236.531 43.7143 236.283 43.5135 236.075C43.3088 235.867 43.055 235.706 42.7519 235.593L43.115 234.297C43.5544 234.433 43.9409 234.662 44.2744 234.984C44.604 235.306 44.8618 235.703 45.0476 236.177C45.2297 236.65 45.3208 237.182 45.3211 237.773ZM45.1367 232.12L36.4094 232.124L36.4088 230.828L37.727 230.828L37.727 230.737C37.2951 230.578 36.9446 230.29 36.6754 229.874C36.4063 229.457 36.2716 228.988 36.2714 228.465C36.2714 228.366 36.2732 228.243 36.2769 228.096C36.2806 227.948 36.2863 227.836 36.2938 227.76L37.6574 227.76C37.6461 227.805 37.6291 227.909 37.6064 228.072C37.58 228.231 37.5668 228.4 37.5669 228.578C37.5671 229.002 37.6563 229.381 37.8345 229.714C38.0089 230.044 38.2514 230.305 38.5621 230.498C38.869 230.687 39.2194 230.782 39.6134 230.782L45.1361 230.779L45.1367 232.12ZM45.3143 222.887C45.3147 223.705 45.1218 224.41 44.7357 225.001C44.3496 225.592 43.8176 226.047 43.1398 226.365C42.4619 226.684 41.6873 226.843 40.8161 226.843C39.9298 226.844 39.1475 226.681 38.4693 226.356C37.7873 226.027 37.2549 225.569 36.8721 224.982C36.4855 224.391 36.292 223.702 36.2916 222.914C36.2913 222.3 36.4047 221.747 36.6318 221.254C36.8588 220.762 37.1768 220.358 37.5858 220.044C37.9947 219.729 38.4719 219.534 39.0173 219.458L39.0179 220.799C38.6202 220.901 38.2681 221.129 37.9614 221.481C37.651 221.83 37.4959 222.3 37.4961 222.89C37.4964 223.413 37.6329 223.871 37.9059 224.265C38.175 224.655 38.5558 224.96 39.0483 225.179C39.537 225.395 40.111 225.503 40.7701 225.503C41.4443 225.502 42.0314 225.396 42.5313 225.184C43.0312 224.967 43.4193 224.664 43.6956 224.274C43.972 223.88 44.11 223.418 44.1098 222.887C44.1096 222.539 44.0489 222.223 43.9275 221.939C43.8062 221.655 43.6318 221.414 43.4045 221.217C43.1771 221.02 42.9043 220.88 42.5861 220.797L42.5855 219.456C43.1007 219.532 43.5648 219.719 43.9778 220.018C44.387 220.313 44.713 220.705 44.9556 221.194C45.1945 221.679 45.314 222.243 45.3143 222.887ZM41.5594 211.997L36.4003 211.999L36.3997 210.658L45.127 210.654L45.1276 211.995L43.6503 211.996L43.6503 212.086C44.0936 212.291 44.4706 212.609 44.7814 213.041C45.0885 213.472 45.2421 214.018 45.2424 214.677C45.2427 215.222 45.1236 215.707 44.8851 216.131C44.6429 216.556 44.2794 216.889 43.7947 217.132C43.3061 217.375 42.6907 217.496 41.9482 217.496L36.4028 217.499L36.4022 216.158L41.8567 216.155C42.4931 216.155 43.0006 215.977 43.3792 215.621C43.7578 215.261 43.947 214.802 43.9468 214.245C43.9466 213.912 43.8612 213.573 43.6906 213.229C43.52 212.88 43.2585 212.589 42.9061 212.354C42.5538 212.115 42.1048 211.996 41.5594 211.997ZM45.1258 208.198L36.3986 208.202L36.398 206.907L37.7162 206.906L37.7161 206.815C37.2842 206.656 36.9337 206.368 36.6646 205.952C36.3955 205.535 36.2608 205.066 36.2605 204.543C36.2605 204.444 36.2623 204.321 36.2661 204.174C36.2698 204.026 36.2754 203.914 36.2829 203.838L37.6466 203.838C37.6352 203.883 37.6182 203.987 37.5956 204.15C37.5691 204.309 37.556 204.478 37.556 204.656C37.5562 205.08 37.6454 205.459 37.8236 205.792C37.998 206.122 38.2405 206.383 38.5512 206.576C38.8581 206.765 39.2086 206.86 39.6025 206.86L45.1252 206.857L45.1258 208.198ZM38.3476 196.066L38.6891 197.271C38.4883 197.346 38.2933 197.458 38.104 197.606C37.9109 197.75 37.7519 197.947 37.627 198.197C37.5021 198.447 37.4397 198.767 37.4399 199.157C37.4402 199.692 37.5635 200.137 37.8098 200.493C38.0524 200.845 38.3612 201.021 38.7362 201.021C39.0695 201.02 39.3328 200.899 39.5258 200.657C39.7189 200.414 39.8797 200.035 40.0083 199.52L40.3259 198.224C40.5149 197.444 40.8044 196.862 41.1944 196.48C41.5806 196.097 42.0786 195.905 42.6884 195.905C43.1884 195.905 43.6355 196.049 44.0295 196.336C44.4236 196.62 44.7344 197.018 44.9619 197.529C45.1894 198.04 45.3033 198.635 45.3036 199.313C45.304 200.203 45.1112 200.94 44.7251 201.523C44.339 202.107 43.7748 202.477 43.0324 202.632L42.7136 201.36C43.1833 201.238 43.5355 201.009 43.7701 200.672C44.0048 200.331 44.1221 199.886 44.1218 199.336C44.1215 198.711 43.9887 198.215 43.7234 197.848C43.4543 197.477 43.1323 197.291 42.7573 197.291C42.4542 197.292 42.2005 197.398 41.996 197.61C41.7878 197.822 41.6326 198.148 41.5306 198.587L41.1903 200.042C41.0013 200.841 40.708 201.429 40.3104 201.804C39.9091 202.175 39.4073 202.361 38.805 202.361C38.3126 202.362 37.8769 202.224 37.498 201.947C37.1191 201.667 36.8216 201.287 36.6054 200.806C36.3893 200.321 36.2811 199.772 36.2808 199.158C36.2804 198.294 36.4695 197.616 36.8481 197.124C37.2266 196.627 37.7265 196.275 38.3476 196.066ZM45.2996 190.34C45.2999 191.128 45.1127 191.819 44.738 192.414C44.3633 193.005 43.8389 193.468 43.1648 193.801C42.4907 194.131 41.7029 194.296 40.8013 194.297C39.8923 194.297 39.0986 194.133 38.4204 193.803C37.7423 193.47 37.2155 193.008 36.8403 192.418C36.465 191.823 36.2772 191.132 36.2768 190.344C36.2765 189.556 36.4637 188.867 36.8384 188.276C37.2131 187.681 37.7394 187.218 38.4173 186.889C39.0952 186.555 39.8887 186.388 40.7978 186.387C41.6993 186.387 42.4872 186.553 43.1616 186.886C43.836 187.216 44.3608 187.678 44.7361 188.272C45.1114 188.863 45.2992 189.552 45.2996 190.34ZM44.095 190.341C44.0947 189.742 43.9411 189.25 43.6341 188.863C43.3271 188.477 42.9236 188.191 42.4235 188.006C41.9234 187.821 41.3817 187.728 40.7984 187.728C40.215 187.729 39.6715 187.822 39.1678 188.008C38.6641 188.193 38.257 188.48 37.9466 188.866C37.6362 189.253 37.4811 189.745 37.4814 190.344C37.4816 190.942 37.6372 191.434 37.948 191.821C38.2587 192.207 38.6661 192.493 39.1699 192.678C39.6738 192.863 40.2174 192.956 40.8007 192.956C41.3841 192.955 41.9257 192.862 42.4256 192.677C42.9255 192.491 43.3288 192.205 43.6355 191.818C43.9421 191.432 44.0953 190.939 44.095 190.341Z" fill="black"/>
</svg>
