<svg width="277" height="193" viewBox="0 0 277 193" fill="none" xmlns="http://www.w3.org/2000/svg">
<rect width="277" height="184" fill="#D9D9D9"/>
<rect x="18.5583" y="16.3121" width="239.196" height="155.291" fill="#FFFEFE"/>
<path d="M68.7345 171.277H223.387V184H68.7345V177.475V171.277Z" fill="#FFFEFE"/>
<path d="M144.342 92C144.342 94.5225 142.188 96.5674 139.531 96.5674C136.874 96.5674 134.376 94.5225 134.376 92C134.376 89.4775 136.874 87.4326 139.531 87.4326C142.188 87.4326 144.342 89.4775 144.342 92Z" fill="#D9D9D9"/>
<path d="M139.531 16.3121L133.758 26.3121H145.305L139.531 16.3121ZM139.531 87.4326L145.305 77.4326H133.758L139.531 87.4326ZM138.531 25.3121V78.4326H140.531V25.3121H138.531Z" fill="black"/>
<path d="M139.531 96.5674L133.758 106.567H145.305L139.531 96.5674ZM139.531 171.929L145.305 161.929H133.758L139.531 171.929ZM138.531 105.567V162.929H140.531V105.567H138.531Z" fill="black"/>
<path d="M257.754 92L247.754 86.2265V97.7735L257.754 92ZM144.342 92L154.342 97.7735V86.2265L144.342 92ZM248.754 91L153.342 91V93L248.754 93V91Z" fill="black"/>
<path d="M134.72 92L124.72 86.2265V97.7735L134.72 92ZM18.902 92L28.902 97.7735V86.2265L18.902 92ZM68.3908 159.532L58.3908 153.758V165.305L68.3908 159.532ZM18.5 159.532L28.5 165.305V153.758L18.5 159.532ZM258.098 159.206L248.043 153.528L248.154 165.074L258.098 159.206ZM223.913 159.532L233.967 165.21L233.857 153.663L223.913 159.532ZM125.72 91L27.902 91V93L125.72 93V91ZM59.3908 158.532L27.5 158.532V160.532L59.3908 160.532V158.532ZM249.089 158.292L232.903 158.446L232.922 160.446L249.108 160.292L249.089 158.292Z" fill="black"/>
<path d="M53.4372 87.4255H51.96L56.2327 75.7892H57.6872L61.96 87.4255H60.4827L57.0054 77.6301H56.9145L53.4372 87.4255ZM53.9827 82.8801H59.9372V84.1301H53.9827V82.8801Z" fill="black"/>
<path d="M38.4091 155V143.364H45.4318V144.614H39.8182V148.545H45.0682V149.795H39.8182V153.75H45.5227V155H38.4091Z" fill="black"/>
<path d="M237.168 154.631V142.995H244.146V144.245H238.577V148.177H243.623V149.427H238.577V154.631H237.168Z" fill="black"/>
<path d="M150 145H146.409V133.364H150.159C151.288 133.364 152.254 133.597 153.057 134.062C153.86 134.525 154.475 135.189 154.903 136.057C155.331 136.92 155.545 137.955 155.545 139.159C155.545 140.371 155.33 141.415 154.898 142.29C154.466 143.161 153.837 143.831 153.011 144.301C152.186 144.767 151.182 145 150 145ZM147.818 143.75H149.909C150.871 143.75 151.669 143.564 152.301 143.193C152.934 142.822 153.405 142.294 153.716 141.608C154.027 140.922 154.182 140.106 154.182 139.159C154.182 138.22 154.028 137.411 153.722 136.733C153.415 136.051 152.956 135.528 152.347 135.165C151.737 134.797 150.977 134.614 150.068 134.614H147.818V143.75Z" fill="black"/>
<path d="M155.773 47H154.364C154.28 46.5947 154.134 46.2386 153.926 45.9318C153.722 45.625 153.472 45.3674 153.176 45.1591C152.884 44.947 152.561 44.7879 152.205 44.6818C151.848 44.5758 151.477 44.5227 151.091 44.5227C150.386 44.5227 149.748 44.7008 149.176 45.0568C148.608 45.4129 148.155 45.9375 147.818 46.6307C147.485 47.3239 147.318 48.1742 147.318 49.1818C147.318 50.1894 147.485 51.0398 147.818 51.733C148.155 52.4261 148.608 52.9508 149.176 53.3068C149.748 53.6629 150.386 53.8409 151.091 53.8409C151.477 53.8409 151.848 53.7879 152.205 53.6818C152.561 53.5758 152.884 53.4186 153.176 53.2102C153.472 52.9981 153.722 52.7386 153.926 52.4318C154.134 52.1212 154.28 51.7652 154.364 51.3636H155.773C155.667 51.9583 155.473 52.4905 155.193 52.9602C154.913 53.4299 154.564 53.8295 154.148 54.1591C153.731 54.4848 153.263 54.733 152.744 54.9034C152.229 55.0739 151.678 55.1591 151.091 55.1591C150.098 55.1591 149.216 54.9167 148.443 54.4318C147.67 53.947 147.063 53.2576 146.619 52.3636C146.176 51.4697 145.955 50.4091 145.955 49.1818C145.955 47.9545 146.176 46.8939 146.619 46C147.063 45.1061 147.67 44.4167 148.443 43.9318C149.216 43.447 150.098 43.2045 151.091 43.2045C151.678 43.2045 152.229 43.2898 152.744 43.4602C153.263 43.6307 153.731 43.8807 154.148 44.2102C154.564 44.536 154.913 44.9337 155.193 45.4034C155.473 45.8693 155.667 46.4015 155.773 47Z" fill="black"/>
<path d="M233.044 87.4255V75.7892H237.112C237.923 75.7892 238.592 75.9293 239.118 76.2096C239.645 76.4861 240.037 76.8592 240.294 77.3289C240.552 77.7949 240.681 78.3119 240.681 78.8801C240.681 79.3801 240.592 79.793 240.414 80.1187C240.239 80.4445 240.008 80.7021 239.72 80.8914C239.436 81.0808 239.128 81.221 238.794 81.3119V81.4255C239.15 81.4483 239.508 81.5733 239.868 81.8005C240.228 82.0278 240.529 82.3536 240.772 82.7778C241.014 83.2021 241.135 83.721 241.135 84.3346C241.135 84.918 241.003 85.4426 240.737 85.9085C240.472 86.3744 240.054 86.7437 239.482 87.0164C238.91 87.2892 238.166 87.4255 237.249 87.4255H233.044ZM234.453 86.1755H237.249C238.169 86.1755 238.823 85.9975 239.209 85.6414C239.599 85.2816 239.794 84.846 239.794 84.3346C239.794 83.9407 239.694 83.5771 239.493 83.2437C239.292 82.9066 239.006 82.6377 238.635 82.4369C238.264 82.2324 237.825 82.1301 237.317 82.1301H234.453V86.1755ZM234.453 80.9028H237.067C237.491 80.9028 237.874 80.8195 238.215 80.6528C238.559 80.4861 238.832 80.2513 239.033 79.9483C239.237 79.6452 239.34 79.2892 239.34 78.8801C239.34 78.3687 239.162 77.935 238.806 77.5789C238.45 77.2191 237.885 77.0392 237.112 77.0392H234.453V80.9028Z" fill="black"/>
<g filter="url(#filter0_d_8_184)">
<path d="M68.7345 172.255H223.387" stroke="black"/>
</g>
<g filter="url(#filter1_d_8_184)">
<path d="M68.7345 183.674H223.387" stroke="black"/>
</g>
<line x1="70" y1="172.25" x2="71" y2="172.25" stroke="white" stroke-width="1.5"/>
<line x1="72" y1="172.25" x2="73" y2="172.25" stroke="white" stroke-width="1.5"/>
<line x1="76" y1="172.25" x2="77" y2="172.25" stroke="white" stroke-width="1.5"/>
<line x1="74" y1="172.25" x2="75" y2="172.25" stroke="white" stroke-width="1.5"/>
<line x1="70.5" y1="183" x2="70.5" y2="185" stroke="white"/>
<line x1="72.5" y1="183" x2="72.5" y2="185" stroke="white"/>
<line x1="74.5" y1="183" x2="74.5" y2="185" stroke="white"/>
<line x1="76.5" y1="183" x2="76.5" y2="185" stroke="white"/>
<line x1="78.5" y1="183" x2="78.5" y2="185" stroke="white"/>
<line x1="80.5" y1="183" x2="80.5" y2="185" stroke="white"/>
<line x1="82.5" y1="183" x2="82.5" y2="185" stroke="white"/>
<line x1="84.5" y1="183" x2="84.5" y2="185" stroke="white"/>
<line x1="86.5" y1="183" x2="86.5" y2="185" stroke="white"/>
<line x1="88.5" y1="183" x2="88.5" y2="185" stroke="white"/>
<line x1="90.5" y1="183" x2="90.5" y2="185" stroke="white"/>
<line x1="92.5" y1="183" x2="92.5" y2="185" stroke="white"/>
<line x1="94.5" y1="183" x2="94.5" y2="185" stroke="white"/>
<line x1="96.5" y1="183" x2="96.5" y2="185" stroke="white"/>
<line x1="98.5" y1="183" x2="98.5" y2="185" stroke="white"/>
<line x1="100.5" y1="183" x2="100.5" y2="185" stroke="white"/>
<line x1="102.5" y1="183" x2="102.5" y2="185" stroke="white"/>
<line x1="104.5" y1="183" x2="104.5" y2="185" stroke="white"/>
<line x1="106.5" y1="183" x2="106.5" y2="185" stroke="white"/>
<line x1="108.5" y1="183" x2="108.5" y2="185" stroke="white"/>
<line x1="110.5" y1="183" x2="110.5" y2="185" stroke="white"/>
<line x1="112.5" y1="183" x2="112.5" y2="185" stroke="white"/>
<line x1="114.5" y1="183" x2="114.5" y2="185" stroke="white"/>
<line x1="116.5" y1="183" x2="116.5" y2="185" stroke="white"/>
<line x1="118.5" y1="183" x2="118.5" y2="185" stroke="white"/>
<line x1="120.5" y1="183" x2="120.5" y2="185" stroke="white"/>
<line x1="122.5" y1="183" x2="122.5" y2="185" stroke="white"/>
<line x1="124.5" y1="183" x2="124.5" y2="185" stroke="white"/>
<line x1="126.5" y1="183" x2="126.5" y2="185" stroke="white"/>
<line x1="128.5" y1="183" x2="128.5" y2="185" stroke="white"/>
<line x1="130.5" y1="183" x2="130.5" y2="185" stroke="white"/>
<line x1="132.5" y1="183" x2="132.5" y2="185" stroke="white"/>
<line x1="134.5" y1="183" x2="134.5" y2="185" stroke="white"/>
<line x1="136.5" y1="183" x2="136.5" y2="185" stroke="white"/>
<line x1="138.5" y1="183" x2="138.5" y2="185" stroke="white"/>
<line x1="140.5" y1="183" x2="140.5" y2="185" stroke="white"/>
<line x1="142.5" y1="183" x2="142.5" y2="185" stroke="white"/>
<line x1="144.5" y1="183" x2="144.5" y2="185" stroke="white"/>
<line x1="146.5" y1="183" x2="146.5" y2="185" stroke="white"/>
<line x1="148.5" y1="183" x2="148.5" y2="185" stroke="white"/>
<line x1="150.5" y1="183" x2="150.5" y2="185" stroke="white"/>
<line x1="152.5" y1="183" x2="152.5" y2="185" stroke="white"/>
<line x1="154.5" y1="183" x2="154.5" y2="185" stroke="white"/>
<line x1="156.5" y1="183" x2="156.5" y2="185" stroke="white"/>
<line x1="158.5" y1="183" x2="158.5" y2="185" stroke="white"/>
<line x1="160.5" y1="183" x2="160.5" y2="185" stroke="white"/>
<line x1="162.5" y1="183" x2="162.5" y2="185" stroke="white"/>
<line x1="164.5" y1="183" x2="164.5" y2="185" stroke="white"/>
<line x1="166.5" y1="183" x2="166.5" y2="185" stroke="white"/>
<line x1="168.5" y1="183" x2="168.5" y2="185" stroke="white"/>
<line x1="170.5" y1="183" x2="170.5" y2="185" stroke="white"/>
<line x1="172.5" y1="183" x2="172.5" y2="185" stroke="white"/>
<line x1="174.5" y1="183" x2="174.5" y2="185" stroke="white"/>
<line x1="176.5" y1="183" x2="176.5" y2="185" stroke="white"/>
<line x1="178.5" y1="183" x2="178.5" y2="185" stroke="white"/>
<line x1="180.5" y1="183" x2="180.5" y2="185" stroke="white"/>
<line x1="182.5" y1="183" x2="182.5" y2="185" stroke="white"/>
<line x1="184.5" y1="183" x2="184.5" y2="185" stroke="white"/>
<line x1="186.5" y1="183" x2="186.5" y2="185" stroke="white"/>
<line x1="188.5" y1="183" x2="188.5" y2="185" stroke="white"/>
<line x1="190.5" y1="183" x2="190.5" y2="185" stroke="white"/>
<line x1="192.5" y1="183" x2="192.5" y2="185" stroke="white"/>
<line x1="194.5" y1="183" x2="194.5" y2="185" stroke="white"/>
<line x1="196.5" y1="183" x2="196.5" y2="185" stroke="white"/>
<line x1="198.5" y1="183" x2="198.5" y2="185" stroke="white"/>
<line x1="200.5" y1="183" x2="200.5" y2="185" stroke="white"/>
<line x1="202.5" y1="183" x2="202.5" y2="185" stroke="white"/>
<line x1="204.5" y1="183" x2="204.5" y2="185" stroke="white"/>
<line x1="206.5" y1="183" x2="206.5" y2="185" stroke="white"/>
<line x1="208.5" y1="183" x2="208.5" y2="185" stroke="white"/>
<line x1="210.5" y1="183" x2="210.5" y2="185" stroke="white"/>
<line x1="212.5" y1="183" x2="212.5" y2="185" stroke="white"/>
<line x1="214.5" y1="183" x2="214.5" y2="185" stroke="white"/>
<line x1="216.5" y1="183" x2="216.5" y2="185" stroke="white"/>
<line x1="218.5" y1="183" x2="218.5" y2="185" stroke="white"/>
<line x1="220.5" y1="183" x2="220.5" y2="185" stroke="white"/>
<line x1="222.5" y1="183" x2="222.5" y2="185" stroke="white"/>
<path d="M114.179 173.727L116.338 179.849H116.423L118.582 173.727H119.506L116.835 181H115.926L113.256 173.727H114.179ZM121.622 181.128C121.277 181.128 120.963 181.063 120.681 180.933C120.399 180.8 120.176 180.609 120.01 180.361C119.844 180.11 119.761 179.807 119.761 179.452C119.761 179.139 119.823 178.886 119.946 178.692C120.069 178.495 120.234 178.341 120.44 178.23C120.646 178.119 120.873 178.036 121.121 177.982C121.372 177.925 121.625 177.88 121.878 177.847C122.209 177.804 122.478 177.772 122.684 177.751C122.892 177.727 123.044 177.688 123.138 177.634C123.236 177.579 123.284 177.484 123.284 177.349V177.321C123.284 176.971 123.188 176.698 122.996 176.504C122.807 176.31 122.519 176.213 122.134 176.213C121.733 176.213 121.42 176.301 121.192 176.476C120.965 176.651 120.805 176.838 120.713 177.037L119.918 176.753C120.06 176.421 120.249 176.163 120.486 175.979C120.725 175.792 120.985 175.661 121.267 175.588C121.551 175.512 121.83 175.474 122.105 175.474C122.28 175.474 122.482 175.496 122.709 175.538C122.938 175.579 123.16 175.663 123.373 175.79C123.588 175.918 123.767 176.111 123.909 176.369C124.051 176.627 124.122 176.973 124.122 177.406V181H123.284V180.261H123.241C123.185 180.38 123.09 180.506 122.957 180.641C122.825 180.776 122.648 180.891 122.428 180.986C122.208 181.08 121.939 181.128 121.622 181.128ZM121.75 180.375C122.081 180.375 122.361 180.31 122.588 180.18C122.818 180.049 122.991 179.881 123.107 179.675C123.225 179.469 123.284 179.253 123.284 179.026V178.259C123.249 178.301 123.17 178.34 123.05 178.376C122.931 178.409 122.794 178.438 122.638 178.464C122.484 178.488 122.334 178.509 122.187 178.528C122.042 178.545 121.925 178.559 121.835 178.571C121.617 178.599 121.414 178.646 121.224 178.71C121.037 178.771 120.886 178.865 120.77 178.99C120.656 179.113 120.599 179.281 120.599 179.494C120.599 179.786 120.707 180.006 120.923 180.155C121.14 180.302 121.416 180.375 121.75 180.375ZM121.068 174.892L120.415 174.864C120.415 174.501 120.518 174.205 120.724 173.976C120.932 173.744 121.189 173.628 121.494 173.628C121.629 173.628 121.749 173.652 121.853 173.699C121.957 173.744 122.057 173.796 122.151 173.855C122.246 173.914 122.343 173.968 122.442 174.015C122.544 174.06 122.659 174.082 122.787 174.082C122.922 174.082 123.036 174.03 123.128 173.926C123.223 173.82 123.27 173.692 123.27 173.543L123.909 173.599C123.909 173.969 123.805 174.262 123.597 174.48C123.391 174.698 123.135 174.807 122.83 174.807C122.666 174.807 122.531 174.784 122.425 174.739C122.318 174.692 122.223 174.639 122.141 174.58C122.058 174.52 121.97 174.468 121.878 174.423C121.786 174.376 121.672 174.352 121.537 174.352C121.402 174.352 121.29 174.406 121.2 174.512C121.112 174.616 121.068 174.743 121.068 174.892ZM127.868 181.114C127.375 181.114 126.943 180.996 126.572 180.762C126.202 180.528 125.913 180.2 125.705 179.778C125.499 179.357 125.396 178.865 125.396 178.301C125.396 177.733 125.499 177.237 125.705 176.813C125.913 176.389 126.202 176.06 126.572 175.826C126.943 175.592 127.375 175.474 127.868 175.474C128.36 175.474 128.791 175.592 129.16 175.826C129.532 176.06 129.821 176.389 130.027 176.813C130.235 177.237 130.339 177.733 130.339 178.301C130.339 178.865 130.235 179.357 130.027 179.778C129.821 180.2 129.532 180.528 129.16 180.762C128.791 180.996 128.36 181.114 127.868 181.114ZM127.868 180.361C128.242 180.361 128.55 180.265 128.791 180.073C129.032 179.881 129.211 179.629 129.327 179.317C129.443 179.004 129.501 178.666 129.501 178.301C129.501 177.937 129.443 177.597 129.327 177.282C129.211 176.967 129.032 176.713 128.791 176.518C128.55 176.324 128.242 176.227 127.868 176.227C127.494 176.227 127.186 176.324 126.944 176.518C126.703 176.713 126.524 176.967 126.408 177.282C126.292 177.597 126.234 177.937 126.234 178.301C126.234 178.666 126.292 179.004 126.408 179.317C126.524 179.629 126.703 179.881 126.944 180.073C127.186 180.265 127.494 180.361 127.868 180.361ZM136.491 181.114C136.036 181.114 135.635 180.999 135.287 180.769C134.939 180.537 134.667 180.21 134.47 179.789C134.274 179.365 134.175 178.865 134.175 178.287C134.175 177.714 134.274 177.217 134.47 176.795C134.667 176.374 134.94 176.049 135.29 175.819C135.641 175.589 136.046 175.474 136.505 175.474C136.86 175.474 137.141 175.534 137.347 175.652C137.555 175.768 137.714 175.901 137.822 176.05C137.934 176.196 138.02 176.317 138.082 176.412H138.153V173.727H138.991V181H138.181V180.162H138.082C138.02 180.261 137.933 180.387 137.819 180.538C137.705 180.687 137.543 180.821 137.332 180.94C137.122 181.056 136.841 181.114 136.491 181.114ZM136.604 180.361C136.941 180.361 137.225 180.273 137.457 180.098C137.689 179.92 137.865 179.675 137.986 179.363C138.107 179.048 138.167 178.685 138.167 178.273C138.167 177.866 138.108 177.509 137.989 177.204C137.871 176.896 137.696 176.657 137.464 176.487C137.232 176.314 136.945 176.227 136.604 176.227C136.249 176.227 135.953 176.318 135.717 176.501C135.482 176.681 135.306 176.926 135.188 177.236C135.071 177.544 135.013 177.889 135.013 178.273C135.013 178.661 135.073 179.014 135.191 179.331C135.312 179.646 135.489 179.897 135.724 180.084C135.96 180.268 136.254 180.361 136.604 180.361ZM142.929 181.114C142.403 181.114 141.95 180.998 141.569 180.766C141.19 180.531 140.898 180.205 140.692 179.786C140.488 179.364 140.386 178.874 140.386 178.315C140.386 177.757 140.488 177.264 140.692 176.838C140.898 176.41 141.184 176.076 141.551 175.837C141.92 175.595 142.351 175.474 142.844 175.474C143.128 175.474 143.408 175.522 143.685 175.616C143.962 175.711 144.214 175.865 144.442 176.078C144.669 176.289 144.85 176.568 144.985 176.916C145.12 177.264 145.188 177.693 145.188 178.202V178.557H140.983V177.832H144.335C144.335 177.525 144.274 177.25 144.151 177.009C144.03 176.767 143.857 176.576 143.632 176.437C143.41 176.297 143.147 176.227 142.844 176.227C142.51 176.227 142.221 176.31 141.977 176.476C141.736 176.639 141.55 176.852 141.42 177.115C141.29 177.378 141.224 177.66 141.224 177.96V178.443C141.224 178.855 141.295 179.204 141.438 179.491C141.582 179.775 141.782 179.991 142.038 180.141C142.293 180.287 142.59 180.361 142.929 180.361C143.149 180.361 143.348 180.33 143.526 180.268C143.705 180.205 143.861 180.11 143.991 179.984C144.121 179.857 144.222 179.698 144.293 179.509L145.102 179.736C145.017 180.01 144.874 180.252 144.673 180.46C144.471 180.666 144.223 180.827 143.927 180.943C143.631 181.057 143.298 181.114 142.929 181.114ZM149.275 183.045V175.545H150.085V176.412H150.184C150.246 176.317 150.331 176.196 150.44 176.05C150.551 175.901 150.71 175.768 150.915 175.652C151.124 175.534 151.406 175.474 151.761 175.474C152.22 175.474 152.625 175.589 152.975 175.819C153.326 176.049 153.599 176.374 153.795 176.795C153.992 177.217 154.09 177.714 154.09 178.287C154.09 178.865 153.992 179.365 153.795 179.789C153.599 180.21 153.327 180.537 152.979 180.769C152.631 180.999 152.229 181.114 151.775 181.114C151.424 181.114 151.144 181.056 150.933 180.94C150.723 180.821 150.56 180.687 150.447 180.538C150.333 180.387 150.246 180.261 150.184 180.162H150.113V183.045H149.275ZM150.099 178.273C150.099 178.685 150.159 179.048 150.28 179.363C150.401 179.675 150.577 179.92 150.809 180.098C151.041 180.273 151.325 180.361 151.661 180.361C152.012 180.361 152.304 180.268 152.538 180.084C152.775 179.897 152.953 179.646 153.071 179.331C153.192 179.014 153.252 178.661 153.252 178.273C153.252 177.889 153.193 177.544 153.075 177.236C152.959 176.926 152.782 176.681 152.545 176.501C152.311 176.318 152.016 176.227 151.661 176.227C151.32 176.227 151.034 176.314 150.802 176.487C150.57 176.657 150.395 176.896 150.276 177.204C150.158 177.509 150.099 177.866 150.099 178.273ZM157.585 181.114C157.092 181.114 156.66 180.996 156.288 180.762C155.919 180.528 155.63 180.2 155.422 179.778C155.216 179.357 155.113 178.865 155.113 178.301C155.113 177.733 155.216 177.237 155.422 176.813C155.63 176.389 155.919 176.06 156.288 175.826C156.66 175.592 157.092 175.474 157.585 175.474C158.077 175.474 158.508 175.592 158.877 175.826C159.249 176.06 159.538 176.389 159.744 176.813C159.952 177.237 160.056 177.733 160.056 178.301C160.056 178.865 159.952 179.357 159.744 179.778C159.538 180.2 159.249 180.528 158.877 180.762C158.508 180.996 158.077 181.114 157.585 181.114ZM157.585 180.361C157.959 180.361 158.266 180.265 158.508 180.073C158.749 179.881 158.928 179.629 159.044 179.317C159.16 179.004 159.218 178.666 159.218 178.301C159.218 177.937 159.16 177.597 159.044 177.282C158.928 176.967 158.749 176.713 158.508 176.518C158.266 176.324 157.959 176.227 157.585 176.227C157.21 176.227 156.903 176.324 156.661 176.518C156.42 176.713 156.241 176.967 156.125 177.282C156.009 177.597 155.951 177.937 155.951 178.301C155.951 178.666 156.009 179.004 156.125 179.317C156.241 179.629 156.42 179.881 156.661 180.073C156.903 180.265 157.21 180.361 157.585 180.361ZM161.335 181V175.545H162.145V176.369H162.202C162.301 176.099 162.481 175.88 162.742 175.712C163.002 175.544 163.296 175.46 163.622 175.46C163.684 175.46 163.761 175.461 163.853 175.464C163.945 175.466 164.015 175.47 164.063 175.474V176.327C164.034 176.32 163.969 176.309 163.867 176.295C163.768 176.278 163.663 176.27 163.551 176.27C163.286 176.27 163.049 176.326 162.841 176.437C162.635 176.546 162.472 176.697 162.351 176.891C162.233 177.083 162.173 177.302 162.173 177.548V181H161.335ZM167.77 175.545V176.256H164.943V175.545H167.77ZM165.767 174.239H166.605V179.438C166.605 179.674 166.64 179.852 166.708 179.97C166.779 180.086 166.869 180.164 166.978 180.205C167.089 180.242 167.207 180.261 167.33 180.261C167.422 180.261 167.498 180.257 167.557 180.247C167.616 180.235 167.664 180.226 167.699 180.219L167.869 180.972C167.813 180.993 167.733 181.014 167.632 181.036C167.53 181.059 167.401 181.071 167.244 181.071C167.008 181.071 166.776 181.02 166.548 180.918C166.324 180.817 166.137 180.661 165.987 180.453C165.841 180.245 165.767 179.982 165.767 179.665V174.239ZM170.636 181.128C170.29 181.128 169.977 181.063 169.695 180.933C169.413 180.8 169.189 180.609 169.024 180.361C168.858 180.11 168.775 179.807 168.775 179.452C168.775 179.139 168.837 178.886 168.96 178.692C169.083 178.495 169.247 178.341 169.453 178.23C169.659 178.119 169.887 178.036 170.135 177.982C170.386 177.925 170.638 177.88 170.892 177.847C171.223 177.804 171.492 177.772 171.698 177.751C171.906 177.727 172.057 177.688 172.152 177.634C172.249 177.579 172.298 177.484 172.298 177.349V177.321C172.298 176.971 172.202 176.698 172.01 176.504C171.821 176.31 171.533 176.213 171.147 176.213C170.747 176.213 170.433 176.301 170.206 176.476C169.979 176.651 169.819 176.838 169.727 177.037L168.931 176.753C169.073 176.421 169.263 176.163 169.499 175.979C169.739 175.792 169.999 175.661 170.281 175.588C170.565 175.512 170.844 175.474 171.119 175.474C171.294 175.474 171.495 175.496 171.722 175.538C171.952 175.579 172.173 175.663 172.387 175.79C172.602 175.918 172.781 176.111 172.923 176.369C173.065 176.627 173.136 176.973 173.136 177.406V181H172.298V180.261H172.255C172.198 180.38 172.104 180.506 171.971 180.641C171.838 180.776 171.662 180.891 171.442 180.986C171.222 181.08 170.953 181.128 170.636 181.128ZM170.764 180.375C171.095 180.375 171.374 180.31 171.602 180.18C171.831 180.049 172.004 179.881 172.12 179.675C172.239 179.469 172.298 179.253 172.298 179.026V178.259C172.262 178.301 172.184 178.34 172.063 178.376C171.945 178.409 171.808 178.438 171.651 178.464C171.498 178.488 171.347 178.509 171.2 178.528C171.056 178.545 170.939 178.559 170.849 178.571C170.631 178.599 170.427 178.646 170.238 178.71C170.051 178.771 169.9 178.865 169.784 178.99C169.67 179.113 169.613 179.281 169.613 179.494C169.613 179.786 169.721 180.006 169.936 180.155C170.154 180.302 170.43 180.375 170.764 180.375Z" fill="black"/>
<line x1="70" y1="172.25" x2="71" y2="172.25" stroke="white" stroke-width="1.5"/>
<line x1="70" y1="172.25" x2="71" y2="172.25" stroke="white" stroke-width="1.5"/>
<line x1="80" y1="172.25" x2="81" y2="172.25" stroke="white" stroke-width="1.5"/>
<line x1="76" y1="172.25" x2="77" y2="172.25" stroke="white" stroke-width="1.5"/>
<line x1="74" y1="172.25" x2="75" y2="172.25" stroke="white" stroke-width="1.5"/>
<line x1="74" y1="172.25" x2="75" y2="172.25" stroke="white" stroke-width="1.5"/>
<line x1="70" y1="172.25" x2="71" y2="172.25" stroke="white" stroke-width="1.5"/>
<line x1="78" y1="172.25" x2="79" y2="172.25" stroke="white" stroke-width="1.5"/>
<line x1="76" y1="172.25" x2="77" y2="172.25" stroke="white" stroke-width="1.5"/>
<line x1="74" y1="172.25" x2="75" y2="172.25" stroke="white" stroke-width="1.5"/>
<line x1="82" y1="172.25" x2="83" y2="172.25" stroke="white" stroke-width="1.5"/>
<line x1="84" y1="172.25" x2="85" y2="172.25" stroke="white" stroke-width="1.5"/>
<line x1="86" y1="172.25" x2="87" y2="172.25" stroke="white" stroke-width="1.5"/>
<line x1="88" y1="172.25" x2="89" y2="172.25" stroke="white" stroke-width="1.5"/>
<line x1="90" y1="172.25" x2="91" y2="172.25" stroke="white" stroke-width="1.5"/>
<line x1="92" y1="172.25" x2="93" y2="172.25" stroke="white" stroke-width="1.5"/>
<line x1="94" y1="172.25" x2="95" y2="172.25" stroke="white" stroke-width="1.5"/>
<line x1="96" y1="172.25" x2="97" y2="172.25" stroke="white" stroke-width="1.5"/>
<line x1="98" y1="172.25" x2="99" y2="172.25" stroke="white" stroke-width="1.5"/>
<line x1="100" y1="172.25" x2="101" y2="172.25" stroke="white" stroke-width="1.5"/>
<line x1="102" y1="172.25" x2="103" y2="172.25" stroke="white" stroke-width="1.5"/>
<line x1="104" y1="172.25" x2="105" y2="172.25" stroke="white" stroke-width="1.5"/>
<line x1="106" y1="172.25" x2="107" y2="172.25" stroke="white" stroke-width="1.5"/>
<line x1="108" y1="172.25" x2="109" y2="172.25" stroke="white" stroke-width="1.5"/>
<line x1="110" y1="172.25" x2="111" y2="172.25" stroke="white" stroke-width="1.5"/>
<line x1="112" y1="172.25" x2="113" y2="172.25" stroke="white" stroke-width="1.5"/>
<line x1="114" y1="172.25" x2="115" y2="172.25" stroke="white" stroke-width="1.5"/>
<line x1="116" y1="172.25" x2="117" y2="172.25" stroke="white" stroke-width="1.5"/>
<line x1="118" y1="172.25" x2="119" y2="172.25" stroke="white" stroke-width="1.5"/>
<line x1="120" y1="172.25" x2="121" y2="172.25" stroke="white" stroke-width="1.5"/>
<line x1="122" y1="172.25" x2="123" y2="172.25" stroke="white" stroke-width="1.5"/>
<line x1="124" y1="172.25" x2="125" y2="172.25" stroke="white" stroke-width="1.5"/>
<line x1="126" y1="172.25" x2="127" y2="172.25" stroke="white" stroke-width="1.5"/>
<line x1="128" y1="172.25" x2="129" y2="172.25" stroke="white" stroke-width="1.5"/>
<line x1="130" y1="172.25" x2="131" y2="172.25" stroke="white" stroke-width="1.5"/>
<line x1="132" y1="172.25" x2="133" y2="172.25" stroke="white" stroke-width="1.5"/>
<line x1="134" y1="172.25" x2="135" y2="172.25" stroke="white" stroke-width="1.5"/>
<line x1="136" y1="172.25" x2="137" y2="172.25" stroke="white" stroke-width="1.5"/>
<line x1="138" y1="172.25" x2="139" y2="172.25" stroke="white" stroke-width="1.5"/>
<line x1="140" y1="172.25" x2="141" y2="172.25" stroke="white" stroke-width="1.5"/>
<line x1="142" y1="172.25" x2="143" y2="172.25" stroke="white" stroke-width="1.5"/>
<line x1="144" y1="172.25" x2="145" y2="172.25" stroke="white" stroke-width="1.5"/>
<line x1="146" y1="172.25" x2="147" y2="172.25" stroke="white" stroke-width="1.5"/>
<line x1="148" y1="172.25" x2="149" y2="172.25" stroke="white" stroke-width="1.5"/>
<line x1="150" y1="172.25" x2="151" y2="172.25" stroke="white" stroke-width="1.5"/>
<line x1="152" y1="172.25" x2="153" y2="172.25" stroke="white" stroke-width="1.5"/>
<line x1="154" y1="172.25" x2="155" y2="172.25" stroke="white" stroke-width="1.5"/>
<line x1="156" y1="172.25" x2="157" y2="172.25" stroke="white" stroke-width="1.5"/>
<line x1="158" y1="172.25" x2="159" y2="172.25" stroke="white" stroke-width="1.5"/>
<line x1="160" y1="172.25" x2="161" y2="172.25" stroke="white" stroke-width="1.5"/>
<line x1="162" y1="172.25" x2="163" y2="172.25" stroke="white" stroke-width="1.5"/>
<line x1="164" y1="172.25" x2="165" y2="172.25" stroke="white" stroke-width="1.5"/>
<line x1="166" y1="172.25" x2="167" y2="172.25" stroke="white" stroke-width="1.5"/>
<line x1="168" y1="172.25" x2="169" y2="172.25" stroke="white" stroke-width="1.5"/>
<line x1="170" y1="172.25" x2="171" y2="172.25" stroke="white" stroke-width="1.5"/>
<line x1="172" y1="172.25" x2="173" y2="172.25" stroke="white" stroke-width="1.5"/>
<line x1="174" y1="172.25" x2="175" y2="172.25" stroke="white" stroke-width="1.5"/>
<line x1="176" y1="172.25" x2="177" y2="172.25" stroke="white" stroke-width="1.5"/>
<line x1="178" y1="172.25" x2="179" y2="172.25" stroke="white" stroke-width="1.5"/>
<line x1="180" y1="172.25" x2="181" y2="172.25" stroke="white" stroke-width="1.5"/>
<line x1="182" y1="172.25" x2="183" y2="172.25" stroke="white" stroke-width="1.5"/>
<line x1="184" y1="172.25" x2="185" y2="172.25" stroke="white" stroke-width="1.5"/>
<line x1="186" y1="172.25" x2="187" y2="172.25" stroke="white" stroke-width="1.5"/>
<line x1="188" y1="172.25" x2="189" y2="172.25" stroke="white" stroke-width="1.5"/>
<line x1="190" y1="172.25" x2="191" y2="172.25" stroke="white" stroke-width="1.5"/>
<line x1="192" y1="172.25" x2="193" y2="172.25" stroke="white" stroke-width="1.5"/>
<line x1="194" y1="172.25" x2="195" y2="172.25" stroke="white" stroke-width="1.5"/>
<line x1="196" y1="172.25" x2="197" y2="172.25" stroke="white" stroke-width="1.5"/>
<line x1="198" y1="172.25" x2="199" y2="172.25" stroke="white" stroke-width="1.5"/>
<line x1="200" y1="172.25" x2="201" y2="172.25" stroke="white" stroke-width="1.5"/>
<line x1="202" y1="172.25" x2="203" y2="172.25" stroke="white" stroke-width="1.5"/>
<line x1="204" y1="172.25" x2="205" y2="172.25" stroke="white" stroke-width="1.5"/>
<line x1="206" y1="172.25" x2="207" y2="172.25" stroke="white" stroke-width="1.5"/>
<line x1="208" y1="172.25" x2="209" y2="172.25" stroke="white" stroke-width="1.5"/>
<line x1="210" y1="172.25" x2="211" y2="172.25" stroke="white" stroke-width="1.5"/>
<line x1="212" y1="172.25" x2="213" y2="172.25" stroke="white" stroke-width="1.5"/>
<line x1="214" y1="172.25" x2="215" y2="172.25" stroke="white" stroke-width="1.5"/>
<line x1="216" y1="172.25" x2="217" y2="172.25" stroke="white" stroke-width="1.5"/>
<line x1="218" y1="172.25" x2="219" y2="172.25" stroke="white" stroke-width="1.5"/>
<line x1="220" y1="172.25" x2="221" y2="172.25" stroke="white" stroke-width="1.5"/>
<line x1="222" y1="172.25" x2="223" y2="172.25" stroke="white" stroke-width="1.5"/>
<line x1="80" y1="172.25" x2="81" y2="172.25" stroke="white" stroke-width="1.5"/>
<line x1="80" y1="172.25" x2="81" y2="172.25" stroke="white" stroke-width="1.5"/>
<line x1="70" y1="172.25" x2="71" y2="172.25" stroke="white" stroke-width="1.5"/>
<line x1="70" y1="172.25" x2="71" y2="172.25" stroke="white" stroke-width="1.5"/>
<line x1="78" y1="172.25" x2="79" y2="172.25" stroke="white" stroke-width="1.5"/>
<line x1="78" y1="172.25" x2="79" y2="172.25" stroke="white" stroke-width="1.5"/>
<line x1="76" y1="172.25" x2="77" y2="172.25" stroke="white" stroke-width="1.5"/>
<line x1="76" y1="172.25" x2="77" y2="172.25" stroke="white" stroke-width="1.5"/>
<defs>
<filter id="filter0_d_8_184" x="64.7345" y="171.755" width="162.653" height="9" filterUnits="userSpaceOnUse" color-interpolation-filters="sRGB">
<feFlood flood-opacity="0" result="BackgroundImageFix"/>
<feColorMatrix in="SourceAlpha" type="matrix" values="0 0 0 0 0 0 0 0 0 0 0 0 0 0 0 0 0 0 127 0" result="hardAlpha"/>
<feOffset dy="4"/>
<feGaussianBlur stdDeviation="2"/>
<feComposite in2="hardAlpha" operator="out"/>
<feColorMatrix type="matrix" values="0 0 0 0 0 0 0 0 0 0 0 0 0 0 0 0 0 0 0.25 0"/>
<feBlend mode="normal" in2="BackgroundImageFix" result="effect1_dropShadow_8_184"/>
<feBlend mode="normal" in="SourceGraphic" in2="effect1_dropShadow_8_184" result="shape"/>
</filter>
<filter id="filter1_d_8_184" x="64.7345" y="183.174" width="162.653" height="9" filterUnits="userSpaceOnUse" color-interpolation-filters="sRGB">
<feFlood flood-opacity="0" result="BackgroundImageFix"/>
<feColorMatrix in="SourceAlpha" type="matrix" values="0 0 0 0 0 0 0 0 0 0 0 0 0 0 0 0 0 0 127 0" result="hardAlpha"/>
<feOffset dy="4"/>
<feGaussianBlur stdDeviation="2"/>
<feComposite in2="hardAlpha" operator="out"/>
<feColorMatrix type="matrix" values="0 0 0 0 0 0 0 0 0 0 0 0 0 0 0 0 0 0 0.25 0"/>
<feBlend mode="normal" in2="BackgroundImageFix" result="effect1_dropShadow_8_184"/>
<feBlend mode="normal" in="SourceGraphic" in2="effect1_dropShadow_8_184" result="shape"/>
</filter>
</defs>
</svg>
