<svg width="403" height="290" viewBox="0 0 403 290" fill="none" xmlns="http://www.w3.org/2000/svg">
<rect width="403" height="282" fill="#D9D9D9"/>
<rect x="27" y="25" width="348" height="238" fill="#FFFEFE"/>
<path d="M100 262.5H325V282H100V272V262.5Z" fill="#FFFEFE"/>
<path d="M210 141C210 144.866 206.866 148 203 148C199.134 148 195.5 144.866 195.5 141C195.5 137.134 199.134 134 203 134C206.866 134 210 137.134 210 141Z" fill="#D9D9D9"/>
<path d="M203 25L194.34 40H211.66L203 25ZM203 134L211.66 119H194.34L203 134ZM201.5 38.5V120.5H204.5V38.5H201.5Z" fill="black"/>
<path d="M203 148L194.34 163H211.66L203 148ZM203 263.5L211.66 248.5H194.34L203 263.5ZM201.5 161.5V250H204.5V161.5H201.5Z" fill="black"/>
<path d="M375 141L360 132.34V149.66L375 141ZM210 141L225 149.66V132.34L210 141ZM361.5 139.5L223.5 139.5V142.5L361.5 142.5V139.5Z" fill="black"/>
<path d="M196 141L181 132.34V149.66L196 141ZM27.5 141L42.5 149.66V132.34L27.5 141ZM99.5 244.5L84.4567 235.915L84.5437 253.236L99.5 244.5ZM0 245L15.0433 253.585L14.9563 236.264L0 245ZM375.5 244L360.414 235.491L360.588 252.811L375.5 244ZM325.765 244.5L340.851 253.009L340.677 235.689L325.765 244.5ZM182.5 139.5L41 139.5V142.5L182.5 142.5V139.5ZM85.9926 243.068L13.4923 243.432L13.5074 246.432L86.0077 246.068L85.9926 243.068ZM361.986 242.636L339.249 242.864L339.279 245.864L362.016 245.636L361.986 242.636Z" fill="black"/>
<path d="M77.8295 134H75.6136L82.0227 116.545H84.2045L90.6136 134H88.3977L83.1818 119.307H83.0455L77.8295 134ZM78.6477 127.182H87.5795V129.057H78.6477V127.182Z" fill="black"/>
<path d="M37.1136 237V219.545H47.6477V221.42H39.2273V227.318H47.1023V229.193H39.2273V235.125H47.7841V237H37.1136Z" fill="black"/>
<path d="M345.114 237V219.545H355.58V221.42H347.227V227.318H354.795V229.193H347.227V237H345.114Z" fill="black"/>
<path d="M219.5 85H214.114V67.5455H219.739C221.432 67.5455 222.881 67.8949 224.085 68.5938C225.29 69.2869 226.213 70.2841 226.855 71.5852C227.497 72.8807 227.818 74.4318 227.818 76.2386C227.818 78.0568 227.494 79.6222 226.847 80.9347C226.199 82.2415 225.256 83.2472 224.017 83.9517C222.778 84.6506 221.273 85 219.5 85ZM216.227 83.125H219.364C220.807 83.125 222.003 82.8466 222.952 82.2898C223.901 81.733 224.608 80.9403 225.074 79.9119C225.54 78.8835 225.773 77.6591 225.773 76.2386C225.773 74.8295 225.543 73.6165 225.082 72.5994C224.622 71.5767 223.935 70.7926 223.02 70.2472C222.105 69.696 220.966 69.4205 219.602 69.4205H216.227V83.125Z" fill="black"/>
<path d="M228.159 225H226.045C225.92 224.392 225.702 223.858 225.389 223.398C225.082 222.938 224.707 222.551 224.264 222.239C223.827 221.92 223.341 221.682 222.807 221.523C222.273 221.364 221.716 221.284 221.136 221.284C220.08 221.284 219.122 221.551 218.264 222.085C217.412 222.619 216.733 223.406 216.227 224.446C215.727 225.486 215.477 226.761 215.477 228.273C215.477 229.784 215.727 231.06 216.227 232.099C216.733 233.139 217.412 233.926 218.264 234.46C219.122 234.994 220.08 235.261 221.136 235.261C221.716 235.261 222.273 235.182 222.807 235.023C223.341 234.864 223.827 234.628 224.264 234.315C224.707 233.997 225.082 233.608 225.389 233.148C225.702 232.682 225.92 232.148 226.045 231.545H228.159C228 232.437 227.71 233.236 227.29 233.94C226.869 234.645 226.347 235.244 225.722 235.739C225.097 236.227 224.395 236.599 223.616 236.855C222.844 237.111 222.017 237.239 221.136 237.239C219.648 237.239 218.324 236.875 217.165 236.148C216.006 235.42 215.094 234.386 214.429 233.045C213.764 231.705 213.432 230.114 213.432 228.273C213.432 226.432 213.764 224.841 214.429 223.5C215.094 222.159 216.006 221.125 217.165 220.398C218.324 219.67 219.648 219.307 221.136 219.307C222.017 219.307 222.844 219.435 223.616 219.69C224.395 219.946 225.097 220.321 225.722 220.815C226.347 221.304 226.869 221.901 227.29 222.605C227.71 223.304 228 224.102 228.159 225Z" fill="black"/>
<path d="M339.114 134V116.545H345.216C346.432 116.545 347.435 116.756 348.224 117.176C349.014 117.591 349.602 118.151 349.989 118.855C350.375 119.554 350.568 120.33 350.568 121.182C350.568 121.932 350.435 122.551 350.168 123.04C349.906 123.528 349.56 123.915 349.128 124.199C348.702 124.483 348.239 124.693 347.739 124.83V125C348.273 125.034 348.81 125.222 349.349 125.562C349.889 125.903 350.341 126.392 350.705 127.028C351.068 127.665 351.25 128.443 351.25 129.364C351.25 130.239 351.051 131.026 350.653 131.724C350.256 132.423 349.628 132.977 348.77 133.386C347.912 133.795 346.795 134 345.42 134H339.114ZM341.227 132.125H345.42C346.801 132.125 347.781 131.858 348.361 131.324C348.946 130.784 349.239 130.131 349.239 129.364C349.239 128.773 349.088 128.227 348.787 127.727C348.486 127.222 348.057 126.818 347.5 126.517C346.943 126.21 346.284 126.057 345.523 126.057H341.227V132.125ZM341.227 124.216H345.148C345.784 124.216 346.358 124.091 346.869 123.841C347.386 123.591 347.795 123.239 348.097 122.784C348.403 122.33 348.557 121.795 348.557 121.182C348.557 120.415 348.29 119.764 347.756 119.23C347.222 118.69 346.375 118.42 345.216 118.42H341.227V124.216Z" fill="black"/>
<g filter="url(#filter0_d_1_68)">
<path d="M100 264H325" stroke="black"/>
</g>
<g filter="url(#filter1_d_1_68)">
<path d="M100 281.5H325" stroke="black"/>
</g>
<defs>
<filter id="filter0_d_1_68" x="96" y="263.5" width="233" height="9" filterUnits="userSpaceOnUse" color-interpolation-filters="sRGB">
<feFlood flood-opacity="0" result="BackgroundImageFix"/>
<feColorMatrix in="SourceAlpha" type="matrix" values="0 0 0 0 0 0 0 0 0 0 0 0 0 0 0 0 0 0 127 0" result="hardAlpha"/>
<feOffset dy="4"/>
<feGaussianBlur stdDeviation="2"/>
<feComposite in2="hardAlpha" operator="out"/>
<feColorMatrix type="matrix" values="0 0 0 0 0 0 0 0 0 0 0 0 0 0 0 0 0 0 0.25 0"/>
<feBlend mode="normal" in2="BackgroundImageFix" result="effect1_dropShadow_1_68"/>
<feBlend mode="normal" in="SourceGraphic" in2="effect1_dropShadow_1_68" result="shape"/>
</filter>
<filter id="filter1_d_1_68" x="96" y="281" width="233" height="9" filterUnits="userSpaceOnUse" color-interpolation-filters="sRGB">
<feFlood flood-opacity="0" result="BackgroundImageFix"/>
<feColorMatrix in="SourceAlpha" type="matrix" values="0 0 0 0 0 0 0 0 0 0 0 0 0 0 0 0 0 0 127 0" result="hardAlpha"/>
<feOffset dy="4"/>
<feGaussianBlur stdDeviation="2"/>
<feComposite in2="hardAlpha" operator="out"/>
<feColorMatrix type="matrix" values="0 0 0 0 0 0 0 0 0 0 0 0 0 0 0 0 0 0 0.25 0"/>
<feBlend mode="normal" in2="BackgroundImageFix" result="effect1_dropShadow_1_68"/>
<feBlend mode="normal" in="SourceGraphic" in2="effect1_dropShadow_1_68" result="shape"/>
</filter>
</defs>
</svg>
