<svg width="128" height="366" viewBox="0 0 128 366" fill="none" xmlns="http://www.w3.org/2000/svg">
<rect y="6" width="116" height="360" fill="#D9D9D9"/>
<rect x="9" y="17" width="98" height="339" fill="white"/>
<rect x="9" y="17" width="98" height="339" fill="white"/>
<rect x="107" y="182" width="9" height="93" fill="white"/>
<rect x="107" y="182" width="9" height="93" fill="white"/>
<rect x="107" y="69" width="9" height="93" fill="white"/>
<rect x="107" y="69" width="9" height="93" fill="white"/>
<rect width="8.00967" height="19.0861" transform="matrix(-0.000434144 1 -1 -0.00069323 127.09 162.013)" fill="white"/>
<rect width="8.00967" height="19.0861" transform="matrix(-0.000434144 1 -1 -0.00069323 127.09 162.013)" fill="#D9D9D9"/>
<rect width="8.45901" height="19.0382" transform="matrix(-0.000434144 1 -1 -0.00069323 125.877 275.013)" fill="white"/>
<rect width="8.45901" height="19.0382" transform="matrix(-0.000434144 1 -1 -0.00069323 125.877 275.013)" fill="#D9D9D9"/>
<rect width="8.64003" height="19.3117" transform="matrix(-0.000434144 1 -1 -0.00069323 126.151 48.0134)" fill="white"/>
<rect width="8.64003" height="19.3117" transform="matrix(-0.000434144 1 -1 -0.00069323 126.151 48.0134)" fill="#D9D9D9"/>
<path d="M73 275L64.3397 290H81.6603L73 275ZM73 356L81.6603 341H64.3397L73 356ZM71.5 288.5L71.5 342.5H74.5L74.5 288.5H71.5Z" fill="black"/>
<path d="M73 162L64.3397 177H81.6603L73 162ZM73 275L81.6603 260H64.3397L73 275ZM71.5 175.5L71.5 261.5H74.5L74.5 175.5H71.5Z" fill="black"/>
<path d="M73 17L64.3397 32H81.6603L73 17ZM73 162L81.6603 147H64.3397L73 162ZM71.5 30.5L71.5 148.5H74.5L74.5 30.5H71.5Z" fill="black"/>
<line x1="107" y1="275.25" x2="71" y2="275.25" stroke="black" stroke-width="0.5"/>
<line x1="107" y1="162.25" x2="70" y2="162.25" stroke="black" stroke-width="0.5"/>
<path d="M61 324.239H46.4545V319.324C46.4545 318.183 46.6605 317.25 47.0724 316.526C47.4796 315.796 48.0312 315.257 48.7273 314.906C49.4233 314.556 50.1998 314.381 51.0568 314.381C51.9138 314.381 52.6927 314.556 53.3935 314.906C54.0942 315.252 54.6529 315.787 55.0696 316.511C55.4815 317.236 55.6875 318.164 55.6875 319.295V322.818H54.125V319.352C54.125 318.571 53.9901 317.944 53.7202 317.47C53.4503 316.997 53.0857 316.653 52.6264 316.44C52.1624 316.223 51.6392 316.114 51.0568 316.114C50.4744 316.114 49.9536 316.223 49.4943 316.44C49.035 316.653 48.6752 316.999 48.4148 317.477C48.1496 317.955 48.017 318.59 48.017 319.381V322.477H61V324.239ZM61.2273 307.456C61.2273 308.441 60.9929 309.305 60.5241 310.048C60.0554 310.787 59.3996 311.365 58.5568 311.781C57.714 312.193 56.7292 312.399 55.6023 312.399C54.4659 312.399 53.474 312.193 52.6264 311.781C51.7789 311.365 51.1207 310.787 50.652 310.048C50.1832 309.305 49.9489 308.441 49.9489 307.456C49.9489 306.471 50.1832 305.609 50.652 304.871C51.1207 304.127 51.7789 303.55 52.6264 303.138C53.474 302.721 54.4659 302.513 55.6023 302.513C56.7292 302.513 57.714 302.721 58.5568 303.138C59.3996 303.55 60.0554 304.127 60.5241 304.871C60.9929 305.609 61.2273 306.471 61.2273 307.456ZM59.7216 307.456C59.7216 306.708 59.5298 306.092 59.1463 305.609C58.7628 305.126 58.2585 304.769 57.6335 304.537C57.0085 304.305 56.3314 304.189 55.6023 304.189C54.8731 304.189 54.1937 304.305 53.5639 304.537C52.9342 304.769 52.4252 305.126 52.0369 305.609C51.6487 306.092 51.4545 306.708 51.4545 307.456C51.4545 308.204 51.6487 308.82 52.0369 309.303C52.4252 309.786 52.9342 310.143 53.5639 310.375C54.1937 310.607 54.8731 310.723 55.6023 310.723C56.3314 310.723 57.0085 310.607 57.6335 310.375C58.2585 310.143 58.7628 309.786 59.1463 309.303C59.5298 308.82 59.7216 308.204 59.7216 307.456ZM61.2273 295.522C61.2273 296.545 60.9858 297.426 60.5028 298.164C60.0199 298.903 59.3546 299.471 58.5071 299.869C57.6596 300.267 56.6913 300.466 55.6023 300.466C54.4943 300.466 53.5166 300.262 52.669 299.855C51.8168 299.443 51.1515 298.87 50.6733 298.136C50.1903 297.397 49.9489 296.536 49.9489 295.551C49.9489 294.784 50.0909 294.092 50.375 293.477C50.6591 292.861 51.0568 292.357 51.5682 291.964C52.0795 291.571 52.6761 291.327 53.358 291.233V292.909C52.8608 293.037 52.4205 293.321 52.0369 293.761C51.6487 294.197 51.4545 294.784 51.4545 295.522C51.4545 296.176 51.625 296.749 51.9659 297.241C52.3021 297.729 52.7779 298.11 53.3935 298.385C54.0043 298.654 54.7216 298.789 55.5455 298.789C56.3883 298.789 57.1222 298.657 57.7472 298.392C58.3722 298.122 58.8575 297.743 59.2031 297.255C59.5488 296.763 59.7216 296.185 59.7216 295.522C59.7216 295.087 59.6458 294.691 59.4943 294.336C59.3428 293.981 59.125 293.681 58.8409 293.434C58.5568 293.188 58.2159 293.013 57.8182 292.909V291.233C58.4621 291.327 59.0421 291.562 59.5582 291.936C60.0696 292.305 60.4768 292.795 60.7798 293.406C61.0781 294.012 61.2273 294.717 61.2273 295.522ZM60.9432 296.318V294.926L61.5114 295.039C61.5682 294.67 61.7221 294.332 61.973 294.024C62.2287 293.716 62.6335 293.562 63.1875 293.562C63.7983 293.562 64.2955 293.815 64.679 294.322C65.0672 294.824 65.2614 295.565 65.2614 296.545L64.1534 296.602C64.1534 296.162 64.0824 295.797 63.9403 295.508C63.803 295.215 63.571 295.068 63.2443 295.068C62.9176 295.068 62.6951 295.189 62.5767 295.43C62.4583 295.672 62.3778 296.062 62.3352 296.602L60.9432 296.318ZM61.2273 284.35C61.2273 285.335 60.9929 286.199 60.5241 286.943C60.0554 287.681 59.3996 288.259 58.5568 288.676C57.714 289.088 56.7292 289.294 55.6023 289.294C54.4659 289.294 53.474 289.088 52.6264 288.676C51.7789 288.259 51.1207 287.681 50.652 286.943C50.1832 286.199 49.9489 285.335 49.9489 284.35C49.9489 283.366 50.1832 282.504 50.652 281.765C51.1207 281.022 51.7789 280.444 52.6264 280.032C53.474 279.616 54.4659 279.407 55.6023 279.407C56.7292 279.407 57.714 279.616 58.5568 280.032C59.3996 280.444 60.0554 281.022 60.5241 281.765C60.9929 282.504 61.2273 283.366 61.2273 284.35ZM59.7216 284.35C59.7216 283.602 59.5298 282.987 59.1463 282.504C58.7628 282.021 58.2585 281.663 57.6335 281.431C57.0085 281.199 56.3314 281.083 55.6023 281.083C54.8731 281.083 54.1937 281.199 53.5639 281.431C52.9342 281.663 52.4252 282.021 52.0369 282.504C51.6487 282.987 51.4545 283.602 51.4545 284.35C51.4545 285.099 51.6487 285.714 52.0369 286.197C52.4252 286.68 52.9342 287.038 53.5639 287.27C54.1937 287.502 54.8731 287.618 55.6023 287.618C56.3314 287.618 57.0085 287.502 57.6335 287.27C58.2585 287.038 58.7628 286.68 59.1463 286.197C59.5298 285.714 59.7216 285.099 59.7216 284.35Z" fill="black"/>
<path d="M59 261.239H44.4545V256.324C44.4545 255.183 44.6605 254.25 45.0724 253.526C45.4796 252.796 46.0312 252.257 46.7273 251.906C47.4233 251.556 48.1998 251.381 49.0568 251.381C49.9138 251.381 50.6927 251.556 51.3935 251.906C52.0942 252.252 52.6529 252.787 53.0696 253.511C53.4815 254.236 53.6875 255.164 53.6875 256.295V259.818H52.125V256.352C52.125 255.571 51.9901 254.944 51.7202 254.47C51.4503 253.997 51.0857 253.653 50.6264 253.44C50.1624 253.223 49.6392 253.114 49.0568 253.114C48.4744 253.114 47.9536 253.223 47.4943 253.44C47.035 253.653 46.6752 253.999 46.4148 254.477C46.1496 254.955 46.017 255.59 46.017 256.381V259.477H59V261.239ZM59.2273 244.314C59.2273 245.365 58.9953 246.272 58.5312 247.034C58.0625 247.792 57.4091 248.376 56.571 248.788C55.7282 249.196 54.7481 249.399 53.6307 249.399C52.5133 249.399 51.5284 249.196 50.6761 248.788C49.8191 248.376 49.1515 247.804 48.6733 247.07C48.1903 246.331 47.9489 245.469 47.9489 244.484C47.9489 243.916 48.0436 243.355 48.233 242.801C48.4223 242.247 48.7301 241.743 49.1562 241.288C49.5777 240.834 50.1364 240.472 50.8324 240.202C51.5284 239.932 52.3854 239.797 53.4034 239.797H54.1136V248.206H52.6648V241.501C52.0492 241.501 51.5 241.625 51.017 241.871C50.5341 242.112 50.1529 242.458 49.8736 242.908C49.5942 243.353 49.4545 243.878 49.4545 244.484C49.4545 245.152 49.6203 245.73 49.9517 246.217C50.2784 246.7 50.7045 247.072 51.2301 247.332C51.7557 247.593 52.3191 247.723 52.9205 247.723H53.8864C54.7102 247.723 55.4086 247.581 55.9815 247.297C56.5497 247.008 56.983 246.608 57.2812 246.097C57.5748 245.585 57.7216 244.991 57.7216 244.314C57.7216 243.874 57.66 243.476 57.5369 243.121C57.4091 242.761 57.2197 242.451 56.9688 242.19C56.7131 241.93 56.3958 241.729 56.017 241.587L56.4716 239.967C57.0208 240.138 57.5038 240.424 57.9205 240.827C58.3324 241.229 58.6544 241.726 58.8864 242.318C59.1136 242.91 59.2273 243.575 59.2273 244.314ZM59 237.247H48.0909V235.628H49.7386V235.514C49.1989 235.315 48.7609 234.955 48.4247 234.435C48.0885 233.914 47.9205 233.327 47.9205 232.673C47.9205 232.55 47.9228 232.396 47.9276 232.212C47.9323 232.027 47.9394 231.887 47.9489 231.793H49.6534C49.6392 231.849 49.6179 231.98 49.5895 232.183C49.5563 232.382 49.5398 232.593 49.5398 232.815C49.5398 233.346 49.651 233.819 49.8736 234.236C50.0914 234.648 50.3944 234.974 50.7827 235.216C51.1662 235.453 51.6042 235.571 52.0966 235.571H59V237.247ZM59.2273 225.706C59.2273 226.729 58.9858 227.609 58.5028 228.348C58.0199 229.087 57.3546 229.655 56.5071 230.053C55.6596 230.45 54.6913 230.649 53.6023 230.649C52.4943 230.649 51.5166 230.446 50.669 230.038C49.8168 229.626 49.1515 229.054 48.6733 228.32C48.1903 227.581 47.9489 226.719 47.9489 225.734C47.9489 224.967 48.0909 224.276 48.375 223.661C48.6591 223.045 49.0568 222.541 49.5682 222.148C50.0795 221.755 50.6761 221.511 51.358 221.416V223.092C50.8608 223.22 50.4205 223.504 50.0369 223.945C49.6487 224.38 49.4545 224.967 49.4545 225.706C49.4545 226.359 49.625 226.932 49.9659 227.425C50.3021 227.912 50.7779 228.294 51.3935 228.568C52.0043 228.838 52.7216 228.973 53.5455 228.973C54.3883 228.973 55.1222 228.84 55.7472 228.575C56.3722 228.305 56.8575 227.927 57.2031 227.439C57.5488 226.946 57.7216 226.369 57.7216 225.706C57.7216 225.27 57.6458 224.875 57.4943 224.52C57.3428 224.165 57.125 223.864 56.8409 223.618C56.5568 223.372 56.2159 223.196 55.8182 223.092V221.416C56.4621 221.511 57.0421 221.745 57.5582 222.119C58.0696 222.489 58.4768 222.979 58.7798 223.589C59.0781 224.196 59.2273 224.901 59.2273 225.706ZM54.5398 212.091H48.0909V210.415H59V212.091H57.1534V212.205C57.7074 212.46 58.1785 212.858 58.5668 213.398C58.9503 213.937 59.142 214.619 59.142 215.443C59.142 216.125 58.9929 216.731 58.6946 217.261C58.3916 217.792 57.937 218.208 57.331 218.511C56.7202 218.814 55.9508 218.966 55.0227 218.966H48.0909V217.29H54.9091C55.7045 217.29 56.339 217.067 56.8125 216.622C57.286 216.172 57.5227 215.599 57.5227 214.903C57.5227 214.487 57.4162 214.063 57.2031 213.632C56.9901 213.196 56.6634 212.832 56.223 212.538C55.7827 212.24 55.2216 212.091 54.5398 212.091ZM59 207.345H48.0909V205.725H49.7386V205.612C49.1989 205.413 48.7609 205.053 48.4247 204.532C48.0885 204.011 47.9205 203.424 47.9205 202.771C47.9205 202.648 47.9228 202.494 47.9276 202.309C47.9323 202.125 47.9394 201.985 47.9489 201.89H49.6534C49.6392 201.947 49.6179 202.077 49.5895 202.281C49.5563 202.48 49.5398 202.69 49.5398 202.913C49.5398 203.443 49.651 203.917 49.8736 204.333C50.0914 204.745 50.3944 205.072 50.7827 205.314C51.1662 205.55 51.6042 205.669 52.0966 205.669H59L59 207.345ZM50.5341 192.176L50.9602 193.682C50.7093 193.777 50.4654 193.916 50.2287 194.101C49.9872 194.281 49.7884 194.527 49.6321 194.839C49.4759 195.152 49.3977 195.552 49.3977 196.04C49.3977 196.707 49.5516 197.264 49.8594 197.709C50.1624 198.149 50.5483 198.369 51.017 198.369C51.4337 198.369 51.7628 198.218 52.0043 197.915C52.2457 197.612 52.447 197.138 52.608 196.494L53.0057 194.875C53.2424 193.9 53.6046 193.173 54.0923 192.695C54.5753 192.216 55.1979 191.977 55.9602 191.977C56.5852 191.977 57.1439 192.157 57.6364 192.517C58.1288 192.872 58.517 193.369 58.8011 194.009C59.0852 194.648 59.2273 195.391 59.2273 196.239C59.2273 197.351 58.9858 198.272 58.5028 199.001C58.0199 199.731 57.3144 200.192 56.3864 200.386L55.9886 198.795C56.5758 198.644 57.0161 198.357 57.3097 197.936C57.6032 197.51 57.75 196.954 57.75 196.267C57.75 195.486 57.5843 194.866 57.2528 194.406C56.9167 193.942 56.5142 193.71 56.0455 193.71C55.6667 193.71 55.3494 193.843 55.0938 194.108C54.8333 194.373 54.6392 194.78 54.5114 195.33L54.0852 197.148C53.8485 198.147 53.4815 198.881 52.9844 199.349C52.4825 199.813 51.8551 200.045 51.1023 200.045C50.4867 200.045 49.9422 199.873 49.4688 199.527C48.9953 199.177 48.6236 198.701 48.3537 198.099C48.0838 197.493 47.9489 196.807 47.9489 196.04C47.9489 194.96 48.1856 194.113 48.6591 193.497C49.1326 192.877 49.7576 192.437 50.5341 192.176ZM59.2273 185.022C59.2273 186.007 58.9929 186.871 58.5241 187.615C58.0554 188.353 57.3996 188.931 56.5568 189.348C55.714 189.76 54.7292 189.966 53.6023 189.966C52.4659 189.966 51.474 189.76 50.6264 189.348C49.7789 188.931 49.1207 188.353 48.652 187.615C48.1832 186.871 47.9489 186.007 47.9489 185.022C47.9489 184.038 48.1832 183.176 48.652 182.437C49.1207 181.694 49.7789 181.116 50.6264 180.704C51.474 180.288 52.4659 180.079 53.6023 180.079C54.7292 180.079 55.714 180.288 56.5568 180.704C57.3996 181.116 58.0554 181.694 58.5241 182.437C58.9929 183.176 59.2273 184.038 59.2273 185.022ZM57.7216 185.022C57.7216 184.274 57.5298 183.659 57.1463 183.176C56.7628 182.693 56.2585 182.335 55.6335 182.103C55.0085 181.871 54.3314 181.755 53.6023 181.755C52.8731 181.755 52.1937 181.871 51.5639 182.103C50.9342 182.335 50.4252 182.693 50.0369 183.176C49.6487 183.659 49.4545 184.274 49.4545 185.022C49.4545 185.77 49.6487 186.386 50.0369 186.869C50.4252 187.352 50.9342 187.709 51.5639 187.941C52.1937 188.173 52.8731 188.289 53.6023 188.289C54.3314 188.289 55.0085 188.173 55.6335 187.941C56.2585 187.709 56.7628 187.352 57.1463 186.869C57.5298 186.386 57.7216 185.77 57.7216 185.022Z" fill="black"/>
<path d="M45.4545 147.693V145.932H55.0852C56.0795 145.932 56.9673 146.166 57.7486 146.635C58.5251 147.099 59.1383 147.755 59.5881 148.602C60.0331 149.45 60.2557 150.444 60.2557 151.585C60.2557 152.726 60.0331 153.721 59.5881 154.568C59.1383 155.416 58.5251 156.074 57.7486 156.543C56.9673 157.007 56.0795 157.239 55.0852 157.239H45.4545V155.477H54.9432C55.6534 155.477 56.2855 155.321 56.8395 155.009C57.3887 154.696 57.822 154.251 58.1392 153.673C58.4517 153.091 58.608 152.395 58.608 151.585C58.608 150.776 58.4517 150.08 58.1392 149.497C57.822 148.915 57.3887 148.47 56.8395 148.162C56.2855 147.849 55.6534 147.693 54.9432 147.693H45.4545ZM43.9773 152.352L40.6818 150.619V148.659L43.9773 150.875V152.352ZM45.4545 140.966H60V142.642H45.4545V140.966ZM49.0909 133.151H50.5114V138.805H49.0909V133.151ZM46.4773 137.157V135.481H56.875C57.3485 135.481 57.7036 135.412 57.9403 135.275C58.1723 135.133 58.3286 134.953 58.4091 134.735C58.4848 134.513 58.5227 134.278 58.5227 134.032C58.5227 133.847 58.5133 133.696 58.4943 133.577C58.4706 133.459 58.4517 133.364 58.4375 133.293L59.9432 132.952C59.9858 133.066 60.0284 133.225 60.071 133.428C60.1184 133.632 60.142 133.89 60.142 134.202C60.142 134.676 60.0402 135.14 59.8366 135.594C59.633 136.044 59.3229 136.418 58.9062 136.717C58.4896 137.01 57.964 137.157 57.3295 137.157H46.4773ZM60 130.63H49.0909V128.954H60V130.63ZM47.2727 129.778C47.2727 130.104 47.1615 130.386 46.9389 130.623C46.7164 130.855 46.4489 130.971 46.1364 130.971C45.8239 130.971 45.5563 130.855 45.3338 130.623C45.1113 130.386 45 130.104 45 129.778C45 129.451 45.1113 129.172 45.3338 128.94C45.5563 128.703 45.8239 128.585 46.1364 128.585C46.4489 128.585 46.7164 128.703 46.9389 128.94C47.1615 129.172 47.2727 129.451 47.2727 129.778ZM60 125.884H49.0909V124.265H50.7955V124.123C50.2131 123.895 49.7609 123.528 49.4389 123.022C49.1122 122.515 48.9489 121.907 48.9489 121.196C48.9489 120.477 49.1122 119.878 49.4389 119.4C49.7609 118.917 50.2131 118.54 50.7955 118.27V118.157C50.232 117.877 49.7846 117.458 49.4531 116.9C49.117 116.341 48.9489 115.671 48.9489 114.89C48.9489 113.914 49.2543 113.116 49.8651 112.496C50.4711 111.876 51.4157 111.566 52.6989 111.566H60V113.242H52.6989C51.8939 113.242 51.3187 113.462 50.973 113.902C50.6274 114.343 50.4545 114.861 50.4545 115.458C50.4545 116.225 50.6866 116.819 51.1506 117.24C51.6098 117.662 52.1922 117.873 52.8977 117.873H60V119.577H52.5284C51.9081 119.577 51.4086 119.778 51.0298 120.181C50.6463 120.583 50.4545 121.102 50.4545 121.736C50.4545 122.172 50.5705 122.579 50.8026 122.958C51.0346 123.332 51.3565 123.635 51.7685 123.867C52.1757 124.094 52.6468 124.208 53.1818 124.208H60V125.884ZM60.2557 105.291C60.2557 105.982 60.1255 106.609 59.8651 107.173C59.5999 107.736 59.2188 108.184 58.7216 108.515C58.2197 108.847 57.6136 109.012 56.9034 109.012C56.2784 109.012 55.7718 108.889 55.3835 108.643C54.9905 108.397 54.6828 108.068 54.4602 107.656C54.2377 107.244 54.072 106.789 53.9631 106.292C53.8494 105.79 53.7595 105.286 53.6932 104.779C53.608 104.117 53.544 103.579 53.5014 103.167C53.4541 102.751 53.3759 102.448 53.267 102.258C53.1581 102.064 52.9687 101.967 52.6989 101.967H52.642C51.9413 101.967 51.3968 102.159 51.0085 102.542C50.6203 102.921 50.4261 103.496 50.4261 104.268C50.4261 105.068 50.6013 105.696 50.9517 106.15C51.3021 106.605 51.6761 106.924 52.0739 107.109L51.5057 108.7C50.8428 108.416 50.3267 108.037 49.9574 107.564C49.5833 107.085 49.3229 106.565 49.1761 106.001C49.0246 105.433 48.9489 104.874 48.9489 104.325C48.9489 103.975 48.9915 103.572 49.0767 103.118C49.1572 102.658 49.3253 102.216 49.581 101.789C49.8366 101.359 50.2225 101.001 50.7386 100.717C51.2547 100.433 51.946 100.291 52.8125 100.291H60V101.967H58.5227V102.052C58.7595 102.166 59.0128 102.355 59.2827 102.62C59.5526 102.886 59.7822 103.238 59.9716 103.679C60.161 104.119 60.2557 104.656 60.2557 105.291ZM58.75 105.035C58.75 104.372 58.6198 103.814 58.3594 103.359C58.099 102.9 57.7628 102.554 57.3509 102.322C56.9389 102.085 56.5057 101.967 56.0511 101.967H54.517C54.6023 102.038 54.6804 102.194 54.7514 102.436C54.8177 102.672 54.8769 102.947 54.929 103.26C54.9763 103.567 55.0189 103.868 55.0568 104.162C55.09 104.45 55.1184 104.685 55.142 104.865C55.1989 105.3 55.2912 105.708 55.419 106.086C55.5421 106.46 55.7292 106.763 55.9801 106.995C56.2263 107.223 56.5625 107.336 56.9886 107.336C57.571 107.336 58.0114 107.121 58.3097 106.69C58.6032 106.254 58.75 105.703 58.75 105.035ZM60.2557 88.3963C60.2557 89.0876 60.1255 89.715 59.8651 90.2784C59.5999 90.8419 59.2188 91.2893 58.7216 91.6207C58.2197 91.9522 57.6136 92.1179 56.9034 92.1179C56.2784 92.1179 55.7718 91.9948 55.3835 91.7486C54.9905 91.5024 54.6828 91.1733 54.4602 90.7614C54.2377 90.3494 54.072 89.8949 53.9631 89.3977C53.8494 88.8958 53.7595 88.3916 53.6932 87.8849C53.608 87.2221 53.544 86.6847 53.5014 86.2727C53.4541 85.8561 53.3759 85.553 53.267 85.3636C53.1581 85.1695 52.9687 85.0724 52.6989 85.0724H52.642C51.9413 85.0724 51.3968 85.2642 51.0085 85.6477C50.6203 86.0265 50.4261 86.6018 50.4261 87.3736C50.4261 88.1738 50.6013 88.8011 50.9517 89.2557C51.3021 89.7102 51.6761 90.0298 52.0739 90.2145L51.5057 91.8054C50.8428 91.5213 50.3267 91.1425 49.9574 90.669C49.5833 90.1908 49.3229 89.67 49.1761 89.1065C49.0246 88.5384 48.9489 87.9796 48.9489 87.4304C48.9489 87.08 48.9915 86.6776 49.0767 86.223C49.1572 85.7637 49.3253 85.321 49.581 84.8949C49.8366 84.464 50.2225 84.1065 50.7386 83.8224C51.2547 83.5384 51.946 83.3963 52.8125 83.3963H60V85.0724H58.5227V85.1577C58.7595 85.2713 59.0128 85.4607 59.2827 85.7259C59.5526 85.991 59.7822 86.3437 59.9716 86.7841C60.161 87.2244 60.2557 87.7618 60.2557 88.3963ZM58.75 88.1406C58.75 87.4777 58.6198 86.919 58.3594 86.4645C58.099 86.0052 57.7628 85.6596 57.3509 85.4276C56.9389 85.1908 56.5057 85.0724 56.0511 85.0724H54.517C54.6023 85.1435 54.6804 85.2997 54.7514 85.5412C54.8177 85.7779 54.8769 86.0526 54.929 86.3651C54.9763 86.6728 55.0189 86.9735 55.0568 87.267C55.09 87.5559 55.1184 87.7902 55.142 87.9702C55.1989 88.4058 55.2912 88.813 55.419 89.1918C55.5421 89.5658 55.7292 89.8688 55.9801 90.1009C56.2263 90.3281 56.5625 90.4418 56.9886 90.4418C57.571 90.4418 58.0114 90.2263 58.3097 89.7955C58.6032 89.3598 58.75 88.8082 58.75 88.1406ZM45.4545 78.6609H60V80.337H45.4545V78.6609ZM49.0909 70.8466H50.5114V76.5H49.0909V70.8466ZM46.4773 74.8523V73.1761H56.875C57.3485 73.1761 57.7036 73.1075 57.9403 72.9702C58.1723 72.8281 58.3286 72.6482 58.4091 72.4304C58.4848 72.2079 58.5227 71.9735 58.5227 71.7273C58.5227 71.5426 58.5133 71.3911 58.4943 71.2727C58.4706 71.1544 58.4517 71.0597 58.4375 70.9886L59.9432 70.6477C59.9858 70.7614 60.0284 70.92 60.071 71.1236C60.1184 71.3272 60.142 71.5852 60.142 71.8977C60.142 72.3712 60.0402 72.8352 59.8366 73.2898C59.633 73.7396 59.3229 74.1136 58.9063 74.4119C58.4896 74.7055 57.964 74.8523 57.3295 74.8523H46.4773ZM55.5398 61.4503H49.0909V59.7741H60V61.4503H58.1534V61.5639C58.7074 61.8196 59.1785 62.2173 59.5668 62.7571C59.9503 63.2969 60.142 63.9787 60.142 64.8026C60.142 65.4844 59.9929 66.0904 59.6946 66.6207C59.3916 67.151 58.937 67.5677 58.331 67.8707C57.7202 68.1738 56.9508 68.3253 56.0227 68.3253H49.0909V66.6491H55.9091C56.7045 66.6491 57.339 66.4266 57.8125 65.9815C58.286 65.5317 58.5227 64.9588 58.5227 64.2628C58.5227 63.8461 58.4162 63.4223 58.2031 62.9915C57.9901 62.5559 57.6634 62.1913 57.223 61.8977C56.7827 61.5994 56.2216 61.4503 55.5398 61.4503ZM60 56.7042H49.0909V55.0849H50.7386V54.9712C50.1989 54.7724 49.7609 54.4125 49.4247 53.8917C49.0885 53.3709 48.9205 52.7837 48.9205 52.1303C48.9205 52.0072 48.9228 51.8533 48.9276 51.6687C48.9323 51.484 48.9394 51.3443 48.9489 51.2496H50.6534C50.6392 51.3065 50.6179 51.4367 50.5895 51.6403C50.5563 51.8391 50.5398 52.0498 50.5398 52.2724C50.5398 52.8027 50.651 53.2762 50.8736 53.6928C51.0914 54.1048 51.3944 54.4315 51.7827 54.6729C52.1662 54.9097 52.6042 55.0281 53.0966 55.0281H60V56.7042ZM60.2557 46.0526C60.2557 46.7438 60.1255 47.3712 59.8651 47.9347C59.5999 48.4981 59.2188 48.9455 58.7216 49.277C58.2197 49.6084 57.6136 49.7741 56.9034 49.7741C56.2784 49.7741 55.7718 49.651 55.3835 49.4048C54.9905 49.1586 54.6828 48.8295 54.4602 48.4176C54.2377 48.0057 54.072 47.5511 53.9631 47.054C53.8494 46.5521 53.7595 46.0478 53.6932 45.5412C53.608 44.8783 53.544 44.3409 53.5014 43.929C53.4541 43.5123 53.3759 43.2093 53.267 43.0199C53.1581 42.8258 52.9687 42.7287 52.6989 42.7287H52.642C51.9413 42.7287 51.3968 42.9205 51.0085 43.304C50.6203 43.6828 50.4261 44.258 50.4261 45.0298C50.4261 45.83 50.6013 46.4574 50.9517 46.9119C51.3021 47.3665 51.6761 47.6861 52.0739 47.8707L51.5057 49.4616C50.8428 49.1776 50.3267 48.7988 49.9574 48.3253C49.5833 47.8471 49.3229 47.3262 49.1761 46.7628C49.0246 46.1946 48.9489 45.6359 48.9489 45.0866C48.9489 44.7363 48.9915 44.3338 49.0767 43.8793C49.1572 43.42 49.3253 42.9773 49.581 42.5511C49.8366 42.1203 50.2225 41.7628 50.7386 41.4787C51.2547 41.1946 51.946 41.0526 52.8125 41.0526H60V42.7287H58.5227V42.8139C58.7595 42.9276 59.0128 43.117 59.2827 43.3821C59.5526 43.6473 59.7822 44 59.9716 44.4403C60.161 44.8807 60.2557 45.4181 60.2557 46.0526ZM58.75 45.7969C58.75 45.134 58.6198 44.5753 58.3594 44.1207C58.099 43.6615 57.7628 43.3158 57.3509 43.0838C56.9389 42.8471 56.5057 42.7287 56.0511 42.7287H54.517C54.6023 42.7997 54.6804 42.956 54.7514 43.1974C54.8177 43.4342 54.8769 43.7088 54.929 44.0213C54.9763 44.3291 55.0189 44.6297 55.0568 44.9233C55.09 45.2121 55.1184 45.4465 55.142 45.6264C55.1989 46.062 55.2912 46.4692 55.419 46.848C55.5421 47.2221 55.7292 47.5251 55.9801 47.7571C56.2263 47.9844 56.5625 48.098 56.9886 48.098C57.571 48.098 58.0114 47.8826 58.3097 47.4517C58.6032 47.0161 58.75 46.4645 58.75 45.7969Z" fill="black"/>
</svg>
