<svg width="99" height="285" viewBox="0 0 99 285" fill="none" xmlns="http://www.w3.org/2000/svg">
<rect x="0.907806" y="8.295" width="88.8491" height="275.738" transform="rotate(-0.0393437 0.907806 8.295)" fill="#D9D9D9"/>
<rect x="7.80707" y="16.7156" width="75.0621" height="259.654" transform="rotate(-0.0393437 7.80707 16.7156)" fill="white"/>
<rect x="7.80707" y="16.7156" width="75.0621" height="259.654" transform="rotate(-0.0393437 7.80707 16.7156)" fill="white"/>
<rect x="82.956" y="143.044" width="6.89346" height="71.2324" transform="rotate(-0.0393437 82.956 143.044)" fill="white"/>
<rect x="82.956" y="143.044" width="6.89346" height="71.2324" transform="rotate(-0.0393437 82.956 143.044)" fill="white"/>
<rect x="82.8965" y="56.4929" width="6.89346" height="71.2324" transform="rotate(-0.0393437 82.8965 56.4929)" fill="white"/>
<rect x="82.8965" y="56.4929" width="6.89346" height="71.2324" transform="rotate(-0.0393437 82.8965 56.4929)" fill="white"/>
<rect width="6.13493" height="14.6188" transform="matrix(0.000252534 1 -1 -6.55313e-06 98.3329 127.725)" fill="white"/>
<rect width="6.13493" height="14.6188" transform="matrix(0.000252534 1 -1 -6.55313e-06 98.3329 127.725)" fill="#D9D9D9"/>
<rect width="6.4791" height="14.5821" transform="matrix(0.000252534 1 -1 -6.55313e-06 97.4639 214.277)" fill="white"/>
<rect width="6.4791" height="14.5821" transform="matrix(0.000252534 1 -1 -6.55313e-06 97.4639 214.277)" fill="#D9D9D9"/>
<rect width="6.61775" height="14.7916" transform="matrix(0.000252534 1 -1 -6.55313e-06 97.554 40.4084)" fill="white"/>
<rect width="6.61775" height="14.7916" transform="matrix(0.000252534 1 -1 -6.55313e-06 97.554 40.4084)" fill="#D9D9D9"/>
<path d="M56.9629 214.294L51.1963 224.298L62.7433 224.29L56.9629 214.294ZM57.0055 276.336L62.7722 266.332L51.2252 266.34L57.0055 276.336ZM55.9691 223.295L55.9993 267.336L57.9993 267.335L57.9691 223.294L55.9691 223.295Z" fill="black"/>
<path d="M56.9035 127.743L51.1369 137.747L62.6839 137.739L56.9035 127.743ZM56.9629 214.294L62.7296 204.29L51.1826 204.298L56.9629 214.294ZM55.9097 136.744L55.9568 205.295L57.9568 205.294L57.9097 136.743L55.9097 136.744Z" fill="black"/>
<path d="M56.8272 16.6819L51.0606 26.6859L62.6076 26.678L56.8272 16.6819ZM56.9035 127.743L62.6701 117.739L51.1231 117.747L56.9035 127.743ZM55.8334 25.6826L55.8973 118.744L57.8973 118.743L57.8334 25.6813L55.8334 25.6826Z" fill="black"/>
<line x1="83.0051" y1="214.527" x2="55.4312" y2="214.546" stroke="black" stroke-width="0.5"/>
<line x1="82.9456" y1="127.975" x2="54.6059" y2="127.995" stroke="black" stroke-width="0.5"/>
<path d="M45.0801 259.082L33.4437 259.09L33.441 255.159C33.4404 254.246 33.6046 253.499 33.9338 252.92C34.2591 252.336 34.7001 251.904 35.2567 251.623C35.8134 251.343 36.4345 251.202 37.1201 251.201C37.8057 251.201 38.4289 251.341 38.9897 251.621C39.5505 251.897 39.9978 252.325 40.3315 252.904C40.6614 253.483 40.8267 254.225 40.8273 255.131L40.8293 257.949L39.5793 257.95L39.5774 255.177C39.5769 254.552 39.4686 254.05 39.2525 253.672C39.0363 253.293 38.7444 253.019 38.3769 252.848C38.0056 252.674 37.587 252.588 37.121 252.588C36.6551 252.588 36.2385 252.676 35.8712 252.85C35.5039 253.021 35.2162 253.297 35.0082 253.68C34.7963 254.063 34.6906 254.571 34.691 255.203L34.6927 257.68L45.0791 257.673L45.0801 259.082ZM45.2527 245.656C45.2532 246.444 45.0662 247.135 44.6916 247.73C44.317 248.322 43.7927 248.784 43.1187 249.118C42.4446 249.448 41.6569 249.613 40.7554 249.614C39.8463 249.614 39.0526 249.45 38.3743 249.121C37.6961 248.788 37.1693 248.326 36.7939 247.736C36.4184 247.141 36.2305 246.45 36.2299 245.662C36.2294 244.874 36.4164 244.185 36.791 243.594C37.1656 242.999 37.6918 242.536 38.3696 242.206C39.0474 241.873 39.8408 241.705 40.7499 241.705C41.6515 241.704 42.4394 241.87 43.1139 242.203C43.7884 242.532 44.3133 242.994 44.6887 243.588C45.0641 244.179 45.2521 244.868 45.2527 245.656ZM44.0481 245.657C44.0477 245.058 43.8939 244.566 43.5869 244.18C43.2798 243.794 42.8762 243.508 42.376 243.323C41.8759 243.138 41.3342 243.045 40.7509 243.046C40.1675 243.046 39.624 243.139 39.1204 243.325C38.6167 243.511 38.2097 243.797 37.8994 244.184C37.589 244.57 37.4341 245.063 37.4345 245.661C37.4349 246.26 37.5905 246.752 37.9014 247.138C38.2123 247.525 38.6197 247.81 39.1236 247.996C39.6275 248.181 40.1711 248.273 40.7544 248.273C41.3378 248.272 41.8794 248.179 42.3793 247.993C42.8791 247.807 43.2823 247.521 43.5889 247.135C43.8954 246.748 44.0485 246.255 44.0481 245.657ZM45.2461 236.109C45.2467 236.927 45.054 237.632 44.668 238.223C44.282 238.814 43.7502 239.269 43.0723 239.588C42.3945 239.907 41.62 240.066 40.7488 240.067C39.8624 240.067 39.0801 239.905 38.4019 239.58C37.7198 239.251 37.1873 238.793 36.8044 238.206C36.4176 237.615 36.2239 236.926 36.2234 236.138C36.223 235.525 36.3362 234.971 36.5632 234.479C36.7901 233.986 37.108 233.583 37.5169 233.268C37.9257 232.953 38.4029 232.758 38.9483 232.682L38.9492 234.023C38.5516 234.125 38.1994 234.353 37.8929 234.705C37.5825 235.054 37.4275 235.524 37.4279 236.115C37.4283 236.637 37.565 237.096 37.838 237.489C38.1072 237.879 38.488 238.184 38.9806 238.403C39.4694 238.619 40.0433 238.726 40.7024 238.726C41.3767 238.726 41.9637 238.619 42.4636 238.407C42.9634 238.19 43.3515 237.887 43.6277 237.497C43.904 237.103 44.0419 236.64 44.0416 236.11C44.0413 235.762 43.9805 235.445 43.8591 235.161C43.7377 234.877 43.5633 234.637 43.3359 234.44C43.1085 234.243 42.8356 234.103 42.5174 234.02L42.5165 232.679C43.0317 232.755 43.4958 232.942 43.9089 233.241C44.3182 233.536 44.6442 233.928 44.887 234.416C45.1259 234.901 45.2457 235.465 45.2461 236.109ZM45.0193 236.746L45.0185 235.632L45.4731 235.723C45.5184 235.427 45.6413 235.156 45.8419 234.91C46.0462 234.664 46.37 234.54 46.8132 234.54C47.3018 234.54 47.6997 234.742 48.0068 235.147C48.3177 235.548 48.4734 236.141 48.4739 236.925L47.5876 236.971C47.5874 236.619 47.5303 236.327 47.4165 236.096C47.3065 235.862 47.1208 235.744 46.8595 235.745C46.5981 235.745 46.4202 235.841 46.3256 236.035C46.231 236.228 46.1668 236.54 46.1331 236.972L45.0193 236.746ZM45.24 227.172C45.2405 227.96 45.0535 228.651 44.6789 229.246C44.3043 229.837 43.78 230.3 43.106 230.633C42.432 230.963 41.6442 231.129 40.7427 231.129C39.8336 231.13 39.0399 230.966 38.3617 230.637C37.6834 230.304 37.1566 229.842 36.7812 229.251C36.4057 228.657 36.2178 227.966 36.2172 227.178C36.2167 226.39 36.4037 225.701 36.7783 225.109C37.1529 224.514 37.6791 224.052 38.3569 223.722C39.0347 223.388 39.8282 223.221 40.7372 223.22C41.6388 223.22 42.4268 223.386 43.1012 223.719C43.7757 224.048 44.3006 224.51 44.676 225.104C45.0514 225.695 45.2394 226.384 45.24 227.172ZM44.0354 227.173C44.035 226.574 43.8813 226.082 43.5742 225.696C43.2671 225.309 42.8635 225.024 42.3634 224.838C41.8632 224.653 41.3215 224.561 40.7382 224.561C40.1548 224.562 39.6113 224.655 39.1077 224.841C38.604 225.027 38.197 225.313 37.8867 225.7C37.5763 226.086 37.4214 226.579 37.4218 227.177C37.4222 227.776 37.5778 228.268 37.8887 228.654C38.1996 229.04 38.607 229.326 39.1109 229.511C39.6148 229.696 40.1584 229.789 40.7418 229.788C41.3251 229.788 41.8667 229.695 42.3666 229.509C42.8664 229.323 43.2696 229.037 43.5762 228.65C43.8828 228.264 44.0358 227.771 44.0354 227.173Z" fill="black"/>
<path d="M45.3832 201.036L33.7469 201.044L33.7442 197.112C33.7435 196.199 33.9078 195.453 34.2369 194.873C34.5623 194.29 35.0033 193.858 35.5599 193.577C36.1165 193.296 36.7376 193.156 37.4233 193.155C38.1089 193.155 38.7321 193.294 39.2929 193.574C39.8537 193.851 40.3009 194.278 40.6347 194.858C40.9646 195.437 41.1299 196.179 41.1305 197.085L41.1324 199.903L39.8824 199.904L39.8805 197.131C39.8801 196.506 39.7718 196.004 39.5556 195.625C39.3395 195.247 39.0476 194.972 38.6801 194.802C38.3087 194.628 37.8901 194.541 37.4242 194.542C36.9583 194.542 36.5417 194.629 36.1744 194.804C35.8071 194.975 35.5194 195.251 35.3113 195.634C35.0995 196.017 34.9938 196.524 34.9942 197.157L34.9959 199.634L45.3822 199.627L45.3832 201.036ZM45.5557 187.496C45.5563 188.337 45.3712 189.063 45.0004 189.673C44.6258 190.279 44.1034 190.747 43.4332 191.077C42.7592 191.403 41.9752 191.567 41.0813 191.567C40.1873 191.568 39.3993 191.406 38.7173 191.08C38.0315 190.751 37.497 190.293 37.1141 189.707C36.7273 189.116 36.5336 188.427 36.5331 187.639C36.5328 187.184 36.6082 186.735 36.7595 186.292C36.9107 185.849 37.1566 185.445 37.4973 185.081C37.8341 184.717 38.2809 184.427 38.8376 184.211C39.3942 183.995 40.0798 183.886 40.8942 183.886L41.4623 183.885L41.467 190.613L40.3079 190.613L40.3042 185.25C39.8118 185.25 39.3724 185.349 38.9862 185.546C38.6 185.74 38.2952 186.016 38.072 186.376C37.8488 186.733 37.7373 187.153 37.7376 187.638C37.738 188.172 37.8709 188.634 38.1363 189.024C38.398 189.41 38.7391 189.707 39.1597 189.915C39.5803 190.123 40.0311 190.227 40.5122 190.227L41.2849 190.226C41.944 190.226 42.5026 190.112 42.9608 189.884C43.4152 189.653 43.7615 189.333 43.9999 188.923C44.2345 188.514 44.3516 188.039 44.3512 187.497C44.3509 187.145 44.3015 186.827 44.2028 186.543C44.1003 186.255 43.9487 186.007 43.7478 185.799C43.5431 185.59 43.2892 185.43 42.9861 185.316L43.3488 184.02C43.7883 184.157 44.1748 184.385 44.5084 184.707C44.8381 185.029 45.096 185.426 45.2819 185.9C45.4641 186.373 45.5553 186.905 45.5557 187.496ZM45.37 181.843L36.6428 181.849L36.6419 180.553L37.9601 180.553L37.96 180.462C37.5281 180.303 37.1775 180.015 36.9083 179.599C36.639 179.182 36.5042 178.713 36.5039 178.19C36.5038 178.091 36.5056 177.968 36.5093 177.821C36.513 177.673 36.5186 177.561 36.5261 177.485L37.8898 177.484C37.8784 177.53 37.8615 177.634 37.8388 177.797C37.8124 177.956 37.7993 178.125 37.7994 178.303C37.7997 178.727 37.889 179.106 38.0672 179.439C38.2417 179.768 38.4843 180.03 38.7951 180.222C39.102 180.412 39.4524 180.506 39.8464 180.506L45.3691 180.502L45.37 181.843ZM45.5455 172.61C45.5461 173.428 45.3534 174.133 44.9674 174.724C44.5815 175.315 44.0496 175.77 43.3718 176.089C42.694 176.407 41.9194 176.567 41.0482 176.568C40.1619 176.568 39.3796 176.406 38.7013 176.08C38.0193 175.751 37.4867 175.293 37.1038 174.707C36.717 174.116 36.5233 173.427 36.5228 172.639C36.5224 172.025 36.6356 171.472 36.8626 170.979C37.0895 170.487 37.4074 170.083 37.8163 169.769C38.2252 169.454 38.7023 169.259 39.2477 169.182L39.2486 170.523C38.851 170.626 38.4989 170.853 38.1923 171.206C37.8819 171.555 37.7269 172.024 37.7273 172.615C37.7277 173.138 37.8644 173.596 38.1374 173.99C38.4066 174.38 38.7875 174.685 39.28 174.904C39.7688 175.12 40.3428 175.227 41.0019 175.227C41.6761 175.226 42.2631 175.12 42.763 174.907C43.2629 174.691 43.6509 174.388 43.9271 173.997C44.2034 173.603 44.3413 173.141 44.341 172.611C44.3407 172.262 44.2799 171.946 44.1585 171.662C44.0371 171.378 43.8627 171.138 43.6353 170.941C43.4079 170.744 43.135 170.604 42.8168 170.521L42.8159 169.18C43.3311 169.255 43.7952 169.443 44.2083 169.741C44.6176 170.037 44.9436 170.428 45.1864 170.917C45.4254 171.402 45.5451 171.966 45.5455 172.61ZM41.788 161.72L36.6289 161.724L36.628 160.383L45.3553 160.377L45.3562 161.718L43.8789 161.719L43.879 161.81C44.3223 162.014 44.6994 162.332 45.0103 162.764C45.3175 163.195 45.4712 163.741 45.4717 164.4C45.4721 164.945 45.3531 165.43 45.1147 165.854C44.8726 166.279 44.5092 166.612 44.0245 166.855C43.536 167.098 42.9206 167.22 42.1782 167.22L36.6327 167.224L36.6318 165.883L42.0863 165.879C42.7227 165.879 43.2302 165.7 43.6087 165.344C43.9872 164.984 44.1763 164.526 44.1759 163.969C44.1757 163.635 44.0903 163.296 43.9196 162.952C43.7489 162.604 43.4873 162.312 43.1349 162.077C42.7824 161.839 42.3335 161.72 41.788 161.72ZM45.3536 157.921L36.6263 157.927L36.6254 156.632L37.9436 156.631L37.9436 156.54C37.5116 156.381 37.1611 156.093 36.8918 155.677C36.6226 155.26 36.4878 154.791 36.4875 154.268C36.4874 154.17 36.4892 154.046 36.4929 153.899C36.4966 153.751 36.5022 153.639 36.5097 153.564L37.8733 153.563C37.862 153.608 37.845 153.712 37.8224 153.875C37.796 154.034 37.7829 154.203 37.783 154.381C37.7833 154.805 37.8726 155.184 38.0508 155.517C38.2253 155.846 38.4679 156.108 38.7786 156.301C39.0856 156.49 39.436 156.584 39.83 156.584L45.3527 156.58L45.3536 157.921ZM38.5725 145.791L38.9143 146.995C38.7136 147.071 38.5186 147.183 38.3293 147.331C38.1362 147.475 37.9773 147.672 37.8524 147.922C37.7276 148.172 37.6653 148.492 37.6656 148.882C37.6659 149.416 37.7894 149.861 38.0358 150.217C38.2785 150.569 38.5873 150.745 38.9623 150.745C39.2956 150.745 39.5588 150.623 39.7518 150.381C39.9449 150.138 40.1056 149.759 40.234 149.244L40.5513 147.949C40.7402 147.168 41.0295 146.586 41.4194 146.204C41.8055 145.821 42.3035 145.629 42.9133 145.629C43.4133 145.628 43.8604 145.772 44.2546 146.06C44.6487 146.343 44.9596 146.741 45.1872 147.252C45.4148 147.763 45.5289 148.358 45.5293 149.036C45.5299 149.926 45.3373 150.663 44.9513 151.247C44.5653 151.83 44.0012 152.2 43.2589 152.356L42.9398 151.083C43.4094 150.962 43.7616 150.732 43.9962 150.395C44.2308 150.054 44.3479 149.609 44.3475 149.06C44.3471 148.435 44.2142 147.938 43.9488 147.571C43.6796 147.2 43.3575 147.015 42.9825 147.015C42.6795 147.015 42.4257 147.121 42.2213 147.334C42.0132 147.546 41.8581 147.872 41.7561 148.311L41.4162 149.766C41.2273 150.565 40.9342 151.153 40.5367 151.528C40.1355 151.9 39.6337 152.086 39.0314 152.086C38.539 152.086 38.1033 151.948 37.7243 151.672C37.3453 151.392 37.0477 151.012 36.8315 150.531C36.6152 150.046 36.5069 149.497 36.5065 148.883C36.5059 148.019 36.6948 147.341 37.0733 146.849C37.4517 146.352 37.9515 146 38.5725 145.791ZM45.5232 140.063C45.5237 140.851 45.3367 141.542 44.9621 142.137C44.5875 142.728 44.0632 143.191 43.3892 143.525C42.7152 143.855 41.9274 144.02 41.0259 144.021C40.1168 144.021 39.3231 143.857 38.6449 143.528C37.9666 143.195 37.4398 142.733 37.0644 142.143C36.689 141.548 36.501 140.857 36.5004 140.069C36.4999 139.281 36.6869 138.592 37.0615 138.001C37.4361 137.406 37.9623 136.943 38.6401 136.613C39.3179 136.279 40.1114 136.112 41.0204 136.112C41.922 136.111 42.71 136.277 43.3844 136.61C44.0589 136.939 44.5838 137.401 44.9592 137.995C45.3346 138.586 45.5226 139.275 45.5232 140.063ZM44.3186 140.064C44.3182 139.465 44.1645 138.973 43.8574 138.587C43.5503 138.201 43.1467 137.915 42.6466 137.73C42.1464 137.544 41.6047 137.452 41.0214 137.452C40.438 137.453 39.8945 137.546 39.3909 137.732C38.8872 137.918 38.4802 138.204 38.1699 138.591C37.8595 138.977 37.7046 139.47 37.705 140.068C37.7054 140.667 37.861 141.159 38.1719 141.545C38.4828 141.931 38.8902 142.217 39.3941 142.402C39.898 142.588 40.4416 142.68 41.025 142.68C41.6083 142.679 42.1499 142.586 42.6498 142.4C43.1496 142.214 43.5529 141.928 43.8594 141.541C44.166 141.155 44.319 140.662 44.3186 140.064Z" fill="black"/>
<path d="M34.4529 113.749L34.4519 112.34L42.1564 112.335C42.9519 112.335 43.6622 112.522 44.2875 112.896C44.909 113.267 45.3999 113.791 45.7602 114.469C46.1167 115.147 46.2953 115.942 46.2959 116.855C46.2965 117.768 46.119 118.563 45.7634 119.242C45.4041 119.92 44.9139 120.447 44.2929 120.822C43.6682 121.194 42.9581 121.38 42.1626 121.381L34.4581 121.386L34.4571 119.977L42.048 119.972C42.6162 119.971 43.1218 119.846 43.5648 119.596C44.004 119.345 44.3504 118.989 44.6039 118.527C44.8535 118.061 44.9782 117.504 44.9777 116.856C44.9773 116.208 44.8519 115.651 44.6016 115.186C44.3475 114.72 44.0006 114.364 43.5611 114.118C43.1177 113.869 42.6119 113.744 42.0438 113.744L34.4529 113.749ZM33.2736 117.478L30.6363 116.093L30.6352 114.525L33.2728 116.296L33.2736 117.478ZM34.4492 108.367L46.0855 108.359L46.0864 109.7L34.4501 109.708L34.4492 108.367ZM37.354 102.114L38.4903 102.113L38.4934 106.636L37.3571 106.637L37.354 102.114ZM35.2652 105.32L35.2643 103.979L43.5825 103.973C43.9613 103.973 44.2453 103.918 44.4347 103.808C44.6202 103.694 44.7451 103.55 44.8094 103.376C44.8699 103.198 44.9 103.01 44.8999 102.813C44.8998 102.666 44.8921 102.544 44.8769 102.45C44.8579 102.355 44.8427 102.279 44.8313 102.222L46.0357 101.949C46.0698 102.04 46.104 102.167 46.1382 102.33C46.1762 102.492 46.1953 102.699 46.1954 102.949C46.1957 103.328 46.1145 103.699 45.9519 104.063C45.7893 104.423 45.5414 104.722 45.2082 104.961C44.875 105.196 44.4546 105.314 43.9471 105.314L35.2652 105.32ZM46.0798 100.091L37.3526 100.097L37.3516 98.756L46.0789 98.75L46.0798 100.091ZM35.8976 99.4161C35.8977 99.6775 35.8089 99.9029 35.631 100.092C35.4531 100.278 35.2391 100.371 34.9891 100.371C34.7391 100.371 34.525 100.279 34.3469 100.093C34.1687 99.904 34.0796 99.6787 34.0794 99.4174C34.0792 99.156 34.1681 98.9324 34.346 98.7467C34.5239 98.5572 34.7378 98.4624 34.9878 98.4622C35.2378 98.462 35.4519 98.5566 35.63 98.7458C35.8082 98.9313 35.8974 99.1547 35.8976 99.4161ZM46.0772 96.2941L37.35 96.3001L37.3491 95.0046L38.7127 95.0037L38.7126 94.89C38.2466 94.7085 37.8847 94.4152 37.6268 94.0101C37.3652 93.605 37.2341 93.1183 37.2338 92.5501C37.2334 91.9744 37.3637 91.4951 37.6248 91.1124C37.8821 90.7258 38.2437 90.4244 38.7094 90.2082L38.7094 90.1173C38.2584 89.8941 37.9003 89.5591 37.6348 89.1124C37.3656 88.6656 37.2307 88.1297 37.2303 87.5047C37.2298 86.7244 37.4736 86.086 37.9619 85.5894C38.4464 85.0929 39.2019 84.8442 40.2285 84.8435L46.0694 84.8395L46.0703 86.1804L40.2294 86.1844C39.5854 86.1849 39.1253 86.3613 38.8491 86.7138C38.5728 87.0663 38.4348 87.4811 38.4351 87.9584C38.4356 88.572 38.6215 89.0473 38.9929 89.3842C39.3606 89.721 39.8266 89.8893 40.391 89.8889L46.0728 89.885L46.0738 91.2486L40.0965 91.2527C39.6003 91.2531 39.2008 91.4143 38.898 91.7365C38.5914 92.0587 38.4382 92.4735 38.4386 92.9811C38.4388 93.3296 38.5319 93.6553 38.7177 93.9582C38.9035 94.2573 39.1612 94.4996 39.4909 94.6849C39.8168 94.8665 40.1937 94.9572 40.6218 94.9569L46.0763 94.9532L46.0772 96.2941ZM46.2705 79.8195C46.2708 80.3725 46.167 80.8745 45.959 81.3254C45.7472 81.7763 45.4425 82.1345 45.045 82.3999C44.6436 82.6653 44.1589 82.7982 43.5907 82.7986C43.0907 82.7989 42.6853 82.7007 42.3746 82.504C42.0601 82.3072 41.8137 82.0441 41.6354 81.7147C41.4571 81.3853 41.3243 81.0218 41.2369 80.6241C41.1457 80.2226 41.0735 79.8193 41.0202 79.414C40.9516 78.8838 40.9002 78.4539 40.8659 78.1243C40.8278 77.791 40.7651 77.5487 40.6779 77.3972C40.5907 77.242 40.4391 77.1644 40.2232 77.1646L40.1777 77.1646C39.6171 77.165 39.1816 77.3187 38.8712 77.6257C38.5608 77.929 38.4058 78.3893 38.4063 79.0067C38.4067 79.6469 38.5472 80.1487 38.8278 80.5121C39.1083 80.8755 39.4077 81.131 39.726 81.2785L39.2723 82.5516C38.7419 82.3247 38.3288 82.0219 38.0331 81.6433C37.7336 81.261 37.525 80.8444 37.4072 80.3938C37.2857 79.9393 37.2248 79.4924 37.2245 79.053C37.2243 78.7727 37.2582 78.4507 37.3261 78.087C37.3902 77.7195 37.5245 77.3653 37.7288 77.0242C37.9331 76.6794 38.2416 76.3932 38.6543 76.1656C39.067 75.9381 39.62 75.8241 40.3132 75.8236L46.0632 75.8196L46.0641 77.1605L44.8823 77.1614L44.8823 77.2295C45.0718 77.3203 45.2745 77.4717 45.4906 77.6837C45.7066 77.8956 45.8906 78.1777 46.0423 78.5299C46.1941 78.882 46.2701 79.3119 46.2705 79.8195ZM45.0658 79.6158C45.0654 79.0855 44.9609 78.6386 44.7524 78.2751C44.5438 77.9078 44.2746 77.6315 43.945 77.4461C43.6153 77.2569 43.2686 77.1625 42.905 77.1627L41.6777 77.1636C41.746 77.2203 41.8085 77.3453 41.8655 77.5384C41.9186 77.7278 41.9661 77.9474 42.008 78.1974C42.046 78.4436 42.0803 78.6841 42.1108 78.9189C42.1374 79.15 42.1603 79.3375 42.1793 79.4814C42.225 79.8298 42.2991 80.1556 42.4016 80.4585C42.5003 80.7577 42.6501 81 42.8509 81.1855C43.048 81.3672 43.317 81.4579 43.658 81.4577C44.1239 81.4573 44.476 81.2847 44.7144 80.9399C44.949 80.5912 45.0661 80.1499 45.0658 79.6158ZM46.2612 66.3039C46.2616 66.8569 46.1577 67.3589 45.9497 67.8098C45.7379 68.2607 45.4332 68.6188 45.0357 68.8843C44.6344 69.1497 44.1496 69.2826 43.5814 69.283C43.0814 69.2833 42.676 69.1851 42.3653 68.9884C42.0508 68.7916 41.8044 68.5285 41.6261 68.1991C41.4479 67.8697 41.315 67.5061 41.2276 67.1085C41.1365 66.707 41.0642 66.3037 41.0109 65.8984C40.9424 65.3681 40.8909 64.9382 40.8566 64.6087C40.8185 64.2754 40.7558 64.033 40.6686 63.8816C40.5814 63.7263 40.4298 63.6488 40.2139 63.6489L40.1685 63.649C39.6078 63.6493 39.1723 63.8031 38.8619 64.1101C38.5516 64.4133 38.3966 64.8737 38.397 65.4911C38.3974 66.1312 38.5379 66.633 38.8185 66.9965C39.099 67.3599 39.3984 67.6154 39.7167 67.7629L39.2631 69.0359C38.7326 68.809 38.3195 68.5063 38.0238 68.1277C37.7243 67.7453 37.5157 67.3288 37.3979 66.8781C37.2764 66.4237 37.2155 65.9767 37.2152 65.5374C37.215 65.2571 37.2489 64.9351 37.3168 64.5714C37.381 64.2039 37.5152 63.8496 37.7195 63.5086C37.9238 63.1638 38.2323 62.8776 38.645 62.65C39.0578 62.4225 39.6107 62.3084 40.3039 62.308L46.0539 62.304L46.0548 63.6449L44.873 63.6457L44.873 63.7139C45.0625 63.8047 45.2653 63.9561 45.4813 64.168C45.6974 64.38 45.8813 64.6621 46.033 65.0143C46.1848 65.3664 46.2608 65.7963 46.2612 66.3039ZM45.0565 66.1002C45.0561 65.5698 44.9517 65.123 44.7431 64.7595C44.5345 64.3922 44.2654 64.1158 43.9357 63.9305C43.606 63.7413 43.2594 63.6468 42.8957 63.6471L41.6685 63.6479C41.7367 63.7047 41.7993 63.8297 41.8562 64.0228C41.9094 64.2122 41.9569 64.4318 41.9987 64.6818C42.0368 64.928 42.071 65.1685 42.1015 65.4033C42.1281 65.6344 42.151 65.8218 42.17 65.9658C42.2157 66.3142 42.2898 66.6399 42.3923 66.9429C42.491 67.2421 42.6408 67.4844 42.8417 67.6699C43.0388 67.8515 43.3078 67.9423 43.6487 67.942C44.1146 67.9417 44.4667 67.7691 44.7051 67.4243C44.9397 67.0756 45.0569 66.6342 45.0565 66.1002ZM34.4149 58.5237L46.0513 58.5157L46.0522 59.8566L34.4159 59.8646L34.4149 58.5237ZM37.3197 52.2702L38.4561 52.2695L38.4592 56.7922L37.3228 56.793L37.3197 52.2702ZM35.231 55.4762L35.2301 54.1353L43.5483 54.1296C43.9271 54.1293 44.2111 54.0742 44.4004 53.9642C44.586 53.8505 44.7109 53.7064 44.7751 53.5322C44.8356 53.3541 44.8658 53.1666 44.8657 52.9696C44.8656 52.8219 44.8579 52.7007 44.8427 52.606C44.8237 52.5113 44.8085 52.4355 44.7971 52.3787L46.0014 52.1052C46.0356 52.1961 46.0698 52.3229 46.104 52.4858C46.142 52.6486 46.161 52.8551 46.1612 53.1051C46.1615 53.4839 46.0803 53.8551 45.9177 54.2189C45.755 54.5788 45.5071 54.8782 45.174 55.1171C44.8408 55.3522 44.4204 55.4699 43.9128 55.4703L35.231 55.4762ZM42.4737 44.7496L37.3146 44.7532L37.3136 43.4123L46.0409 43.4063L46.0418 44.7472L44.5646 44.7482L44.5646 44.8391C45.0079 45.0434 45.3851 45.3613 45.696 45.7929C46.0031 46.2245 46.1569 46.7698 46.1573 47.4289C46.1577 47.9744 46.0387 48.4593 45.8004 48.8837C45.5582 49.3081 45.1948 49.6417 44.7101 49.8845C44.2217 50.1272 43.6062 50.2489 42.8638 50.2494L37.3183 50.2532L37.3174 48.9123L42.772 48.9085C43.4083 48.9081 43.9158 48.7297 44.2943 48.3734C44.6729 48.0133 44.8619 47.5548 44.8616 46.998C44.8613 46.6647 44.7759 46.3257 44.6052 45.9811C44.4345 45.6328 44.1729 45.3413 43.8205 45.1067C43.4681 44.8683 43.0191 44.7493 42.4737 44.7496ZM46.0392 40.9503L37.312 40.9563L37.3111 39.6609L38.6293 39.66L38.6292 39.569C38.1973 39.4103 37.8467 39.1226 37.5775 38.7061C37.3082 38.2897 37.1734 37.82 37.1731 37.2973C37.173 37.1988 37.1748 37.0757 37.1785 36.928C37.1822 36.7803 37.1878 36.6685 37.1953 36.5928L38.559 36.5918C38.5476 36.6373 38.5307 36.7415 38.508 36.9044C38.4816 37.0635 38.4685 37.232 38.4686 37.4101C38.4689 37.8343 38.5582 38.213 38.7364 38.5462C38.9109 38.8757 39.1535 39.1369 39.4643 39.3298C39.7712 39.519 40.1216 39.6135 40.5156 39.6132L46.0383 39.6094L46.0392 40.9503ZM46.2379 32.4289C46.2383 32.9819 46.1345 33.4839 45.9265 33.9348C45.7146 34.3857 45.41 34.7438 45.0124 35.0093C44.6111 35.2747 44.1263 35.4076 43.5582 35.408C43.0582 35.4083 42.6528 35.3101 42.342 35.1134C42.0275 34.9166 41.7811 34.6535 41.6029 34.3241C41.4246 33.9947 41.2918 33.6311 41.2044 33.2335C41.1132 32.832 41.041 32.4287 40.9876 32.0234C40.9191 31.4931 40.8677 31.0632 40.8333 30.7337C40.7952 30.4004 40.7326 30.158 40.6453 30.0066C40.5581 29.8513 40.4066 29.7738 40.1906 29.7739L40.1452 29.774C39.5846 29.7744 39.1491 29.9281 38.8387 30.2351C38.5283 30.5383 38.3733 30.9987 38.3737 31.6161C38.3742 32.2562 38.5147 32.758 38.7952 33.1215C39.0758 33.4849 39.3752 33.7404 39.6935 33.8879L39.2398 35.161C38.7093 34.934 38.2963 34.6313 38.0005 34.2527C37.701 33.8703 37.4924 33.4538 37.3747 33.0031C37.2532 32.5487 37.1922 32.1018 37.1919 31.6624C37.1917 31.3821 37.2256 31.0601 37.2935 30.6964C37.3577 30.3289 37.4919 29.9747 37.6962 29.6336C37.9005 29.2888 38.2091 29.0026 38.6218 28.775C39.0345 28.5475 39.5875 28.4334 40.2806 28.433L46.0306 28.429L46.0316 29.7699L44.8497 29.7707L44.8498 29.8389C45.0392 29.9297 45.242 30.0811 45.458 30.2931C45.6741 30.505 45.858 30.7871 46.0098 31.1393C46.1615 31.4914 46.2376 31.9213 46.2379 32.4289ZM45.0332 32.2252C45.0329 31.6949 44.9284 31.248 44.7198 30.8845C44.5112 30.5172 44.2421 30.2409 43.9124 30.0555C43.5828 29.8663 43.2361 29.7718 42.8725 29.7721L41.6452 29.7729C41.7134 29.8297 41.776 29.9547 41.8329 30.1478C41.8861 30.3372 41.9336 30.5568 41.9754 30.8068C42.0135 31.053 42.0477 31.2935 42.0782 31.5283C42.1049 31.7594 42.1277 31.9469 42.1468 32.0908C42.1925 32.4392 42.2666 32.7649 42.369 33.0679C42.4677 33.3671 42.6175 33.6094 42.8184 33.7949C43.0155 33.9765 43.2845 34.0673 43.6254 34.067C44.0913 34.0667 44.4435 33.8941 44.6819 33.5493C44.9165 33.2006 45.0336 32.7593 45.0332 32.2252Z" fill="black"/>
</svg>
